Nobile-Extra-Light.ufo
<glyph name="exclam" format="1">
  <advance width="217"/>
  <unicode hex="0021"/>
  <outline>
    <contour>
      <point x="105" y="0" type="curve" smooth="yes"/>
      <point x="126" y="0"/>
      <point x="137" y="16"/>
      <point x="137" y="32" type="curve" smooth="yes"/>
      <point x="137" y="49"/>
      <point x="126" y="64"/>
      <point x="105" y="64" type="curve" smooth="yes"/>
      <point x="84" y="64"/>
      <point x="73" y="49"/>
      <point x="73" y="32" type="curve" smooth="yes"/>
      <point x="73" y="16"/>
      <point x="84" y="0"/>
    </contour>
    <contour>
      <point x="95" y="146" type="line"/>
      <point x="113" y="146" type="line"/>
      <point x="126" y="740" type="line"/>
      <point x="81" y="740" type="line"/>
    </contour>
  </outline>
</glyph>
<glyph name="quotedbl" format="1">
  <advance width="188"/>
  <unicode hex="0022"/>
  <outline>
    <contour>
      <point x="39" y="535" type="line"/>
      <point x="58" y="535" type="line"/>
      <point x="67" y="700" type="line"/>
      <point x="67" y="740" type="line"/>
      <point x="25" y="740" type="line"/>
      <point x="25" y="699" type="line"/>
    </contour>
    <contour>
      <point x="139" y="535" type="line"/>
      <point x="158" y="535" type="line"/>
      <point x="168" y="700" type="line"/>
      <point x="168" y="740" type="line"/>
      <point x="126" y="740" type="line"/>
      <point x="126" y="699" type="line"/>
    </contour>
  </outline>
</glyph>
<glyph name="numbersign" format="1">
  <advance width="629"/>
  <unicode hex="0023"/>
  <outline>
    <contour>
      <point x="108" y="0" type="line"/>
      <point x="136" y="0" type="line"/>
      <point x="282" y="740" type="line"/>
      <point x="250" y="740" type="line"/>
    </contour>
    <contour>
      <point x="60" y="253" type="line"/>
      <point x="563" y="253" type="line"/>
      <point x="563" y="275" type="line"/>
      <point x="60" y="275" type="line"/>
    </contour>
    <contour>
      <point x="74" y="436" type="line"/>
      <point x="577" y="436" type="line"/>
      <point x="577" y="458" type="line"/>
      <point x="74" y="458" type="line"/>
    </contour>
    <contour>
      <point x="341" y="0" type="line"/>
      <point x="369" y="0" type="line"/>
      <point x="515" y="740" type="line"/>
      <point x="483" y="740" type="line"/>
    </contour>
  </outline>
</glyph>
<glyph name="dollar" format="1">
  <advance width="432"/>
  <unicode hex="0024"/>
  <outline>
    <component base="s" yOffset="43"/>
    <contour>
      <point x="186" y="-89" type="line"/>
      <point x="213" y="-89" type="line"/>
      <point x="259" y="740" type="line"/>
      <point x="231" y="740" type="line"/>
    </contour>
  </outline>
</glyph>
<glyph name="percent" format="1">
  <advance width="864"/>
  <unicode hex="0025"/>
  <outline>
    <contour>
      <point x="208" y="414" type="curve" smooth="yes"/>
      <point x="149" y="414"/>
      <point x="112" y="470"/>
      <point x="112" y="559" type="curve" smooth="yes"/>
      <point x="112" y="653"/>
      <point x="149" y="712"/>
      <point x="208" y="712" type="curve" smooth="yes"/>
      <point x="267" y="712"/>
      <point x="304" y="653"/>
      <point x="304" y="559" type="curve" smooth="yes"/>
      <point x="304" y="470"/>
      <point x="267" y="414"/>
    </contour>
    <contour>
      <point x="208" y="375" type="curve" smooth="yes"/>
      <point x="294" y="375"/>
      <point x="348" y="446"/>
      <point x="348" y="559" type="curve" smooth="yes"/>
      <point x="348" y="675"/>
      <point x="294" y="748"/>
      <point x="208" y="748" type="curve" smooth="yes"/>
      <point x="122" y="748"/>
      <point x="67" y="675"/>
      <point x="67" y="559" type="curve" smooth="yes"/>
      <point x="67" y="446"/>
      <point x="122" y="375"/>
    </contour>
    <contour>
      <point x="224" y="-20" type="line"/>
      <point x="680" y="736" type="line"/>
      <point x="649" y="751" type="line"/>
      <point x="192" y="-6" type="line"/>
    </contour>
    <contour>
      <point x="664" y="31" type="curve" smooth="yes"/>
      <point x="605" y="31"/>
      <point x="568" y="87"/>
      <point x="568" y="176" type="curve" smooth="yes"/>
      <point x="568" y="270"/>
      <point x="605" y="329"/>
      <point x="664" y="329" type="curve" smooth="yes"/>
      <point x="723" y="329"/>
      <point x="760" y="270"/>
      <point x="760" y="176" type="curve" smooth="yes"/>
      <point x="760" y="87"/>
      <point x="723" y="31"/>
    </contour>
    <contour>
      <point x="664" y="-8" type="curve" smooth="yes"/>
      <point x="750" y="-8"/>
      <point x="805" y="63"/>
      <point x="805" y="176" type="curve" smooth="yes"/>
      <point x="805" y="292"/>
      <point x="750" y="365"/>
      <point x="664" y="365" type="curve" smooth="yes"/>
      <point x="578" y="365"/>
      <point x="523" y="292"/>
      <point x="523" y="176" type="curve" smooth="yes"/>
      <point x="523" y="63"/>
      <point x="578" y="-8"/>
    </contour>
  </outline>
</glyph>
<glyph name="ampersand" format="1">
  <advance width="767"/>
  <unicode hex="0026"/>
  <outline>
    <contour>
      <point x="289" y="423" type="line"/>
      <point x="419" y="467"/>
      <point x="508" y="518"/>
      <point x="511" y="598" type="curve" smooth="yes"/>
      <point x="515" y="723"/>
      <point x="413" y="748"/>
      <point x="308" y="748" type="curve" smooth="yes"/>
      <point x="198" y="748"/>
      <point x="116" y="717"/>
      <point x="116" y="594" type="curve" smooth="yes"/>
      <point x="116" y="525"/>
      <point x="165" y="481"/>
      <point x="226" y="432" type="curve"/>
      <point x="97" y="393"/>
      <point x="57" y="309"/>
      <point x="57" y="206" type="curve" smooth="yes"/>
      <point x="57" y="31"/>
      <point x="206" y="-8"/>
      <point x="331" y="-8" type="curve" smooth="yes"/>
      <point x="502" y="-8"/>
      <point x="585" y="10"/>
      <point x="634" y="117" type="curve"/>
      <point x="748" y="28" type="line"/>
      <point x="764" y="53" type="line"/>
      <point x="644" y="148" type="line"/>
      <point x="669" y="225"/>
      <point x="667" y="297"/>
      <point x="667" y="404" type="curve"/>
      <point x="630" y="403" type="line"/>
      <point x="630" y="290"/>
      <point x="631" y="238"/>
      <point x="614" y="168" type="curve"/>
    </contour>
    <contour>
      <point x="329" y="29" type="curve" smooth="yes"/>
      <point x="258" y="29"/>
      <point x="101" y="46"/>
      <point x="101" y="206" type="curve" smooth="yes"/>
      <point x="101" y="308"/>
      <point x="139" y="375"/>
      <point x="250" y="410" type="curve"/>
      <point x="602" y="135" type="line"/>
      <point x="557" y="37"/>
      <point x="494" y="29"/>
    </contour>
    <contour>
      <point x="263" y="445" type="curve"/>
      <point x="210" y="485"/>
      <point x="155" y="530"/>
      <point x="155" y="597" type="curve" smooth="yes"/>
      <point x="155" y="703"/>
      <point x="232" y="716"/>
      <point x="308" y="716" type="curve" smooth="yes"/>
      <point x="395" y="716"/>
      <point x="478" y="696"/>
      <point x="474" y="600" type="curve" smooth="yes"/>
      <point x="471" y="534"/>
      <point x="391" y="488"/>
    </contour>
  </outline>
</glyph>
<glyph name="quotesingle" format="1">
  <advance width="102"/>
  <unicode hex="0027"/>
  <outline>
    <contour>
      <point x="43" y="535" type="line"/>
      <point x="62" y="535" type="line"/>
      <point x="72" y="700" type="line"/>
      <point x="72" y="740" type="line"/>
      <point x="30" y="740" type="line"/>
      <point x="30" y="699" type="line"/>
    </contour>
  </outline>
</glyph>
<glyph name="parenleft" format="1">
  <advance width="280"/>
  <unicode hex="0028"/>
  <outline>
    <contour>
      <point x="215" y="-67" type="curve"/>
      <point x="235" y="-47" type="line"/>
      <point x="159" y="28"/>
      <point x="121" y="198"/>
      <point x="121" y="366" type="curve" smooth="yes"/>
      <point x="121" y="535"/>
      <point x="159" y="703"/>
      <point x="235" y="778" type="curve"/>
      <point x="215" y="799" type="line"/>
      <point x="122" y="722"/>
      <point x="76" y="544"/>
      <point x="76" y="366" type="curve" smooth="yes"/>
      <point x="76" y="188"/>
      <point x="122" y="11"/>
    </contour>
  </outline>
</glyph>
<glyph name="parenright" format="1">
  <advance width="280"/>
  <unicode hex="0029"/>
  <outline>
    <contour>
      <point x="66" y="-67" type="line"/>
      <point x="159" y="11"/>
      <point x="206" y="188"/>
      <point x="206" y="366" type="curve" smooth="yes"/>
      <point x="206" y="544"/>
      <point x="159" y="722"/>
      <point x="66" y="799" type="curve"/>
      <point x="46" y="778" type="line"/>
      <point x="122" y="703"/>
      <point x="160" y="535"/>
      <point x="160" y="366" type="curve" smooth="yes"/>
      <point x="160" y="198"/>
      <point x="122" y="28"/>
      <point x="46" y="-47" type="curve"/>
    </contour>
  </outline>
</glyph>
<glyph name="asterisk" format="1">
  <advance width="464"/>
  <unicode hex="002A"/>
  <outline>
    <contour>
      <point x="151" y="378" type="line"/>
      <point x="228" y="514" type="line"/>
      <point x="305" y="378" type="line"/>
      <point x="333" y="394" type="line"/>
      <point x="247" y="525" type="line"/>
      <point x="395" y="523" type="line"/>
      <point x="395" y="551" type="line"/>
      <point x="248" y="548" type="line"/>
      <point x="331" y="680" type="line"/>
      <point x="305" y="695" type="line"/>
      <point x="228" y="554" type="line"/>
      <point x="151" y="695" type="line"/>
      <point x="125" y="680" type="line"/>
      <point x="208" y="548" type="line"/>
      <point x="61" y="551" type="line"/>
      <point x="61" y="523" type="line"/>
      <point x="208" y="525" type="line"/>
      <point x="123" y="394" type="line"/>
    </contour>
  </outline>
</glyph>
<glyph name="plus" format="1">
  <advance width="443"/>
  <unicode hex="002B"/>
  <outline>
    <contour>
      <point x="207" y="98" type="line"/>
      <point x="235" y="98" type="line"/>
      <point x="235" y="253" type="line"/>
      <point x="387" y="253" type="line"/>
      <point x="387" y="284" type="line"/>
      <point x="235" y="284" type="line"/>
      <point x="235" y="439" type="line"/>
      <point x="207" y="439" type="line"/>
      <point x="207" y="284" type="line"/>
      <point x="55" y="284" type="line"/>
      <point x="55" y="253" type="line"/>
      <point x="207" y="253" type="line"/>
    </contour>
  </outline>
</glyph>
<glyph name="comma" format="1">
  <advance width="188"/>
  <unicode hex="002C"/>
  <outline>
    <contour>
      <point x="66" y="-107" type="line"/>
      <point x="118" y="-92"/>
      <point x="122" y="-51"/>
      <point x="122" y="-9" type="curve" smooth="yes"/>
      <point x="122" y="100" type="line"/>
      <point x="71" y="100" type="line"/>
      <point x="71" y="14" type="line"/>
      <point x="101" y="14" type="line"/>
      <point x="101" y="-52"/>
      <point x="98" y="-77"/>
      <point x="60" y="-92" type="curve"/>
    </contour>
  </outline>
</glyph>
<glyph name="hyphen" format="1">
  <advance width="372"/>
  <unicode hex="002D"/>
  <outline>
    <contour>
      <point x="188" y="239" type="move" name="_mid"/>
    </contour>
    <contour>
      <point x="46" y="216" type="line"/>
      <point x="327" y="216" type="line"/>
      <point x="327" y="253" type="line"/>
      <point x="46" y="253" type="line"/>
    </contour>
  </outline>
</glyph>
<glyph name="period" format="1">
  <advance width="179"/>
  <unicode hex="002E"/>
  <outline>
    <contour>
      <point x="90" y="-12" type="curve" smooth="yes"/>
      <point x="109" y="-12"/>
      <point x="118" y="4"/>
      <point x="118" y="21" type="curve" smooth="yes"/>
      <point x="118" y="38"/>
      <point x="109" y="54"/>
      <point x="90" y="54" type="curve" smooth="yes"/>
      <point x="72" y="54"/>
      <point x="59" y="38"/>
      <point x="59" y="21" type="curve" smooth="yes"/>
      <point x="59" y="3"/>
      <point x="72" y="-12"/>
    </contour>
  </outline>
</glyph>
<glyph name="slash" format="1">
  <advance width="414"/>
  <unicode hex="002F"/>
  <outline>
    <contour>
      <point x="63" y="-80" type="line"/>
      <point x="381" y="784" type="line"/>
      <point x="350" y="798" type="line"/>
      <point x="33" y="-67" type="line"/>
    </contour>
  </outline>
</glyph>
<glyph name="zero" format="1">
  <advance width="579"/>
  <unicode hex="0030"/>
  <outline>
    <contour>
      <point x="294" y="28" type="curve" smooth="yes"/>
      <point x="173" y="28"/>
      <point x="98" y="122"/>
      <point x="98" y="273" type="curve" smooth="yes"/>
      <point x="98" y="417"/>
      <point x="173" y="508"/>
      <point x="294" y="508" type="curve" smooth="yes"/>
      <point x="409" y="508"/>
      <point x="481" y="417"/>
      <point x="481" y="273" type="curve" smooth="yes"/>
      <point x="481" y="122"/>
      <point x="409" y="28"/>
    </contour>
    <contour>
      <point x="294" y="-8" type="curve" smooth="yes"/>
      <point x="440" y="-8"/>
      <point x="531" y="100"/>
      <point x="531" y="273" type="curve" smooth="yes"/>
      <point x="531" y="439"/>
      <point x="440" y="543"/>
      <point x="294" y="543" type="curve" smooth="yes"/>
      <point x="143" y="543"/>
      <point x="48" y="439"/>
      <point x="48" y="273" type="curve" smooth="yes"/>
      <point x="48" y="100"/>
      <point x="143" y="-8"/>
    </contour>
  </outline>
</glyph>
<glyph name="one" format="1">
  <advance width="579"/>
  <unicode hex="0031"/>
  <outline>
    <contour>
      <point x="326" y="0" type="line"/>
      <point x="370" y="0" type="line"/>
      <point x="370" y="535" type="line"/>
      <point x="319" y="535" type="line"/>
      <point x="191" y="469" type="line"/>
      <point x="205" y="439" type="line"/>
      <point x="326" y="501" type="line"/>
    </contour>
  </outline>
</glyph>
<glyph name="two" format="1">
  <advance width="579"/>
  <unicode hex="0032"/>
  <outline>
    <contour>
      <point x="118" y="0" type="line"/>
      <point x="462" y="0" type="line"/>
      <point x="462" y="32" type="line"/>
      <point x="172" y="32" type="line"/>
      <point x="326" y="174" type="line" smooth="yes"/>
      <point x="386" y="229"/>
      <point x="456" y="296"/>
      <point x="456" y="390" type="curve" smooth="yes"/>
      <point x="456" y="495"/>
      <point x="385" y="543"/>
      <point x="279" y="543" type="curve" smooth="yes"/>
      <point x="204" y="543"/>
      <point x="157" y="516"/>
      <point x="121" y="493" type="curve"/>
      <point x="134" y="459" type="line"/>
      <point x="170" y="482"/>
      <point x="218" y="508"/>
      <point x="279" y="508" type="curve" smooth="yes"/>
      <point x="346" y="508"/>
      <point x="412" y="485"/>
      <point x="412" y="390" type="curve" smooth="yes"/>
      <point x="412" y="308"/>
      <point x="362" y="262"/>
      <point x="300" y="203" type="curve" smooth="yes"/>
      <point x="118" y="31" type="line"/>
    </contour>
  </outline>
</glyph>
<glyph name="three" format="1">
  <advance width="579"/>
  <unicode hex="0033"/>
  <outline>
    <contour>
      <point x="433" y="75" type="curve" smooth="yes"/>
      <point x="433" y="-22"/>
      <point x="371" y="-62"/>
      <point x="283" y="-62" type="curve" smooth="yes"/>
      <point x="234" y="-62"/>
      <point x="179" y="-54"/>
      <point x="130" y="-32" type="curve"/>
      <point x="119" y="-64" type="line"/>
      <point x="172" y="-87"/>
      <point x="230" y="-97"/>
      <point x="283" y="-97" type="curve" smooth="yes"/>
      <point x="388" y="-97"/>
      <point x="475" y="-48"/>
      <point x="475" y="73" type="curve" smooth="yes"/>
      <point x="475" y="176"/>
      <point x="413" y="232"/>
      <point x="310" y="247" type="curve"/>
      <point x="376" y="247"/>
      <point x="453" y="278"/>
      <point x="453" y="390" type="curve" smooth="yes"/>
      <point x="453" y="495"/>
      <point x="383" y="543"/>
      <point x="277" y="543" type="curve" smooth="yes"/>
      <point x="202" y="543"/>
      <point x="154" y="516"/>
      <point x="118" y="493" type="curve"/>
      <point x="131" y="459" type="line"/>
      <point x="167" y="482"/>
      <point x="216" y="508"/>
      <point x="277" y="508" type="curve" smooth="yes"/>
      <point x="344" y="508"/>
      <point x="411" y="485"/>
      <point x="411" y="390" type="curve" smooth="yes"/>
      <point x="411" y="283"/>
      <point x="332" y="266"/>
      <point x="261" y="266" type="curve"/>
      <point x="261" y="229" type="line"/>
      <point x="375" y="211"/>
      <point x="433" y="178"/>
    </contour>
  </outline>
</glyph>
<glyph name="four" format="1">
  <advance width="579"/>
  <unicode hex="0034"/>
  <outline>
    <contour>
      <point x="391" y="-129" type="line"/>
      <point x="435" y="-129" type="line"/>
      <point x="435" y="33" type="line"/>
      <point x="527" y="33" type="line"/>
      <point x="527" y="67" type="line"/>
      <point x="435" y="67" type="line"/>
      <point x="435" y="538" type="line"/>
      <point x="389" y="549" type="line"/>
      <point x="68" y="62" type="line"/>
      <point x="78" y="33" type="line"/>
      <point x="391" y="33" type="line"/>
    </contour>
    <contour>
      <point x="116" y="67" type="line"/>
      <point x="391" y="491" type="line"/>
      <point x="391" y="67" type="line"/>
    </contour>
  </outline>
</glyph>
<glyph name="five" format="1">
  <advance width="579"/>
  <unicode hex="0035"/>
  <outline>
    <contour>
      <point x="292" y="-99" type="curve" smooth="yes"/>
      <point x="412" y="-99"/>
      <point x="501" y="-26"/>
      <point x="501" y="103" type="curve" smooth="yes"/>
      <point x="501" y="225"/>
      <point x="436" y="310"/>
      <point x="306" y="310" type="curve" smooth="yes"/>
      <point x="246" y="310"/>
      <point x="203" y="288"/>
      <point x="179" y="267" type="curve"/>
      <point x="179" y="501" type="line"/>
      <point x="460" y="501" type="line"/>
      <point x="460" y="535" type="line"/>
      <point x="146" y="535" type="line"/>
      <point x="146" y="244" type="line"/>
      <point x="169" y="221" type="line"/>
      <point x="196" y="247"/>
      <point x="238" y="271"/>
      <point x="306" y="271" type="curve" smooth="yes"/>
      <point x="417" y="271"/>
      <point x="457" y="201"/>
      <point x="457" y="103" type="curve" smooth="yes"/>
      <point x="457" y="-3"/>
      <point x="397" y="-64"/>
      <point x="292" y="-64" type="curve" smooth="yes"/>
      <point x="222" y="-64"/>
      <point x="172" y="-41"/>
      <point x="136" y="-11" type="curve"/>
      <point x="123" y="-44" type="line"/>
      <point x="155" y="-69"/>
      <point x="212" y="-99"/>
    </contour>
  </outline>
</glyph>
<glyph name="six" format="1">
  <advance width="579"/>
  <unicode hex="0036"/>
  <outline>
    <contour>
      <point x="317" y="-57" type="curve" smooth="yes"/>
      <point x="429" y="-57"/>
      <point x="514" y="20"/>
      <point x="514" y="168" type="curve" smooth="yes"/>
      <point x="514" y="309"/>
      <point x="420" y="371"/>
      <point x="325" y="371" type="curve" smooth="yes"/>
      <point x="252" y="371"/>
      <point x="178" y="336"/>
      <point x="147" y="271" type="curve"/>
      <point x="158" y="418"/>
      <point x="247" y="542"/>
      <point x="402" y="587" type="curve"/>
      <point x="394" y="621" type="line"/>
      <point x="209" y="575"/>
      <point x="101" y="407"/>
      <point x="101" y="214" type="curve" smooth="yes"/>
      <point x="101" y="61"/>
      <point x="162" y="-57"/>
    </contour>
    <contour>
      <point x="317" y="-21" type="curve" smooth="yes"/>
      <point x="171" y="-21"/>
      <point x="144" y="117"/>
      <point x="144" y="205" type="curve" smooth="yes"/>
      <point x="144" y="216"/>
      <point x="145" y="225"/>
      <point x="145" y="234" type="curve"/>
      <point x="186" y="297"/>
      <point x="257" y="334"/>
      <point x="322" y="334" type="curve" smooth="yes"/>
      <point x="401" y="334"/>
      <point x="471" y="281"/>
      <point x="471" y="158" type="curve" smooth="yes"/>
      <point x="471" y="56"/>
      <point x="408" y="-21"/>
    </contour>
  </outline>
</glyph>
<glyph name="seven" format="1">
  <advance width="579"/>
  <unicode hex="0037"/>
  <outline>
    <contour>
      <point x="225" y="-100" type="line"/>
      <point x="479" y="501" type="line"/>
      <point x="464" y="535" type="line"/>
      <point x="96" y="535" type="line"/>
      <point x="96" y="497" type="line"/>
      <point x="434" y="497" type="line"/>
      <point x="186" y="-85" type="line"/>
    </contour>
  </outline>
</glyph>
<glyph name="eight" format="1">
  <advance width="579"/>
  <unicode hex="0038"/>
  <outline>
    <contour>
      <point x="294" y="-73" type="curve" smooth="yes"/>
      <point x="418" y="-73"/>
      <point x="496" y="-2"/>
      <point x="496" y="110" type="curve" smooth="yes"/>
      <point x="496" y="195"/>
      <point x="446" y="264"/>
      <point x="365" y="285" type="curve"/>
      <point x="439" y="306"/>
      <point x="485" y="368"/>
      <point x="485" y="446" type="curve" smooth="yes"/>
      <point x="485" y="548"/>
      <point x="411" y="612"/>
      <point x="294" y="612" type="curve" smooth="yes"/>
      <point x="171" y="612"/>
      <point x="95" y="548"/>
      <point x="95" y="446" type="curve" smooth="yes"/>
      <point x="95" y="368"/>
      <point x="141" y="307"/>
      <point x="215" y="286" type="curve"/>
      <point x="134" y="265"/>
      <point x="84" y="197"/>
      <point x="84" y="110" type="curve" smooth="yes"/>
      <point x="84" y="-2"/>
      <point x="165" y="-73"/>
    </contour>
    <contour>
      <point x="294" y="-40" type="curve" smooth="yes"/>
      <point x="192" y="-40"/>
      <point x="129" y="18"/>
      <point x="129" y="110" type="curve" smooth="yes"/>
      <point x="129" y="208"/>
      <point x="192" y="270"/>
      <point x="294" y="270" type="curve" smooth="yes"/>
      <point x="390" y="270"/>
      <point x="451" y="208"/>
      <point x="451" y="110" type="curve" smooth="yes"/>
      <point x="451" y="18"/>
      <point x="390" y="-40"/>
    </contour>
    <contour>
      <point x="294" y="304" type="curve" smooth="yes"/>
      <point x="199" y="304"/>
      <point x="138" y="359"/>
      <point x="138" y="446" type="curve" smooth="yes"/>
      <point x="138" y="528"/>
      <point x="199" y="580"/>
      <point x="294" y="580" type="curve" smooth="yes"/>
      <point x="384" y="580"/>
      <point x="441" y="528"/>
      <point x="441" y="446" type="curve" smooth="yes"/>
      <point x="441" y="359"/>
      <point x="384" y="304"/>
    </contour>
  </outline>
</glyph>
<glyph name="nine" format="1">
  <advance width="579"/>
  <unicode hex="0039"/>
  <outline>
    <contour>
      <point x="201" y="-134" type="line"/>
      <point x="386" y="-88"/>
      <point x="495" y="79"/>
      <point x="495" y="272" type="curve" smooth="yes"/>
      <point x="495" y="425"/>
      <point x="433" y="543"/>
      <point x="278" y="543" type="curve" smooth="yes"/>
      <point x="166" y="543"/>
      <point x="81" y="466"/>
      <point x="81" y="318" type="curve" smooth="yes"/>
      <point x="81" y="177"/>
      <point x="176" y="115"/>
      <point x="271" y="115" type="curve" smooth="yes"/>
      <point x="344" y="115"/>
      <point x="417" y="151"/>
      <point x="448" y="216" type="curve"/>
      <point x="437" y="69"/>
      <point x="342" y="-53"/>
      <point x="192" y="-100" type="curve"/>
    </contour>
    <contour>
      <point x="273" y="152" type="curve" smooth="yes"/>
      <point x="194" y="152"/>
      <point x="125" y="206"/>
      <point x="125" y="329" type="curve" smooth="yes"/>
      <point x="125" y="431"/>
      <point x="187" y="507"/>
      <point x="278" y="507" type="curve" smooth="yes"/>
      <point x="424" y="507"/>
      <point x="451" y="370"/>
      <point x="451" y="282" type="curve" smooth="yes"/>
      <point x="451" y="271"/>
      <point x="450" y="261"/>
      <point x="450" y="252" type="curve"/>
      <point x="409" y="189"/>
      <point x="338" y="152"/>
    </contour>
  </outline>
</glyph>
<glyph name="colon" format="1">
  <advance width="183"/>
  <unicode hex="003A"/>
  <outline>
    <contour>
      <point x="84" y="0" type="line"/>
      <point x="118" y="0" type="line"/>
      <point x="118" y="91" type="line"/>
      <point x="84" y="91" type="line"/>
    </contour>
    <contour>
      <point x="84" y="229" type="line"/>
      <point x="118" y="229" type="line"/>
      <point x="118" y="321" type="line"/>
      <point x="84" y="321" type="line"/>
    </contour>
  </outline>
</glyph>
<glyph name="semicolon" format="1">
  <advance width="190"/>
  <unicode hex="003B"/>
  <outline>
    <contour>
      <point x="63" y="-102" type="line"/>
      <point x="102" y="-90"/>
      <point x="123" y="-57"/>
      <point x="123" y="2" type="curve" smooth="yes"/>
      <point x="123" y="104" type="line"/>
      <point x="88" y="104" type="line"/>
      <point x="88" y="0" type="line"/>
      <point x="105" y="0" type="line"/>
      <point x="105" y="-48"/>
      <point x="92" y="-79"/>
      <point x="59" y="-90" type="curve"/>
    </contour>
    <contour>
      <point x="89" y="229" type="line"/>
      <point x="123" y="229" type="line"/>
      <point x="123" y="321" type="line"/>
      <point x="89" y="321" type="line"/>
    </contour>
  </outline>
</glyph>
<glyph name="less" format="1">
  <advance width="610"/>
  <unicode hex="003C"/>
  <outline>
    <contour>
      <point x="498" y="90" type="line"/>
      <point x="516" y="115" type="line"/>
      <point x="164" y="344" type="line"/>
      <point x="516" y="572" type="line"/>
      <point x="498" y="598" type="line"/>
      <point x="96" y="344" type="line"/>
    </contour>
  </outline>
</glyph>
<glyph name="equal" format="1">
  <advance width="351"/>
  <unicode hex="003D"/>
  <outline>
    <contour>
      <point x="39" y="169" type="line"/>
      <point x="312" y="169" type="line"/>
      <point x="312" y="200" type="line"/>
      <point x="39" y="200" type="line"/>
    </contour>
    <contour>
      <point x="39" y="304" type="line"/>
      <point x="312" y="304" type="line"/>
      <point x="312" y="333" type="line"/>
      <point x="39" y="333" type="line"/>
    </contour>
  </outline>
</glyph>
<glyph name="greater" format="1">
  <advance width="663"/>
  <unicode hex="003E"/>
  <outline>
    <contour>
      <point x="137" y="90" type="line"/>
      <point x="539" y="344" type="line"/>
      <point x="137" y="598" type="line"/>
      <point x="119" y="572" type="line"/>
      <point x="471" y="344" type="line"/>
      <point x="119" y="115" type="line"/>
    </contour>
  </outline>
</glyph>
<glyph name="question" format="1">
  <advance width="497"/>
  <unicode hex="003F"/>
  <outline>
    <contour>
      <point x="152" y="147" type="line"/>
      <point x="187" y="147" type="line"/>
      <point x="187" y="314" type="line"/>
      <point x="291" y="356"/>
      <point x="443" y="412"/>
      <point x="443" y="566" type="curve" smooth="yes"/>
      <point x="443" y="688"/>
      <point x="343" y="735"/>
      <point x="234" y="735" type="curve" smooth="yes"/>
      <point x="169" y="735"/>
      <point x="99" y="715"/>
      <point x="49" y="688" type="curve"/>
      <point x="66" y="655" type="line"/>
      <point x="112" y="679"/>
      <point x="175" y="696"/>
      <point x="234" y="696" type="curve" smooth="yes"/>
      <point x="360" y="696"/>
      <point x="399" y="629"/>
      <point x="399" y="560" type="curve" smooth="yes"/>
      <point x="399" y="425"/>
      <point x="266" y="385"/>
      <point x="152" y="333" type="curve"/>
    </contour>
    <contour>
      <point x="171" y="-8" type="curve" smooth="yes"/>
      <point x="189" y="-8"/>
      <point x="200" y="3"/>
      <point x="200" y="21" type="curve" smooth="yes"/>
      <point x="200" y="37"/>
      <point x="189" y="47"/>
      <point x="171" y="47" type="curve" smooth="yes"/>
      <point x="152" y="47"/>
      <point x="141" y="37"/>
      <point x="141" y="21" type="curve" smooth="yes"/>
      <point x="141" y="3"/>
      <point x="152" y="-8"/>
    </contour>
  </outline>
</glyph>
<glyph name="at" format="1">
  <advance width="872"/>
  <unicode hex="0040"/>
  <outline>
    <contour>
      <point x="447" y="-39" type="curve" smooth="yes"/>
      <point x="517" y="-39"/>
      <point x="595" y="-26"/>
      <point x="652" y="-5" type="curve"/>
      <point x="640" y="32" type="line"/>
      <point x="586" y="11"/>
      <point x="511" y="-2"/>
      <point x="447" y="-2" type="curve" smooth="yes"/>
      <point x="236" y="-2"/>
      <point x="101" y="124"/>
      <point x="101" y="318" type="curve" smooth="yes"/>
      <point x="101" y="567"/>
      <point x="253" y="711"/>
      <point x="480" y="711" type="curve" smooth="yes"/>
      <point x="681" y="711"/>
      <point x="798" y="589"/>
      <point x="798" y="397" type="curve" smooth="yes"/>
      <point x="798" y="258"/>
      <point x="753" y="172"/>
      <point x="679" y="172" type="curve" smooth="yes"/>
      <point x="654" y="172"/>
      <point x="638" y="190"/>
      <point x="638" y="217" type="curve" smooth="yes"/>
      <point x="638" y="220"/>
      <point x="663" y="497"/>
      <point x="663" y="505" type="curve" smooth="yes"/>
      <point x="663" y="545"/>
      <point x="607" y="572"/>
      <point x="522" y="572" type="curve" smooth="yes"/>
      <point x="358" y="572"/>
      <point x="250" y="461"/>
      <point x="250" y="289" type="curve" smooth="yes"/>
      <point x="250" y="206"/>
      <point x="305" y="135"/>
      <point x="402" y="135" type="curve" smooth="yes"/>
      <point x="496" y="135"/>
      <point x="589" y="208"/>
      <point x="618" y="333" type="curve"/>
      <point x="622" y="333" type="line"/>
      <point x="620" y="317"/>
      <point x="608" y="240"/>
      <point x="608" y="208" type="curve" smooth="yes"/>
      <point x="608" y="168"/>
      <point x="638" y="148"/>
      <point x="676" y="148" type="curve" smooth="yes"/>
      <point x="778" y="148"/>
      <point x="835" y="241"/>
      <point x="835" y="399" type="curve" smooth="yes"/>
      <point x="835" y="613"/>
      <point x="703" y="748"/>
      <point x="480" y="748" type="curve" smooth="yes"/>
      <point x="223" y="748"/>
      <point x="57" y="589"/>
      <point x="57" y="327" type="curve" smooth="yes"/>
      <point x="57" y="106"/>
      <point x="211" y="-39"/>
    </contour>
    <contour>
      <point x="406" y="170" type="curve" smooth="yes"/>
      <point x="334" y="170"/>
      <point x="291" y="214"/>
      <point x="291" y="289" type="curve" smooth="yes"/>
      <point x="291" y="446"/>
      <point x="385" y="541"/>
      <point x="522" y="542" type="curve" smooth="yes"/>
      <point x="580" y="542"/>
      <point x="616" y="529"/>
      <point x="629" y="519" type="curve"/>
      <point x="615" y="304"/>
      <point x="534" y="170"/>
    </contour>
  </outline>
</glyph>
<glyph name="A" format="1">
  <advance width="652"/>
  <unicode hex="0041"/>
  <outline>
    <contour>
      <point x="323" y="727" type="move" name="top"/>
    </contour>
    <contour>
      <point x="590" y="0" type="move" name="ogonek"/>
    </contour>
    <contour>
      <point x="39" y="0" type="line"/>
      <point x="83" y="0" type="line"/>
      <point x="148" y="183" type="line"/>
      <point x="505" y="183" type="line"/>
      <point x="570" y="0" type="line"/>
      <point x="614" y="0" type="line"/>
      <point x="357" y="725" type="line"/>
      <point x="292" y="725" type="line"/>
    </contour>
    <contour>
      <point x="160" y="220" type="line"/>
      <point x="325" y="693" type="line"/>
      <point x="491" y="220" type="line"/>
    </contour>
  </outline>
</glyph>
<glyph name="B" format="1">
  <advance width="625"/>
  <unicode hex="0042"/>
  <outline>
    <contour>
      <point x="311" y="731" type="move" name="top"/>
    </contour>
    <contour>
      <point x="82" y="0" type="line"/>
      <point x="263" y="0" type="line" smooth="yes"/>
      <point x="433" y="0"/>
      <point x="569" y="26"/>
      <point x="569" y="201" type="curve" smooth="yes"/>
      <point x="569" y="322"/>
      <point x="513" y="374"/>
      <point x="396" y="390" type="curve"/>
      <point x="484" y="408"/>
      <point x="533" y="451"/>
      <point x="533" y="556" type="curve" smooth="yes"/>
      <point x="533" y="721"/>
      <point x="381" y="725"/>
      <point x="246" y="725" type="curve" smooth="yes"/>
      <point x="82" y="725" type="line"/>
    </contour>
    <contour>
      <point x="127" y="42" type="line"/>
      <point x="127" y="372" type="line"/>
      <point x="279" y="372" type="line" smooth="yes"/>
      <point x="401" y="372"/>
      <point x="530" y="354"/>
      <point x="530" y="207" type="curve" smooth="yes"/>
      <point x="530" y="42"/>
      <point x="391" y="42"/>
      <point x="257" y="42" type="curve" smooth="yes"/>
    </contour>
    <contour>
      <point x="127" y="410" type="line"/>
      <point x="127" y="691" type="line"/>
      <point x="267" y="691" type="line" smooth="yes"/>
      <point x="384" y="691"/>
      <point x="493" y="679"/>
      <point x="493" y="562" type="curve" smooth="yes"/>
      <point x="493" y="425"/>
      <point x="390" y="410"/>
      <point x="279" y="410" type="curve" smooth="yes"/>
    </contour>
  </outline>
</glyph>
<glyph name="C" format="1">
  <advance width="589"/>
  <unicode hex="0043"/>
  <outline>
    <contour>
      <point x="354" y="727" type="move" name="top"/>
    </contour>
    <contour>
      <point x="338" y="-2" type="move" name="bot"/>
    </contour>
    <contour>
      <point x="358" y="-10" type="curve" smooth="yes"/>
      <point x="431" y="-10"/>
      <point x="511" y="21"/>
      <point x="555" y="53" type="curve"/>
      <point x="537" y="83" type="line"/>
      <point x="495" y="57"/>
      <point x="438" y="28"/>
      <point x="356" y="28" type="curve" smooth="yes"/>
      <point x="136" y="28"/>
      <point x="105" y="204"/>
      <point x="105" y="352" type="curve" smooth="yes"/>
      <point x="105" y="495"/>
      <point x="140" y="696"/>
      <point x="361" y="696" type="curve" smooth="yes"/>
      <point x="446" y="696"/>
      <point x="504" y="659"/>
      <point x="518" y="649" type="curve"/>
      <point x="535" y="681" type="line"/>
      <point x="515" y="696"/>
      <point x="447" y="735"/>
      <point x="361" y="735" type="curve" smooth="yes"/>
      <point x="129" y="735"/>
      <point x="59" y="548"/>
      <point x="59" y="353" type="curve" smooth="yes"/>
      <point x="59" y="173"/>
      <point x="114" y="-10"/>
    </contour>
  </outline>
</glyph>
<glyph name="D" format="1">
  <advance width="674"/>
  <unicode hex="0044"/>
  <outline>
    <contour>
      <point x="315" y="727" type="move" name="top"/>
    </contour>
    <contour>
      <point x="116" y="392" type="move" name="mid"/>
    </contour>
    <contour>
      <point x="127" y="39" type="line"/>
      <point x="127" y="687" type="line"/>
      <point x="352" y="687" type="line" smooth="yes"/>
      <point x="527" y="687"/>
      <point x="571" y="517"/>
      <point x="571" y="362" type="curve" smooth="yes"/>
      <point x="571" y="206"/>
      <point x="533" y="39"/>
      <point x="352" y="39" type="curve" smooth="yes"/>
    </contour>
    <contour>
      <point x="82" y="0" type="line"/>
      <point x="342" y="0" type="line" smooth="yes"/>
      <point x="562" y="0"/>
      <point x="617" y="176"/>
      <point x="617" y="362" type="curve" smooth="yes"/>
      <point x="617" y="547"/>
      <point x="561" y="725"/>
      <point x="342" y="725" type="curve" smooth="yes"/>
      <point x="82" y="725" type="line"/>
    </contour>
  </outline>
</glyph>
<glyph name="E" format="1">
  <advance width="547"/>
  <unicode hex="0045"/>
  <outline>
    <contour>
      <point x="302" y="727" type="move" name="top"/>
    </contour>
    <contour>
      <point x="377" y="0" type="move" name="ogonek"/>
    </contour>
    <contour>
      <point x="291" y="0" type="move" name="bot"/>
    </contour>
    <contour>
      <point x="82" y="0" type="line"/>
      <point x="495" y="0" type="line"/>
      <point x="495" y="39" type="line"/>
      <point x="127" y="39" type="line"/>
      <point x="127" y="364" type="line"/>
      <point x="444" y="364" type="line"/>
      <point x="444" y="402" type="line"/>
      <point x="127" y="402" type="line"/>
      <point x="127" y="687" type="line"/>
      <point x="502" y="687" type="line"/>
      <point x="502" y="725" type="line"/>
      <point x="82" y="725" type="line"/>
    </contour>
  </outline>
</glyph>
<glyph name="F" format="1">
  <advance width="501"/>
  <unicode hex="0046"/>
  <outline>
    <contour>
      <point x="283" y="727" type="move" name="top"/>
    </contour>
    <contour>
      <point x="82" y="0" type="line"/>
      <point x="127" y="0" type="line"/>
      <point x="127" y="374" type="line"/>
      <point x="453" y="374" type="line"/>
      <point x="453" y="410" type="line"/>
      <point x="127" y="410" type="line"/>
      <point x="127" y="691" type="line"/>
      <point x="467" y="691" type="line"/>
      <point x="467" y="725" type="line"/>
      <point x="82" y="725" type="line"/>
    </contour>
  </outline>
</glyph>
<glyph name="G" format="1">
  <advance width="663"/>
  <unicode hex="0047"/>
  <outline>
    <contour>
      <point x="364" y="-2" type="move" name="bot"/>
    </contour>
    <contour>
      <point x="357" y="-10" type="curve" smooth="yes"/>
      <point x="469" y="-10"/>
      <point x="528" y="33"/>
      <point x="558" y="78" type="curve"/>
      <point x="569" y="-2" type="line"/>
      <point x="593" y="-2" type="line"/>
      <point x="593" y="366" type="line"/>
      <point x="357" y="366" type="line"/>
      <point x="357" y="332" type="line"/>
      <point x="551" y="332" type="line"/>
      <point x="551" y="167" type="line" smooth="yes"/>
      <point x="551" y="81"/>
      <point x="474" y="28"/>
      <point x="357" y="28" type="curve" smooth="yes"/>
      <point x="140" y="28"/>
      <point x="105" y="202"/>
      <point x="105" y="366" type="curve" smooth="yes"/>
      <point x="105" y="500"/>
      <point x="146" y="696"/>
      <point x="356" y="696" type="curve" smooth="yes"/>
      <point x="451" y="696"/>
      <point x="525" y="661"/>
      <point x="550" y="643" type="curve"/>
      <point x="566" y="675" type="line"/>
      <point x="544" y="693"/>
      <point x="461" y="735"/>
      <point x="357" y="735" type="curve" smooth="yes"/>
      <point x="131" y="735"/>
      <point x="59" y="548"/>
      <point x="59" y="366" type="curve" smooth="yes"/>
      <point x="59" y="161"/>
      <point x="124" y="-10"/>
    </contour>
  </outline>
</glyph>
<glyph name="H" format="1">
  <advance width="687"/>
  <unicode hex="0048"/>
  <outline>
    <contour>
      <point x="352" y="727" type="move" name="top"/>
    </contour>
    <contour>
      <point x="82" y="0" type="line"/>
      <point x="127" y="0" type="line"/>
      <point x="127" y="359" type="line"/>
      <point x="561" y="359" type="line"/>
      <point x="561" y="0" type="line"/>
      <point x="605" y="0" type="line"/>
      <point x="605" y="725" type="line"/>
      <point x="561" y="725" type="line"/>
      <point x="561" y="395" type="line"/>
      <point x="127" y="395" type="line"/>
      <point x="127" y="725" type="line"/>
      <point x="82" y="725" type="line"/>
    </contour>
  </outline>
</glyph>
<glyph name="I" format="1">
  <advance width="342"/>
  <unicode hex="0049"/>
  <outline>
    <contour>
      <point x="175" y="727" type="move" name="top"/>
    </contour>
    <contour>
      <point x="178" y="0" type="move" name="ogonek"/>
    </contour>
    <contour>
      <point x="50" y="0" type="line"/>
      <point x="292" y="0" type="line"/>
      <point x="292" y="27" type="line"/>
      <point x="195" y="27" type="line"/>
      <point x="195" y="698" type="line"/>
      <point x="292" y="698" type="line"/>
      <point x="292" y="725" type="line"/>
      <point x="50" y="725" type="line"/>
      <point x="50" y="698" type="line"/>
      <point x="151" y="698" type="line"/>
      <point x="151" y="27" type="line"/>
      <point x="50" y="27" type="line"/>
    </contour>
  </outline>
</glyph>
<glyph name="J" format="1">
  <advance width="306"/>
  <unicode hex="004A"/>
  <outline>
    <contour>
      <point x="204" y="725" type="move" name="top"/>
    </contour>
    <contour>
      <point x="41" y="-122" type="line"/>
      <point x="206" y="-104"/>
      <point x="226" y="-43"/>
      <point x="226" y="100" type="curve" smooth="yes"/>
      <point x="225" y="725" type="line"/>
      <point x="180" y="725" type="line"/>
      <point x="180" y="101" type="line" smooth="yes"/>
      <point x="180" y="-33"/>
      <point x="175" y="-67"/>
      <point x="33" y="-85" type="curve"/>
    </contour>
  </outline>
</glyph>
<glyph name="K" format="1">
  <advance width="580"/>
  <unicode hex="004B"/>
  <outline>
    <contour>
      <point x="284" y="727" type="move" name="top"/>
    </contour>
    <contour>
      <point x="295" y="0" type="move" name="bot"/>
    </contour>
    <contour>
      <point x="82" y="0" type="line"/>
      <point x="127" y="0" type="line"/>
      <point x="127" y="354" type="line"/>
      <point x="154" y="354" type="line"/>
      <point x="509" y="0" type="line"/>
      <point x="564" y="0" type="line"/>
      <point x="194" y="373" type="line"/>
      <point x="539" y="725" type="line"/>
      <point x="487" y="725" type="line"/>
      <point x="151" y="385" type="line"/>
      <point x="127" y="385" type="line"/>
      <point x="127" y="725" type="line"/>
      <point x="82" y="725" type="line"/>
    </contour>
  </outline>
</glyph>
<glyph name="L" format="1">
  <advance width="526"/>
  <unicode hex="004C"/>
  <outline>
    <contour>
      <point x="295" y="0" type="move" name="bot"/>
    </contour>
    <contour>
      <point x="108" y="725" type="move" name="top"/>
    </contour>
    <contour>
      <point x="105" y="397" type="move" name="mid"/>
    </contour>
    <contour>
      <point x="182" y="535" type="move" name="caron.alt"/>
    </contour>
    <contour>
      <point x="82" y="0" type="line"/>
      <point x="499" y="0" type="line"/>
      <point x="499" y="35" type="line"/>
      <point x="127" y="35" type="line"/>
      <point x="127" y="725" type="line"/>
      <point x="82" y="725" type="line"/>
    </contour>
  </outline>
</glyph>
<glyph name="M" format="1">
  <advance width="809"/>
  <unicode hex="004D"/>
  <outline>
    <contour>
      <point x="397" y="727" type="move" name="top"/>
    </contour>
    <contour>
      <point x="82" y="0" type="line"/>
      <point x="127" y="0" type="line"/>
      <point x="127" y="665" type="line"/>
      <point x="393" y="68" type="line"/>
      <point x="425" y="68" type="line"/>
      <point x="683" y="667" type="line"/>
      <point x="683" y="0" type="line"/>
      <point x="728" y="0" type="line"/>
      <point x="728" y="725" type="line"/>
      <point x="664" y="725" type="line"/>
      <point x="408" y="132" type="line"/>
      <point x="144" y="725" type="line"/>
      <point x="82" y="725" type="line"/>
    </contour>
  </outline>
</glyph>
<glyph name="N" format="1">
  <advance width="716"/>
  <unicode hex="004E"/>
  <outline>
    <contour>
      <point x="384" y="727" type="move" name="top"/>
    </contour>
    <contour>
      <point x="382" y="0" type="move" name="bot"/>
    </contour>
    <contour>
      <point x="82" y="0" type="line"/>
      <point x="124" y="0" type="line"/>
      <point x="124" y="686" type="line"/>
      <point x="569" y="0" type="line"/>
      <point x="635" y="0" type="line"/>
      <point x="635" y="725" type="line"/>
      <point x="593" y="725" type="line"/>
      <point x="593" y="38" type="line"/>
      <point x="145" y="725" type="line"/>
      <point x="82" y="725" type="line"/>
    </contour>
  </outline>
</glyph>
<glyph name="O" format="1">
  <advance width="685"/>
  <unicode hex="004F"/>
  <outline>
    <contour>
      <point x="344" y="717" type="move" name="top"/>
    </contour>
    <contour>
      <point x="383" y="-2" type="move" name="ogonek"/>
    </contour>
    <contour>
      <point x="343" y="28" type="curve" smooth="yes"/>
      <point x="148" y="28"/>
      <point x="105" y="210"/>
      <point x="105" y="363" type="curve" smooth="yes"/>
      <point x="105" y="517"/>
      <point x="148" y="687"/>
      <point x="343" y="687" type="curve" smooth="yes"/>
      <point x="538" y="687"/>
      <point x="580" y="517"/>
      <point x="580" y="363" type="curve" smooth="yes"/>
      <point x="580" y="210"/>
      <point x="538" y="28"/>
    </contour>
    <contour>
      <point x="343" y="-10" type="curve" smooth="yes"/>
      <point x="563" y="-10"/>
      <point x="627" y="182"/>
      <point x="627" y="363" type="curve" smooth="yes"/>
      <point x="627" y="545"/>
      <point x="563" y="725"/>
      <point x="343" y="725" type="curve" smooth="yes"/>
      <point x="122" y="725"/>
      <point x="59" y="545"/>
      <point x="59" y="363" type="curve" smooth="yes"/>
      <point x="59" y="182"/>
      <point x="122" y="-10"/>
    </contour>
  </outline>
</glyph>
<glyph name="P" format="1">
  <advance width="597"/>
  <unicode hex="0050"/>
  <outline>
    <contour>
      <point x="306" y="727" type="move" name="top"/>
    </contour>
    <contour>
      <point x="82" y="0" type="line"/>
      <point x="127" y="0" type="line"/>
      <point x="127" y="348" type="line"/>
      <point x="313" y="348" type="line" smooth="yes"/>
      <point x="454" y="348"/>
      <point x="568" y="376"/>
      <point x="568" y="543" type="curve" smooth="yes"/>
      <point x="568" y="715"/>
      <point x="426" y="725"/>
      <point x="319" y="725" type="curve" smooth="yes"/>
      <point x="82" y="725" type="line"/>
    </contour>
    <contour>
      <point x="127" y="387" type="line"/>
      <point x="127" y="687" type="line"/>
      <point x="319" y="687" type="line" smooth="yes"/>
      <point x="434" y="687"/>
      <point x="521" y="669"/>
      <point x="521" y="543" type="curve" smooth="yes"/>
      <point x="521" y="403"/>
      <point x="442" y="387"/>
      <point x="313" y="387" type="curve" smooth="yes"/>
    </contour>
  </outline>
</glyph>
<glyph name="Q" format="1">
  <advance width="685"/>
  <unicode hex="0051"/>
  <outline>
    <contour>
      <point x="344" y="717" type="move" name="top"/>
    </contour>
    <contour>
      <point x="383" y="0" type="move" name="ogonek"/>
    </contour>
    <contour>
      <point x="502" y="-194" type="line"/>
      <point x="531" y="-170" type="line"/>
      <point x="395" y="-4" type="line"/>
      <point x="574" y="25"/>
      <point x="627" y="192"/>
      <point x="627" y="358" type="curve" smooth="yes"/>
      <point x="627" y="540"/>
      <point x="563" y="725"/>
      <point x="343" y="725" type="curve" smooth="yes"/>
      <point x="122" y="725"/>
      <point x="59" y="540"/>
      <point x="59" y="358" type="curve" smooth="yes"/>
      <point x="59" y="177"/>
      <point x="122" y="-8"/>
      <point x="343" y="-8" type="curve"/>
    </contour>
    <contour>
      <point x="343" y="30" type="curve" smooth="yes"/>
      <point x="148" y="30"/>
      <point x="105" y="205"/>
      <point x="105" y="358" type="curve" smooth="yes"/>
      <point x="105" y="512"/>
      <point x="148" y="687"/>
      <point x="343" y="687" type="curve" smooth="yes"/>
      <point x="538" y="687"/>
      <point x="580" y="512"/>
      <point x="580" y="358" type="curve" smooth="yes"/>
      <point x="580" y="205"/>
      <point x="538" y="30"/>
    </contour>
  </outline>
</glyph>
<glyph name="R" format="1">
  <advance width="657"/>
  <unicode hex="0052"/>
  <outline>
    <contour>
      <point x="333" y="727" type="move" name="top"/>
    </contour>
    <contour>
      <point x="291" y="0" type="move" name="bot"/>
    </contour>
    <contour>
      <point x="82" y="0" type="line"/>
      <point x="127" y="0" type="line"/>
      <point x="127" y="347" type="line"/>
      <point x="330" y="347" type="line" smooth="yes"/>
      <point x="483" y="347"/>
      <point x="495" y="298"/>
      <point x="510" y="215" type="curve" smooth="yes"/>
      <point x="548" y="0" type="line"/>
      <point x="590" y="0" type="line"/>
      <point x="553" y="213" type="line" smooth="yes"/>
      <point x="539" y="295"/>
      <point x="530" y="341"/>
      <point x="450" y="361" type="curve"/>
      <point x="526" y="382"/>
      <point x="577" y="429"/>
      <point x="577" y="542" type="curve" smooth="yes"/>
      <point x="577" y="714"/>
      <point x="438" y="725"/>
      <point x="331" y="725" type="curve" smooth="yes"/>
      <point x="82" y="725" type="line"/>
    </contour>
    <contour>
      <point x="127" y="385" type="line"/>
      <point x="127" y="687" type="line"/>
      <point x="332" y="687" type="line" smooth="yes"/>
      <point x="447" y="687"/>
      <point x="530" y="668"/>
      <point x="530" y="542" type="curve" smooth="yes"/>
      <point x="530" y="402"/>
      <point x="455" y="385"/>
      <point x="326" y="385" type="curve" smooth="yes"/>
    </contour>
  </outline>
</glyph>
<glyph name="S" format="1">
  <advance width="556"/>
  <unicode hex="0053"/>
  <outline>
    <contour>
      <point x="275" y="724" type="move" name="top"/>
    </contour>
    <contour>
      <point x="253" y="-5" type="move" name="bot"/>
    </contour>
    <contour>
      <point x="468" y="192" type="curve" smooth="yes"/>
      <point x="468" y="60"/>
      <point x="383" y="28"/>
      <point x="267" y="28" type="curve" smooth="yes"/>
      <point x="180" y="28"/>
      <point x="106" y="59"/>
      <point x="65" y="87" type="curve"/>
      <point x="45" y="54" type="line"/>
      <point x="87" y="27"/>
      <point x="167" y="-10"/>
      <point x="267" y="-10" type="curve" smooth="yes"/>
      <point x="398" y="-10"/>
      <point x="509" y="31"/>
      <point x="509" y="191" type="curve" smooth="yes"/>
      <point x="509" y="337"/>
      <point x="427" y="360"/>
      <point x="310" y="391" type="curve"/>
      <point x="237" y="410" type="line" smooth="yes"/>
      <point x="130" y="438"/>
      <point x="94" y="472"/>
      <point x="94" y="557" type="curve" smooth="yes"/>
      <point x="94" y="671"/>
      <point x="179" y="697"/>
      <point x="272" y="697" type="curve" smooth="yes"/>
      <point x="360" y="697"/>
      <point x="424" y="669"/>
      <point x="456" y="639" type="curve"/>
      <point x="476" y="672" type="line"/>
      <point x="428" y="711"/>
      <point x="359" y="735"/>
      <point x="272" y="735" type="curve" smooth="yes"/>
      <point x="149" y="735"/>
      <point x="50" y="694"/>
      <point x="50" y="557" type="curve" smooth="yes"/>
      <point x="50" y="447"/>
      <point x="110" y="399"/>
      <point x="226" y="370" type="curve" smooth="yes"/>
      <point x="298" y="352" type="line" smooth="yes"/>
      <point x="413" y="324"/>
      <point x="468" y="300"/>
    </contour>
  </outline>
</glyph>
<glyph name="T" format="1">
  <advance width="513"/>
  <unicode hex="0054"/>
  <outline>
    <contour>
      <point x="258" y="727" type="move" name="top"/>
    </contour>
    <contour>
      <point x="257" y="0" type="move" name="bot"/>
    </contour>
    <contour>
      <point x="262" y="412" type="move" name="mid"/>
    </contour>
    <contour>
      <point x="235" y="0" type="line"/>
      <point x="279" y="0" type="line"/>
      <point x="279" y="690" type="line"/>
      <point x="501" y="690" type="line"/>
      <point x="501" y="725" type="line"/>
      <point x="13" y="725" type="line"/>
      <point x="13" y="690" type="line"/>
      <point x="235" y="690" type="line"/>
    </contour>
  </outline>
</glyph>
<glyph name="U" format="1">
  <advance width="676"/>
  <unicode hex="0055"/>
  <outline>
    <contour>
      <point x="343" y="729" type="move" name="top"/>
    </contour>
    <contour>
      <point x="377" y="-2" type="move" name="ogonek"/>
    </contour>
    <contour>
      <point x="338" y="-10" type="curve" smooth="yes"/>
      <point x="542" y="-10"/>
      <point x="608" y="71"/>
      <point x="608" y="326" type="curve" smooth="yes"/>
      <point x="608" y="725" type="line"/>
      <point x="563" y="725" type="line"/>
      <point x="563" y="325" type="line" smooth="yes"/>
      <point x="563" y="101"/>
      <point x="508" y="28"/>
      <point x="338" y="28" type="curve" smooth="yes"/>
      <point x="168" y="28"/>
      <point x="113" y="101"/>
      <point x="113" y="325" type="curve" smooth="yes"/>
      <point x="113" y="725" type="line"/>
      <point x="68" y="725" type="line"/>
      <point x="68" y="326" type="line" smooth="yes"/>
      <point x="68" y="71"/>
      <point x="134" y="-10"/>
    </contour>
  </outline>
</glyph>
<glyph name="V" format="1">
  <advance width="643"/>
  <unicode hex="0056"/>
  <outline>
    <contour>
      <point x="287" y="0" type="line"/>
      <point x="349" y="0" type="line"/>
      <point x="618" y="725" type="line"/>
      <point x="574" y="725" type="line"/>
      <point x="316" y="37" type="line"/>
      <point x="69" y="725" type="line"/>
      <point x="25" y="725" type="line"/>
    </contour>
  </outline>
</glyph>
<glyph name="W" format="1">
  <advance width="956"/>
  <unicode hex="0057"/>
  <outline>
    <contour>
      <point x="479" y="727" type="move" name="top"/>
    </contour>
    <contour>
      <point x="229" y="0" type="line"/>
      <point x="288" y="0" type="line"/>
      <point x="479" y="626" type="line"/>
      <point x="669" y="0" type="line"/>
      <point x="727" y="0" type="line"/>
      <point x="917" y="725" type="line"/>
      <point x="873" y="725" type="line"/>
      <point x="697" y="40" type="line"/>
      <point x="503" y="676" type="line"/>
      <point x="453" y="676" type="line"/>
      <point x="259" y="40" type="line"/>
      <point x="83" y="725" type="line"/>
      <point x="39" y="725" type="line"/>
    </contour>
  </outline>
</glyph>
<glyph name="X" format="1">
  <advance width="595"/>
  <unicode hex="0058"/>
  <outline>
    <contour>
      <point x="38" y="0" type="line"/>
      <point x="83" y="0" type="line"/>
      <point x="298" y="330" type="line"/>
      <point x="504" y="0" type="line"/>
      <point x="551" y="0" type="line"/>
      <point x="323" y="364" type="line"/>
      <point x="551" y="725" type="line"/>
      <point x="511" y="725" type="line"/>
      <point x="301" y="400" type="line"/>
      <point x="94" y="725" type="line"/>
      <point x="48" y="725" type="line"/>
      <point x="276" y="365" type="line"/>
    </contour>
  </outline>
</glyph>
<glyph name="Y" format="1">
  <advance width="576"/>
  <unicode hex="0059"/>
  <outline>
    <contour>
      <point x="292" y="727" type="move" name="top"/>
    </contour>
    <contour>
      <point x="265" y="0" type="line"/>
      <point x="310" y="0" type="line"/>
      <point x="310" y="323" type="line"/>
      <point x="549" y="725" type="line"/>
      <point x="503" y="725" type="line"/>
      <point x="289" y="368" type="line"/>
      <point x="76" y="725" type="line"/>
      <point x="28" y="725" type="line"/>
      <point x="265" y="323" type="line"/>
    </contour>
  </outline>
</glyph>
<glyph name="Z" format="1">
  <advance width="541"/>
  <unicode hex="005A"/>
  <outline>
    <contour>
      <point x="292" y="727" type="move" name="top"/>
    </contour>
    <contour>
      <point x="65" y="0" type="line"/>
      <point x="502" y="0" type="line"/>
      <point x="502" y="37" type="line"/>
      <point x="115" y="37" type="line"/>
      <point x="501" y="690" type="line"/>
      <point x="501" y="725" type="line"/>
      <point x="65" y="725" type="line"/>
      <point x="65" y="688" type="line"/>
      <point x="453" y="688" type="line"/>
      <point x="65" y="36" type="line"/>
    </contour>
  </outline>
</glyph>
<glyph name="bracketleft" format="1">
  <advance width="382"/>
  <unicode hex="005B"/>
  <outline>
    <contour>
      <point x="73" y="-87" type="line"/>
      <point x="355" y="-87" type="line"/>
      <point x="355" y="-51" type="line"/>
      <point x="118" y="-51" type="line"/>
      <point x="118" y="740" type="line"/>
      <point x="355" y="740" type="line"/>
      <point x="355" y="776" type="line"/>
      <point x="73" y="776" type="line"/>
    </contour>
  </outline>
</glyph>
<glyph name="backslash" format="1">
  <advance width="210"/>
  <unicode hex="005C"/>
  <outline>
    <contour>
      <point x="232" y="-84" type="line"/>
      <point x="266" y="-71" type="line"/>
      <point x="-32" y="801" type="line"/>
      <point x="-64" y="791" type="line"/>
    </contour>
  </outline>
</glyph>
<glyph name="bracketright" format="1">
  <advance width="377"/>
  <unicode hex="005D"/>
  <outline>
    <contour>
      <point x="23" y="-87" type="line"/>
      <point x="305" y="-87" type="line"/>
      <point x="305" y="776" type="line"/>
      <point x="23" y="776" type="line"/>
      <point x="23" y="740" type="line"/>
      <point x="260" y="740" type="line"/>
      <point x="260" y="-51" type="line"/>
      <point x="23" y="-51" type="line"/>
    </contour>
  </outline>
</glyph>
<glyph name="asciicircum" format="1">
  <advance width="503"/>
  <unicode hex="005E"/>
  <outline>
    <contour>
      <point x="21" y="274" type="line"/>
      <point x="62" y="274" type="line"/>
      <point x="252" y="674" type="line"/>
      <point x="442" y="274" type="line"/>
      <point x="483" y="274" type="line"/>
      <point x="263" y="740" type="line"/>
      <point x="240" y="740" type="line"/>
    </contour>
  </outline>
</glyph>
<glyph name="underscore" format="1">
  <advance width="555"/>
  <unicode hex="005F"/>
  <outline>
    <contour>
      <point x="70" y="-54" type="line"/>
      <point x="485" y="-54" type="line"/>
      <point x="485" y="-17" type="line"/>
      <point x="70" y="-17" type="line"/>
    </contour>
  </outline>
</glyph>
<glyph name="grave" format="1">
  <advance width="199"/>
  <unicode hex="0060"/>
  <outline>
    <contour>
      <point x="152" y="535" type="move" name="_top"/>
    </contour>
    <contour>
      <point x="187" y="614" type="line"/>
      <point x="196" y="629" type="line"/>
      <point x="19" y="746" type="line"/>
      <point x="0" y="712" type="line"/>
    </contour>
  </outline>
</glyph>
<glyph name="a" format="1">
  <advance width="551"/>
  <unicode hex="0061"/>
  <outline>
    <contour>
      <point x="269" y="537" type="move" name="top"/>
    </contour>
    <contour>
      <point x="455" y="0" type="move" name="ogonek"/>
    </contour>
    <contour>
      <point x="54" y="155" type="curve" smooth="yes"/>
      <point x="54" y="39"/>
      <point x="136" y="-10"/>
      <point x="233" y="-10" type="curve" smooth="yes"/>
      <point x="316" y="-10"/>
      <point x="377" y="24"/>
      <point x="429" y="86" type="curve"/>
      <point x="438" y="0" type="line"/>
      <point x="469" y="0" type="line"/>
      <point x="469" y="334" type="line" smooth="yes"/>
      <point x="469" y="501"/>
      <point x="373" y="545"/>
      <point x="274" y="545" type="curve" smooth="yes"/>
      <point x="198" y="545"/>
      <point x="120" y="517"/>
      <point x="82" y="495" type="curve"/>
      <point x="96" y="461" type="line"/>
      <point x="128" y="478"/>
      <point x="203" y="509"/>
      <point x="273" y="509" type="curve" smooth="yes"/>
      <point x="353" y="509"/>
      <point x="425" y="472"/>
      <point x="425" y="333" type="curve" smooth="yes"/>
      <point x="425" y="293" type="line"/>
      <point x="383" y="309"/>
      <point x="312" y="314"/>
      <point x="264" y="314" type="curve" smooth="yes"/>
      <point x="123" y="314"/>
      <point x="54" y="261"/>
    </contour>
    <contour>
      <point x="238" y="26" type="curve" smooth="yes"/>
      <point x="174" y="26"/>
      <point x="99" y="55"/>
      <point x="99" y="156" type="curve" smooth="yes"/>
      <point x="99" y="252"/>
      <point x="172" y="280"/>
      <point x="268" y="280" type="curve" smooth="yes"/>
      <point x="322" y="280"/>
      <point x="372" y="278"/>
      <point x="425" y="263" type="curve"/>
      <point x="425" y="116" type="line"/>
      <point x="372" y="57"/>
      <point x="321" y="26"/>
    </contour>
  </outline>
</glyph>
<glyph name="b" format="1">
  <advance width="583"/>
  <unicode hex="0062"/>
  <outline>
    <contour>
      <point x="308" y="537" type="move" name="top"/>
    </contour>
    <contour>
      <point x="296" y="-10" type="curve" smooth="yes"/>
      <point x="461" y="-10"/>
      <point x="523" y="135"/>
      <point x="523" y="266" type="curve" smooth="yes"/>
      <point x="523" y="409"/>
      <point x="455" y="545"/>
      <point x="298" y="545" type="curve" smooth="yes"/>
      <point x="231" y="545"/>
      <point x="170" y="513"/>
      <point x="131" y="459" type="curve"/>
      <point x="131" y="758" type="line"/>
      <point x="87" y="748" type="line"/>
      <point x="87" y="0" type="line"/>
      <point x="125" y="0" type="line"/>
      <point x="130" y="70" type="line"/>
      <point x="169" y="18"/>
      <point x="226" y="-10"/>
    </contour>
    <contour>
      <point x="292" y="26" type="curve" smooth="yes"/>
      <point x="226" y="26"/>
      <point x="170" y="54"/>
      <point x="131" y="109" type="curve"/>
      <point x="132" y="415" type="line"/>
      <point x="174" y="478"/>
      <point x="230" y="509"/>
      <point x="299" y="509" type="curve" smooth="yes"/>
      <point x="445" y="509"/>
      <point x="480" y="363"/>
      <point x="480" y="266" type="curve" smooth="yes"/>
      <point x="480" y="157"/>
      <point x="438" y="26"/>
    </contour>
  </outline>
</glyph>
<glyph name="c" format="1">
  <advance width="509"/>
  <unicode hex="0063"/>
  <outline>
    <contour>
      <point x="295" y="537" type="move" name="top"/>
    </contour>
    <contour>
      <point x="293" y="0" type="move" name="bot"/>
    </contour>
    <contour>
      <point x="295" y="545" type="curve" smooth="yes"/>
      <point x="141" y="545"/>
      <point x="61" y="410"/>
      <point x="61" y="267" type="curve" smooth="yes"/>
      <point x="61" y="128"/>
      <point x="139" y="-10"/>
      <point x="295" y="-10" type="curve" smooth="yes"/>
      <point x="360" y="-10"/>
      <point x="421" y="18"/>
      <point x="463" y="57" type="curve"/>
      <point x="446" y="86" type="line"/>
      <point x="411" y="54"/>
      <point x="365" y="26"/>
      <point x="298" y="26" type="curve" smooth="yes"/>
      <point x="173" y="26"/>
      <point x="104" y="140"/>
      <point x="104" y="267" type="curve" smooth="yes"/>
      <point x="104" y="388"/>
      <point x="164" y="509"/>
      <point x="297" y="509" type="curve" smooth="yes"/>
      <point x="355" y="509"/>
      <point x="408" y="487"/>
      <point x="444" y="453" type="curve"/>
      <point x="464" y="479" type="line"/>
      <point x="419" y="525"/>
      <point x="352" y="545"/>
    </contour>
  </outline>
</glyph>
<glyph name="e" format="1">
  <advance width="542"/>
  <unicode hex="0065"/>
  <outline>
    <contour>
      <point x="293" y="537" type="move" name="top"/>
    </contour>
    <contour>
      <point x="345" y="-2" type="move" name="ogonek"/>
    </contour>
    <contour>
      <point x="299" y="-2" type="move" name="bot"/>
    </contour>
    <contour>
      <point x="301" y="-10" type="curve" smooth="yes"/>
      <point x="354" y="-10"/>
      <point x="433" y="12"/>
      <point x="477" y="53" type="curve"/>
      <point x="460" y="83" type="line"/>
      <point x="421" y="50"/>
      <point x="363" y="26"/>
      <point x="303" y="26" type="curve" smooth="yes"/>
      <point x="157" y="26"/>
      <point x="97" y="137"/>
      <point x="97" y="272" type="curve"/>
      <point x="487" y="272" type="line"/>
      <point x="487" y="272"/>
      <point x="492" y="291"/>
      <point x="492" y="317" type="curve" smooth="yes"/>
      <point x="492" y="436"/>
      <point x="430" y="545"/>
      <point x="294" y="545" type="curve" smooth="yes"/>
      <point x="135" y="545"/>
      <point x="54" y="421"/>
      <point x="54" y="273" type="curve" smooth="yes"/>
      <point x="54" y="113"/>
      <point x="136" y="-10"/>
    </contour>
    <contour>
      <point x="98" y="306" type="line"/>
      <point x="106" y="412"/>
      <point x="161" y="509"/>
      <point x="295" y="509" type="curve" smooth="yes"/>
      <point x="403" y="509"/>
      <point x="450" y="416"/>
      <point x="450" y="327" type="curve" smooth="yes"/>
      <point x="450" y="306" type="line"/>
    </contour>
  </outline>
</glyph>
<glyph name="f" format="1">
  <advance width="338"/>
  <unicode hex="0066"/>
  <outline>
    <contour>
      <point x="138" y="740" type="move" name="top"/>
    </contour>
    <contour>
      <point x="245" y="737" type="curve" smooth="yes"/>
      <point x="153" y="737"/>
      <point x="119" y="690"/>
      <point x="119" y="559" type="curve" smooth="yes"/>
      <point x="119" y="536" type="line"/>
      <point x="28" y="536" type="line"/>
      <point x="28" y="505" type="line"/>
      <point x="119" y="505" type="line"/>
      <point x="119" y="0" type="line"/>
      <point x="163" y="0" type="line"/>
      <point x="163" y="505" type="line"/>
      <point x="314" y="505" type="line"/>
      <point x="314" y="536" type="line"/>
      <point x="163" y="536" type="line"/>
      <point x="163" y="559" type="line" smooth="yes"/>
      <point x="163" y="657"/>
      <point x="174" y="703"/>
      <point x="246" y="703" type="curve" smooth="yes"/>
      <point x="274" y="703"/>
      <point x="304" y="696"/>
      <point x="324" y="688" type="curve"/>
      <point x="333" y="719" type="line"/>
      <point x="315" y="727"/>
      <point x="281" y="737"/>
    </contour>
  </outline>
</glyph>
<glyph name="g" format="1">
  <advance width="550"/>
  <unicode hex="0067"/>
  <outline>
    <contour>
      <point x="277" y="537" type="move" name="top"/>
    </contour>
    <contour>
      <point x="257" y="-164" type="curve" smooth="yes"/>
      <point x="412" y="-164"/>
      <point x="505" y="-124"/>
      <point x="505" y="-20" type="curve" smooth="yes"/>
      <point x="505" y="93"/>
      <point x="439" y="114"/>
      <point x="342" y="114" type="curve" smooth="yes"/>
      <point x="156" y="114" type="line"/>
      <point x="156" y="114"/>
      <point x="133" y="121"/>
      <point x="133" y="167" type="curve" smooth="yes"/>
      <point x="133" y="194"/>
      <point x="156" y="236"/>
      <point x="160" y="245" type="curve"/>
      <point x="170" y="239"/>
      <point x="206" y="218"/>
      <point x="270" y="218" type="curve" smooth="yes"/>
      <point x="379" y="218"/>
      <point x="458" y="282"/>
      <point x="458" y="378" type="curve" smooth="yes"/>
      <point x="458" y="424"/>
      <point x="440" y="467"/>
      <point x="417" y="485" type="curve"/>
      <point x="523" y="500" type="line"/>
      <point x="521" y="536" type="line"/>
      <point x="478" y="536"/>
      <point x="435" y="524"/>
      <point x="402" y="506" type="curve"/>
      <point x="370" y="531"/>
      <point x="322" y="545"/>
      <point x="280" y="545" type="curve" smooth="yes"/>
      <point x="142" y="545"/>
      <point x="81" y="471"/>
      <point x="81" y="379" type="curve" smooth="yes"/>
      <point x="81" y="297"/>
      <point x="139" y="259"/>
      <point x="145" y="254" type="curve"/>
      <point x="107" y="221"/>
      <point x="93" y="191"/>
      <point x="93" y="161" type="curve" smooth="yes"/>
      <point x="93" y="119"/>
      <point x="106" y="89"/>
      <point x="149" y="84" type="curve"/>
      <point x="107" y="67"/>
      <point x="83" y="26"/>
      <point x="83" y="-34" type="curve" smooth="yes"/>
      <point x="83" y="-148"/>
      <point x="165" y="-164"/>
    </contour>
    <contour>
      <point x="255" y="-129" type="curve" smooth="yes"/>
      <point x="167" y="-129"/>
      <point x="123" y="-105"/>
      <point x="123" y="-32" type="curve" smooth="yes"/>
      <point x="123" y="38"/>
      <point x="161" y="73"/>
      <point x="192" y="81" type="curve"/>
      <point x="341" y="81" type="line" smooth="yes"/>
      <point x="414" y="81"/>
      <point x="465" y="75"/>
      <point x="465" y="-22" type="curve" smooth="yes"/>
      <point x="465" y="-102"/>
      <point x="396" y="-129"/>
    </contour>
    <contour>
      <point x="269" y="250" type="curve" smooth="yes"/>
      <point x="168" y="250"/>
      <point x="122" y="303"/>
      <point x="122" y="382" type="curve" smooth="yes"/>
      <point x="122" y="451"/>
      <point x="164" y="513"/>
      <point x="282" y="513" type="curve" smooth="yes"/>
      <point x="378" y="513"/>
      <point x="418" y="454"/>
      <point x="418" y="376" type="curve" smooth="yes"/>
      <point x="418" y="314"/>
      <point x="383" y="250"/>
    </contour>
  </outline>
</glyph>
<glyph name="h" format="1">
  <advance width="596"/>
  <unicode hex="0068"/>
  <outline>
    <contour>
      <point x="340" y="537" type="move" name="top"/>
    </contour>
    <contour>
      <point x="87" y="0" type="line"/>
      <point x="130" y="0" type="line"/>
      <point x="130" y="413" type="line"/>
      <point x="190" y="473"/>
      <point x="262" y="509"/>
      <point x="333" y="509" type="curve" smooth="yes"/>
      <point x="453" y="509"/>
      <point x="472" y="429"/>
      <point x="472" y="330" type="curve" smooth="yes"/>
      <point x="472" y="0" type="line"/>
      <point x="516" y="0" type="line"/>
      <point x="516" y="334" type="line" smooth="yes"/>
      <point x="516" y="439"/>
      <point x="491" y="545"/>
      <point x="340" y="545" type="curve" smooth="yes"/>
      <point x="259" y="545"/>
      <point x="192" y="513"/>
      <point x="130" y="453" type="curve"/>
      <point x="130" y="758" type="line"/>
      <point x="87" y="747" type="line"/>
    </contour>
  </outline>
</glyph>
<glyph name="i" format="1">
  <advance width="238"/>
  <unicode hex="0069"/>
  <outline>
    <contour>
      <point x="111" y="0" type="move" name="ogonek"/>
    </contour>
    <contour>
      <point x="98" y="0" type="line"/>
      <point x="142" y="0" type="line"/>
      <point x="142" y="536" type="line"/>
      <point x="98" y="536" type="line"/>
    </contour>
    <contour>
      <point x="121" y="617" type="curve" smooth="yes"/>
      <point x="142" y="617"/>
      <point x="152" y="633"/>
      <point x="152" y="650" type="curve" smooth="yes"/>
      <point x="152" y="666"/>
      <point x="142" y="682"/>
      <point x="121" y="682" type="curve" smooth="yes"/>
      <point x="100" y="682"/>
      <point x="88" y="666"/>
      <point x="88" y="650" type="curve" smooth="yes"/>
      <point x="88" y="633"/>
      <point x="100" y="617"/>
    </contour>
  </outline>
</glyph>
<glyph name="j" format="1">
  <advance width="222"/>
  <unicode hex="006A"/>
  <outline>
    <contour>
      <point x="6" y="-179" type="line"/>
      <point x="127" y="-143"/>
      <point x="144" y="-112"/>
      <point x="144" y="46" type="curve" smooth="yes"/>
      <point x="144" y="536" type="line"/>
      <point x="100" y="536" type="line"/>
      <point x="100" y="46" type="line" smooth="yes"/>
      <point x="100" y="-94"/>
      <point x="97" y="-111"/>
      <point x="-5" y="-143" type="curve"/>
    </contour>
    <contour>
      <point x="123" y="617" type="curve" smooth="yes"/>
      <point x="144" y="617"/>
      <point x="154" y="633"/>
      <point x="154" y="650" type="curve" smooth="yes"/>
      <point x="154" y="666"/>
      <point x="144" y="682"/>
      <point x="123" y="682" type="curve" smooth="yes"/>
      <point x="102" y="682"/>
      <point x="90" y="666"/>
      <point x="90" y="650" type="curve" smooth="yes"/>
      <point x="90" y="633"/>
      <point x="102" y="617"/>
    </contour>
  </outline>
</glyph>
<glyph name="k" format="1">
  <advance width="491"/>
  <unicode hex="006B"/>
  <outline>
    <contour>
      <point x="275" y="535" type="move" name="top"/>
    </contour>
    <contour>
      <point x="283" y="0" type="move" name="bot"/>
    </contour>
    <contour>
      <point x="87" y="0" type="line"/>
      <point x="130" y="0" type="line"/>
      <point x="130" y="249" type="line"/>
      <point x="167" y="280" type="line"/>
      <point x="434" y="0" type="line"/>
      <point x="488" y="0" type="line"/>
      <point x="203" y="299" type="line"/>
      <point x="454" y="536" type="line"/>
      <point x="401" y="536" type="line"/>
      <point x="130" y="284" type="line"/>
      <point x="130" y="758" type="line"/>
      <point x="87" y="747" type="line"/>
    </contour>
  </outline>
</glyph>
<glyph name="l" format="1">
  <advance width="211"/>
  <unicode hex="006C"/>
  <outline>
    <contour>
      <point x="109" y="740" type="move" name="top"/>
    </contour>
    <contour>
      <point x="146" y="535" type="move" name="caron.alt"/>
    </contour>
    <contour>
      <point x="35" y="371" type="move" name="mid"/>
    </contour>
    <contour>
      <point x="87" y="0" type="line"/>
      <point x="130" y="0" type="line"/>
      <point x="130" y="758" type="line"/>
      <point x="87" y="747" type="line"/>
    </contour>
  </outline>
</glyph>
<glyph name="m" format="1">
  <advance width="945"/>
  <unicode hex="006D"/>
  <outline>
    <contour>
      <point x="500" y="535" type="move" name="top"/>
    </contour>
    <contour>
      <point x="87" y="0" type="line"/>
      <point x="130" y="0" type="line"/>
      <point x="130" y="411" type="line"/>
      <point x="190" y="477"/>
      <point x="255" y="509"/>
      <point x="326" y="509" type="curve" smooth="yes"/>
      <point x="448" y="509"/>
      <point x="453" y="426"/>
      <point x="453" y="327" type="curve" smooth="yes"/>
      <point x="453" y="0" type="line"/>
      <point x="497" y="0" type="line"/>
      <point x="497" y="331" type="line" smooth="yes"/>
      <point x="497" y="356"/>
      <point x="496" y="382"/>
      <point x="493" y="406" type="curve"/>
      <point x="558" y="484"/>
      <point x="623" y="509"/>
      <point x="693" y="509" type="curve" smooth="yes"/>
      <point x="815" y="509"/>
      <point x="821" y="426"/>
      <point x="821" y="327" type="curve" smooth="yes"/>
      <point x="821" y="0" type="line"/>
      <point x="865" y="0" type="line"/>
      <point x="865" y="331" type="line" smooth="yes"/>
      <point x="865" y="436"/>
      <point x="848" y="545"/>
      <point x="697" y="545" type="curve" smooth="yes"/>
      <point x="616" y="545"/>
      <point x="545" y="517"/>
      <point x="485" y="442" type="curve"/>
      <point x="467" y="501"/>
      <point x="425" y="545"/>
      <point x="329" y="545" type="curve" smooth="yes"/>
      <point x="247" y="545"/>
      <point x="184" y="515"/>
      <point x="127" y="447" type="curve"/>
      <point x="119" y="536" type="line"/>
      <point x="87" y="536" type="line"/>
    </contour>
  </outline>
</glyph>
<glyph name="n" format="1">
  <advance width="597"/>
  <unicode hex="006E"/>
  <outline>
    <contour>
      <point x="327" y="537" type="move" name="top"/>
    </contour>
    <contour>
      <point x="306" y="-1" type="move" name="bot"/>
    </contour>
    <contour>
      <point x="87" y="0" type="line"/>
      <point x="130" y="0" type="line"/>
      <point x="130" y="412" type="line"/>
      <point x="190" y="472"/>
      <point x="262" y="509"/>
      <point x="333" y="509" type="curve" smooth="yes"/>
      <point x="453" y="509"/>
      <point x="473" y="429"/>
      <point x="473" y="330" type="curve" smooth="yes"/>
      <point x="473" y="0" type="line"/>
      <point x="516" y="0" type="line"/>
      <point x="516" y="334" type="line" smooth="yes"/>
      <point x="516" y="439"/>
      <point x="491" y="545"/>
      <point x="340" y="545" type="curve" smooth="yes"/>
      <point x="257" y="545"/>
      <point x="190" y="511"/>
      <point x="127" y="449" type="curve"/>
      <point x="119" y="536" type="line"/>
      <point x="87" y="536" type="line"/>
    </contour>
  </outline>
</glyph>
<glyph name="o" format="1">
  <advance width="583"/>
  <unicode hex="006F"/>
  <outline>
    <contour>
      <point x="292" y="537" type="move" name="top"/>
    </contour>
    <contour>
      <point x="321" y="0" type="move" name="ogonek"/>
    </contour>
    <contour>
      <point x="292" y="26" type="curve" smooth="yes"/>
      <point x="153" y="26"/>
      <point x="102" y="144"/>
      <point x="102" y="266" type="curve" smooth="yes"/>
      <point x="102" y="368"/>
      <point x="142" y="509"/>
      <point x="292" y="509" type="curve" smooth="yes"/>
      <point x="444" y="509"/>
      <point x="482" y="368"/>
      <point x="482" y="266" type="curve" smooth="yes"/>
      <point x="482" y="144"/>
      <point x="433" y="26"/>
    </contour>
    <contour>
      <point x="292" y="-10" type="curve" smooth="yes"/>
      <point x="454" y="-10"/>
      <point x="525" y="122"/>
      <point x="525" y="266" type="curve" smooth="yes"/>
      <point x="525" y="408"/>
      <point x="455" y="545"/>
      <point x="292" y="545" type="curve" smooth="yes"/>
      <point x="129" y="545"/>
      <point x="60" y="408"/>
      <point x="60" y="266" type="curve" smooth="yes"/>
      <point x="60" y="122"/>
      <point x="130" y="-10"/>
    </contour>
  </outline>
</glyph>
<glyph name="p" format="1">
  <advance width="572"/>
  <unicode hex="0070"/>
  <outline>
    <contour>
      <point x="302" y="537" type="move" name="top"/>
    </contour>
    <contour>
      <point x="82" y="-241" type="line"/>
      <point x="126" y="-231" type="line"/>
      <point x="126" y="69" type="line"/>
      <point x="165" y="17"/>
      <point x="222" y="-10"/>
      <point x="292" y="-10" type="curve" smooth="yes"/>
      <point x="457" y="-10"/>
      <point x="519" y="135"/>
      <point x="519" y="266" type="curve" smooth="yes"/>
      <point x="519" y="409"/>
      <point x="455" y="545"/>
      <point x="298" y="545" type="curve" smooth="yes"/>
      <point x="229" y="545"/>
      <point x="164" y="516"/>
      <point x="124" y="460" type="curve"/>
      <point x="120" y="536" type="line"/>
      <point x="82" y="536" type="line"/>
    </contour>
    <contour>
      <point x="289" y="26" type="curve" smooth="yes"/>
      <point x="222" y="26"/>
      <point x="164" y="56"/>
      <point x="126" y="113" type="curve"/>
      <point x="126" y="418" type="line"/>
      <point x="170" y="482"/>
      <point x="228" y="509"/>
      <point x="298" y="509" type="curve" smooth="yes"/>
      <point x="444" y="509"/>
      <point x="476" y="363"/>
      <point x="476" y="266" type="curve" smooth="yes"/>
      <point x="476" y="157"/>
      <point x="435" y="26"/>
    </contour>
  </outline>
</glyph>
<glyph name="q" format="1">
  <advance width="557"/>
  <unicode hex="0071"/>
  <outline>
    <contour>
      <point x="491" y="-241" type="line"/>
      <point x="491" y="536" type="line"/>
      <point x="453" y="536" type="line"/>
      <point x="449" y="460" type="line"/>
      <point x="409" y="516"/>
      <point x="344" y="545"/>
      <point x="275" y="545" type="curve" smooth="yes"/>
      <point x="118" y="545"/>
      <point x="54" y="409"/>
      <point x="54" y="266" type="curve" smooth="yes"/>
      <point x="54" y="135"/>
      <point x="116" y="-10"/>
      <point x="281" y="-10" type="curve" smooth="yes"/>
      <point x="351" y="-10"/>
      <point x="408" y="17"/>
      <point x="447" y="69" type="curve"/>
      <point x="447" y="-231" type="line"/>
    </contour>
    <contour>
      <point x="284" y="26" type="curve" smooth="yes"/>
      <point x="138" y="26"/>
      <point x="97" y="157"/>
      <point x="97" y="266" type="curve" smooth="yes"/>
      <point x="97" y="363"/>
      <point x="128" y="509"/>
      <point x="274" y="509" type="curve" smooth="yes"/>
      <point x="344" y="509"/>
      <point x="403" y="482"/>
      <point x="447" y="418" type="curve"/>
      <point x="447" y="113" type="line"/>
      <point x="409" y="56"/>
      <point x="351" y="26"/>
    </contour>
  </outline>
</glyph>
<glyph name="r" format="1">
  <advance width="328"/>
  <unicode hex="0072"/>
  <outline>
    <contour>
      <point x="186" y="535" type="move" name="top"/>
    </contour>
    <contour>
      <point x="147" y="0" type="move" name="bot"/>
    </contour>
    <contour>
      <point x="70" y="0" type="line"/>
      <point x="114" y="0" type="line"/>
      <point x="113" y="424" type="line"/>
      <point x="172" y="486"/>
      <point x="250" y="500"/>
      <point x="301" y="500" type="curve"/>
      <point x="301" y="542" type="line"/>
      <point x="239" y="542"/>
      <point x="163" y="515"/>
      <point x="110" y="452" type="curve"/>
      <point x="103" y="536" type="line"/>
      <point x="70" y="536" type="line"/>
    </contour>
  </outline>
</glyph>
<glyph name="s" format="1">
  <advance width="450"/>
  <unicode hex="0073"/>
  <outline>
    <contour>
      <point x="239" y="537" type="move" name="top"/>
    </contour>
    <contour>
      <point x="237" y="-2" type="move" name="bot"/>
    </contour>
    <contour>
      <point x="362" y="145" type="curve" smooth="yes"/>
      <point x="362" y="52"/>
      <point x="295" y="26"/>
      <point x="229" y="26" type="curve" smooth="yes"/>
      <point x="174" y="26"/>
      <point x="119" y="47"/>
      <point x="79" y="80" type="curve"/>
      <point x="61" y="48" type="line"/>
      <point x="91" y="17"/>
      <point x="161" y="-10"/>
      <point x="226" y="-10" type="curve" smooth="yes"/>
      <point x="327" y="-10"/>
      <point x="405" y="34"/>
      <point x="405" y="147" type="curve" smooth="yes"/>
      <point x="405" y="244"/>
      <point x="342" y="269"/>
      <point x="281" y="290" type="curve" smooth="yes"/>
      <point x="210" y="312" type="line" smooth="yes"/>
      <point x="144" y="334"/>
      <point x="99" y="344"/>
      <point x="99" y="406" type="curve" smooth="yes"/>
      <point x="99" y="484"/>
      <point x="163" y="509"/>
      <point x="218" y="509" type="curve" smooth="yes"/>
      <point x="276" y="509"/>
      <point x="325" y="493"/>
      <point x="363" y="464" type="curve"/>
      <point x="381" y="494" type="line"/>
      <point x="343" y="526"/>
      <point x="279" y="545"/>
      <point x="215" y="545" type="curve" smooth="yes"/>
      <point x="144" y="545"/>
      <point x="57" y="511"/>
      <point x="57" y="405" type="curve" smooth="yes"/>
      <point x="57" y="316"/>
      <point x="132" y="295"/>
      <point x="199" y="274" type="curve" smooth="yes"/>
      <point x="263" y="254" type="line" smooth="yes"/>
      <point x="326" y="234"/>
      <point x="362" y="216"/>
    </contour>
  </outline>
</glyph>
<glyph name="t" format="1">
  <advance width="350"/>
  <unicode hex="0074"/>
  <outline>
    <contour>
      <point x="221" y="0" type="move" name="bot"/>
    </contour>
    <contour>
      <point x="136" y="672" type="move" name="top"/>
    </contour>
    <contour>
      <point x="154" y="312" type="move" name="mid"/>
    </contour>
    <contour>
      <point x="132" y="720" type="move" name="caron.alt"/>
    </contour>
    <contour>
      <point x="240" y="-5" type="curve" smooth="yes"/>
      <point x="267" y="-5"/>
      <point x="296" y="-1"/>
      <point x="326" y="8" type="curve"/>
      <point x="319" y="41" type="line"/>
      <point x="295" y="34"/>
      <point x="268" y="29"/>
      <point x="245" y="29" type="curve" smooth="yes"/>
      <point x="196" y="29"/>
      <point x="156" y="48"/>
      <point x="156" y="104" type="curve" smooth="yes"/>
      <point x="156" y="504" type="line"/>
      <point x="312" y="504" type="line"/>
      <point x="312" y="536" type="line"/>
      <point x="156" y="536" type="line"/>
      <point x="156" y="713" type="line"/>
      <point x="118" y="705" type="line"/>
      <point x="113" y="536" type="line"/>
      <point x="26" y="536" type="line"/>
      <point x="26" y="504" type="line"/>
      <point x="112" y="504" type="line"/>
      <point x="112" y="104" type="line" smooth="yes"/>
      <point x="112" y="27"/>
      <point x="169" y="-5"/>
    </contour>
  </outline>
</glyph>
<glyph name="u" format="1">
  <advance width="596"/>
  <unicode hex="0075"/>
  <outline>
    <contour>
      <point x="302" y="536" type="move" name="top"/>
    </contour>
    <contour>
      <point x="496" y="0" type="move" name="ogonek"/>
    </contour>
    <contour>
      <point x="263" y="-10" type="curve" smooth="yes"/>
      <point x="346" y="-10"/>
      <point x="420" y="24"/>
      <point x="469" y="91" type="curve"/>
      <point x="478" y="0" type="line"/>
      <point x="510" y="0" type="line"/>
      <point x="510" y="536" type="line"/>
      <point x="465" y="536" type="line"/>
      <point x="465" y="130" type="line"/>
      <point x="410" y="57"/>
      <point x="348" y="26"/>
      <point x="263" y="26" type="curve" smooth="yes"/>
      <point x="143" y="26"/>
      <point x="126" y="106"/>
      <point x="126" y="205" type="curve" smooth="yes"/>
      <point x="126" y="536" type="line"/>
      <point x="81" y="536" type="line"/>
      <point x="81" y="201" type="line" smooth="yes"/>
      <point x="81" y="96"/>
      <point x="109" y="-10"/>
    </contour>
  </outline>
</glyph>
<glyph name="v" format="1">
  <advance width="491"/>
  <unicode hex="0076"/>
  <outline>
    <contour>
      <point x="227" y="0" type="line"/>
      <point x="263" y="0" type="line"/>
      <point x="464" y="536" type="line"/>
      <point x="420" y="536" type="line"/>
      <point x="246" y="55" type="line"/>
      <point x="70" y="536" type="line"/>
      <point x="27" y="536" type="line"/>
    </contour>
  </outline>
</glyph>
<glyph name="w" format="1">
  <advance width="742"/>
  <unicode hex="0077"/>
  <outline>
    <contour>
      <point x="375" y="536" type="move" name="top"/>
    </contour>
    <contour>
      <point x="522" y="0" type="line"/>
      <point x="572" y="0" type="line"/>
      <point x="721" y="536" type="line"/>
      <point x="680" y="536" type="line"/>
      <point x="547" y="40" type="line"/>
      <point x="396" y="536" type="line"/>
      <point x="349" y="536" type="line"/>
      <point x="200" y="40" type="line"/>
      <point x="62" y="536" type="line"/>
      <point x="21" y="536" type="line"/>
      <point x="173" y="0" type="line"/>
      <point x="225" y="0" type="line"/>
      <point x="374" y="490" type="line"/>
    </contour>
  </outline>
</glyph>
<glyph name="x" format="1">
  <advance width="487"/>
  <unicode hex="0078"/>
  <outline>
    <contour>
      <point x="37" y="0" type="line"/>
      <point x="83" y="0" type="line"/>
      <point x="241" y="242" type="line"/>
      <point x="405" y="0" type="line"/>
      <point x="452" y="0" type="line"/>
      <point x="263" y="269" type="line"/>
      <point x="441" y="536" type="line"/>
      <point x="398" y="536" type="line"/>
      <point x="241" y="300" type="line"/>
      <point x="81" y="536" type="line"/>
      <point x="39" y="536" type="line"/>
      <point x="218" y="271" type="line"/>
    </contour>
  </outline>
</glyph>
<glyph name="y" format="1">
  <advance width="499"/>
  <unicode hex="0079"/>
  <outline>
    <contour>
      <point x="257" y="536" type="move" name="top"/>
    </contour>
    <contour>
      <point x="82" y="-186" type="line"/>
      <point x="212" y="-186"/>
      <point x="227" y="-105"/>
      <point x="260" y="-18" type="curve" smooth="yes"/>
      <point x="470" y="536" type="line"/>
      <point x="425" y="536" type="line"/>
      <point x="250" y="62" type="line"/>
      <point x="71" y="536" type="line"/>
      <point x="24" y="536" type="line"/>
      <point x="229" y="12" type="line"/>
      <point x="190" y="-103"/>
      <point x="181" y="-151"/>
      <point x="73" y="-155" type="curve"/>
    </contour>
  </outline>
</glyph>
<glyph name="z" format="1">
  <advance width="422"/>
  <unicode hex="007A"/>
  <outline>
    <contour>
      <point x="220" y="536" type="move" name="top"/>
    </contour>
    <contour>
      <point x="46" y="0" type="line"/>
      <point x="390" y="0" type="line"/>
      <point x="390" y="37" type="line"/>
      <point x="93" y="37" type="line"/>
      <point x="389" y="499" type="line"/>
      <point x="390" y="536" type="line"/>
      <point x="61" y="536" type="line"/>
      <point x="61" y="502" type="line"/>
      <point x="346" y="502" type="line"/>
      <point x="46" y="40" type="line"/>
    </contour>
  </outline>
</glyph>
<glyph name="braceleft" format="1">
  <advance width="369"/>
  <unicode hex="007B"/>
  <outline>
    <contour>
      <point x="312" y="-54" type="curve"/>
      <point x="312" y="-27" type="line"/>
      <point x="203" y="-23"/>
      <point x="203" y="25"/>
      <point x="202" y="144" type="curve" smooth="yes"/>
      <point x="200" y="335"/>
      <point x="163" y="340"/>
      <point x="110" y="348" type="curve"/>
      <point x="163" y="354"/>
      <point x="200" y="360"/>
      <point x="202" y="551" type="curve" smooth="yes"/>
      <point x="203" y="671"/>
      <point x="204" y="717"/>
      <point x="312" y="721" type="curve"/>
      <point x="312" y="748" type="line"/>
      <point x="189" y="745"/>
      <point x="160" y="710"/>
      <point x="160" y="551" type="curve" smooth="yes"/>
      <point x="160" y="405"/>
      <point x="156" y="366"/>
      <point x="60" y="363" type="curve"/>
      <point x="60" y="331" type="line"/>
      <point x="155" y="328"/>
      <point x="160" y="290"/>
      <point x="160" y="144" type="curve" smooth="yes"/>
      <point x="160" y="-16"/>
      <point x="189" y="-51"/>
    </contour>
  </outline>
</glyph>
<glyph name="bar" format="1">
  <advance width="105"/>
  <unicode hex="007C"/>
  <outline>
    <contour>
      <point x="29" y="-42" type="line"/>
      <point x="78" y="-42" type="line"/>
      <point x="78" y="782" type="line"/>
      <point x="29" y="782" type="line"/>
    </contour>
  </outline>
</glyph>
<glyph name="braceright" format="1">
  <advance width="369"/>
  <unicode hex="007D"/>
  <outline>
    <contour>
      <point x="58" y="-54" type="line"/>
      <point x="181" y="-51"/>
      <point x="209" y="-16"/>
      <point x="209" y="144" type="curve" smooth="yes"/>
      <point x="209" y="290"/>
      <point x="214" y="328"/>
      <point x="309" y="331" type="curve"/>
      <point x="309" y="363" type="line"/>
      <point x="213" y="366"/>
      <point x="209" y="405"/>
      <point x="209" y="551" type="curve" smooth="yes"/>
      <point x="209" y="710"/>
      <point x="181" y="745"/>
      <point x="58" y="748" type="curve"/>
      <point x="58" y="721" type="line"/>
      <point x="166" y="717"/>
      <point x="166" y="671"/>
      <point x="167" y="551" type="curve" smooth="yes"/>
      <point x="169" y="360"/>
      <point x="206" y="354"/>
      <point x="259" y="348" type="curve"/>
      <point x="206" y="340"/>
      <point x="169" y="335"/>
      <point x="167" y="144" type="curve" smooth="yes"/>
      <point x="166" y="25"/>
      <point x="167" y="-23"/>
      <point x="58" y="-27" type="curve"/>
    </contour>
  </outline>
</glyph>
<glyph name="asciitilde" format="1">
  <advance width="385"/>
  <unicode hex="007E"/>
  <outline>
    <contour>
      <point x="35" y="308" type="curve"/>
      <point x="53" y="308" type="line"/>
      <point x="53" y="348"/>
      <point x="70" y="362"/>
      <point x="96" y="362" type="curve" smooth="yes"/>
      <point x="146" y="362"/>
      <point x="230" y="313"/>
      <point x="290" y="313" type="curve" smooth="yes"/>
      <point x="321" y="313"/>
      <point x="352" y="319"/>
      <point x="352" y="408" type="curve"/>
      <point x="331" y="408" type="line"/>
      <point x="331" y="365"/>
      <point x="312" y="350"/>
      <point x="285" y="350" type="curve" smooth="yes"/>
      <point x="236" y="350"/>
      <point x="157" y="396"/>
      <point x="102" y="396" type="curve" smooth="yes"/>
      <point x="78" y="396"/>
      <point x="35" y="391"/>
    </contour>
  </outline>
</glyph>
<glyph name="cent" format="1">
  <advance width="495"/>
  <unicode hex="00A2"/>
  <outline>
    <component base="c" yScale="0.91" yOffset="51"/>
    <contour>
      <point x="272" y="-94" type="line"/>
      <point x="303" y="-94" type="line"/>
      <point x="303" y="657" type="line"/>
      <point x="272" y="657" type="line"/>
    </contour>
  </outline>
</glyph>
<glyph name="sterling" format="1">
  <advance width="441"/>
  <unicode hex="00A3"/>
  <outline>
    <contour>
      <point x="56" y="0" type="line"/>
      <point x="411" y="0" type="line"/>
      <point x="411" y="32" type="line"/>
      <point x="101" y="32" type="line"/>
      <point x="161" y="88"/>
      <point x="187" y="145"/>
      <point x="187" y="199" type="curve" smooth="yes"/>
      <point x="187" y="228"/>
      <point x="180" y="255"/>
      <point x="167" y="283" type="curve"/>
      <point x="368" y="283" type="line"/>
      <point x="368" y="312" type="line"/>
      <point x="155" y="312" type="line"/>
      <point x="120" y="365"/>
      <point x="104" y="413"/>
      <point x="104" y="453" type="curve" smooth="yes"/>
      <point x="104" y="550"/>
      <point x="195" y="568"/>
      <point x="253" y="568" type="curve" smooth="yes"/>
      <point x="303" y="568"/>
      <point x="350" y="555"/>
      <point x="391" y="529" type="curve"/>
      <point x="404" y="559" type="line"/>
      <point x="366" y="588"/>
      <point x="310" y="604"/>
      <point x="250" y="604" type="curve" smooth="yes"/>
      <point x="176" y="604"/>
      <point x="61" y="577"/>
      <point x="61" y="454" type="curve" smooth="yes"/>
      <point x="61" y="411"/>
      <point x="77" y="362"/>
      <point x="111" y="312" type="curve"/>
      <point x="32" y="312" type="line"/>
      <point x="32" y="283" type="line"/>
      <point x="125" y="283" type="line"/>
      <point x="139" y="254"/>
      <point x="146" y="226"/>
      <point x="146" y="200" type="curve" smooth="yes"/>
      <point x="146" y="138"/>
      <point x="112" y="82"/>
      <point x="56" y="28" type="curve"/>
    </contour>
  </outline>
</glyph>
<glyph name="currency" format="1">
  <advance width="484"/>
  <unicode hex="00A4"/>
  <outline>
    <contour>
      <point x="69" y="243" type="line"/>
      <point x="128" y="303" type="line"/>
      <point x="158" y="281"/>
      <point x="197" y="269"/>
      <point x="243" y="269" type="curve" smooth="yes"/>
      <point x="291" y="269"/>
      <point x="330" y="282"/>
      <point x="360" y="305" type="curve"/>
      <point x="422" y="243" type="line"/>
      <point x="444" y="266" type="line"/>
      <point x="383" y="327" type="line"/>
      <point x="407" y="356"/>
      <point x="419" y="395"/>
      <point x="419" y="441" type="curve" smooth="yes"/>
      <point x="419" y="488"/>
      <point x="406" y="527"/>
      <point x="382" y="556" type="curve"/>
      <point x="444" y="619" type="line"/>
      <point x="422" y="642" type="line"/>
      <point x="359" y="579" type="line"/>
      <point x="329" y="601"/>
      <point x="290" y="613"/>
      <point x="243" y="613" type="curve" smooth="yes"/>
      <point x="198" y="613"/>
      <point x="159" y="601"/>
      <point x="130" y="580" type="curve"/>
      <point x="69" y="642" type="line"/>
      <point x="46" y="619" type="line"/>
      <point x="106" y="559" type="line"/>
      <point x="80" y="530"/>
      <point x="66" y="489"/>
      <point x="66" y="441" type="curve" smooth="yes"/>
      <point x="66" y="394"/>
      <point x="80" y="354"/>
      <point x="105" y="325" type="curve"/>
      <point x="46" y="266" type="line"/>
    </contour>
    <contour>
      <point x="243" y="305" type="curve" smooth="yes"/>
      <point x="162" y="305"/>
      <point x="111" y="357"/>
      <point x="111" y="441" type="curve" smooth="yes"/>
      <point x="111" y="525"/>
      <point x="162" y="578"/>
      <point x="243" y="578" type="curve" smooth="yes"/>
      <point x="324" y="578"/>
      <point x="375" y="525"/>
      <point x="375" y="441" type="curve" smooth="yes"/>
      <point x="375" y="357"/>
      <point x="324" y="305"/>
    </contour>
  </outline>
</glyph>
<glyph name="yen" format="1">
  <advance width="574"/>
  <unicode hex="00A5"/>
  <outline>
    <contour>
      <point x="549" y="725" type="line"/>
      <point x="503" y="725" type="line"/>
      <point x="289" y="327" type="line"/>
      <point x="76" y="725" type="line"/>
      <point x="28" y="725" type="line"/>
      <point x="250" y="311" type="line"/>
      <point x="130" y="311" type="line"/>
      <point x="130" y="279" type="line"/>
      <point x="265" y="279" type="line"/>
      <point x="265" y="214" type="line"/>
      <point x="130" y="214" type="line"/>
      <point x="130" y="184" type="line"/>
      <point x="265" y="184" type="line"/>
      <point x="265" y="0" type="line"/>
      <point x="310" y="0" type="line"/>
      <point x="310" y="184" type="line"/>
      <point x="439" y="184" type="line"/>
      <point x="439" y="214" type="line"/>
      <point x="310" y="214" type="line"/>
      <point x="310" y="279" type="line"/>
      <point x="439" y="279" type="line"/>
      <point x="439" y="311" type="line"/>
      <point x="324" y="311" type="line"/>
    </contour>
  </outline>
</glyph>
<glyph name="brokenbar" format="1">
  <advance width="168"/>
  <unicode hex="00A6"/>
  <outline>
    <contour>
      <point x="66" y="-74" type="line"/>
      <point x="104" y="-74" type="line"/>
      <point x="104" y="227" type="line"/>
      <point x="66" y="227" type="line"/>
    </contour>
    <contour>
      <point x="66" y="438" type="line"/>
      <point x="104" y="438" type="line"/>
      <point x="104" y="740" type="line"/>
      <point x="66" y="740" type="line"/>
    </contour>
  </outline>
</glyph>
<glyph name="section" format="1">
  <advance width="372"/>
  <unicode hex="00A7"/>
  <outline>
    <contour>
      <point x="188" y="-40" type="curve" smooth="yes"/>
      <point x="276" y="-40"/>
      <point x="365" y="2"/>
      <point x="365" y="98" type="curve" smooth="yes"/>
      <point x="365" y="190"/>
      <point x="287" y="218"/>
      <point x="221" y="231" type="curve"/>
      <point x="283" y="231"/>
      <point x="364" y="272"/>
      <point x="364" y="346" type="curve" smooth="yes"/>
      <point x="364" y="436"/>
      <point x="303" y="453"/>
      <point x="237" y="474" type="curve" smooth="yes"/>
      <point x="176" y="494" type="line" smooth="yes"/>
      <point x="109" y="516"/>
      <point x="75" y="543"/>
      <point x="75" y="592" type="curve" smooth="yes"/>
      <point x="75" y="670"/>
      <point x="161" y="671"/>
      <point x="190" y="671" type="curve" smooth="yes"/>
      <point x="245" y="671"/>
      <point x="283" y="660"/>
      <point x="325" y="638" type="curve"/>
      <point x="342" y="673" type="line"/>
      <point x="301" y="699"/>
      <point x="249" y="714"/>
      <point x="189" y="714" type="curve" smooth="yes"/>
      <point x="127" y="714"/>
      <point x="29" y="697"/>
      <point x="29" y="589" type="curve" smooth="yes"/>
      <point x="29" y="503"/>
      <point x="98" y="472"/>
      <point x="180" y="457" type="curve"/>
      <point x="128" y="456"/>
      <point x="29" y="434"/>
      <point x="29" y="346" type="curve" smooth="yes"/>
      <point x="29" y="245"/>
      <point x="107" y="232"/>
      <point x="154" y="221" type="curve" smooth="yes"/>
      <point x="199" y="211" type="line"/>
      <point x="267" y="195"/>
      <point x="312" y="164"/>
      <point x="312" y="96" type="curve" smooth="yes"/>
      <point x="312" y="15"/>
      <point x="228" y="2"/>
      <point x="182" y="2" type="curve" smooth="yes"/>
      <point x="130" y="2"/>
      <point x="80" y="23"/>
      <point x="55" y="40" type="curve"/>
      <point x="37" y="-2" type="line"/>
      <point x="65" y="-19"/>
      <point x="123" y="-40"/>
    </contour>
    <contour>
      <point x="194" y="262" type="curve" smooth="yes"/>
      <point x="144" y="262"/>
      <point x="70" y="270"/>
      <point x="70" y="346" type="curve" smooth="yes"/>
      <point x="70" y="427"/>
      <point x="151" y="427"/>
      <point x="194" y="427" type="curve" smooth="yes"/>
      <point x="245" y="427"/>
      <point x="320" y="427"/>
      <point x="320" y="346" type="curve" smooth="yes"/>
      <point x="320" y="271"/>
      <point x="247" y="262"/>
    </contour>
  </outline>
</glyph>
<glyph name="dieresis" format="1">
  <advance width="269"/>
  <unicode hex="00A8"/>
  <outline>
    <contour>
      <point x="142" y="535" type="move" name="_top"/>
    </contour>
    <contour>
      <point x="50" y="619" type="curve" smooth="yes"/>
      <point x="69" y="619"/>
      <point x="78" y="629"/>
      <point x="78" y="652" type="curve" smooth="yes"/>
      <point x="78" y="675"/>
      <point x="69" y="685"/>
      <point x="50" y="685" type="curve" smooth="yes"/>
      <point x="29" y="685"/>
      <point x="19" y="675"/>
      <point x="19" y="652" type="curve" smooth="yes"/>
      <point x="19" y="629"/>
      <point x="29" y="619"/>
    </contour>
    <contour>
      <point x="229" y="619" type="curve" smooth="yes"/>
      <point x="248" y="619"/>
      <point x="257" y="629"/>
      <point x="257" y="652" type="curve" smooth="yes"/>
      <point x="257" y="675"/>
      <point x="248" y="685"/>
      <point x="229" y="685" type="curve" smooth="yes"/>
      <point x="208" y="685"/>
      <point x="199" y="675"/>
      <point x="199" y="652" type="curve" smooth="yes"/>
      <point x="199" y="629"/>
      <point x="208" y="619"/>
    </contour>
  </outline>
</glyph>
<glyph name="copyright" format="1">
  <advance width="879"/>
  <unicode hex="00A9"/>
  <outline>
    <contour>
      <point x="446" y="607" type="curve" smooth="yes"/>
      <point x="301" y="607"/>
      <point x="210" y="513"/>
      <point x="210" y="369" type="curve" smooth="yes"/>
      <point x="210" y="223"/>
      <point x="298" y="131"/>
      <point x="444" y="131" type="curve" smooth="yes"/>
      <point x="509" y="131"/>
      <point x="569" y="153"/>
      <point x="610" y="188" type="curve"/>
      <point x="593" y="213" type="line"/>
      <point x="554" y="182"/>
      <point x="503" y="163"/>
      <point x="444" y="163" type="curve" smooth="yes"/>
      <point x="321" y="163"/>
      <point x="252" y="238"/>
      <point x="252" y="369" type="curve" smooth="yes"/>
      <point x="252" y="494"/>
      <point x="321" y="575"/>
      <point x="446" y="575" type="curve" smooth="yes"/>
      <point x="500" y="575"/>
      <point x="554" y="558"/>
      <point x="591" y="527" type="curve"/>
      <point x="611" y="550" type="line"/>
      <point x="571" y="585"/>
      <point x="509" y="607"/>
    </contour>
    <contour>
      <point x="440" y="27" type="curve" smooth="yes"/>
      <point x="228" y="27"/>
      <point x="95" y="156"/>
      <point x="95" y="363" type="curve" smooth="yes"/>
      <point x="95" y="570"/>
      <point x="228" y="700"/>
      <point x="440" y="700" type="curve" smooth="yes"/>
      <point x="652" y="700"/>
      <point x="785" y="570"/>
      <point x="785" y="363" type="curve" smooth="yes"/>
      <point x="785" y="156"/>
      <point x="652" y="27"/>
    </contour>
    <contour>
      <point x="440" y="-8" type="curve" smooth="yes"/>
      <point x="677" y="-8"/>
      <point x="826" y="134"/>
      <point x="826" y="363" type="curve" smooth="yes"/>
      <point x="826" y="592"/>
      <point x="677" y="735"/>
      <point x="440" y="735" type="curve" smooth="yes"/>
      <point x="203" y="735"/>
      <point x="54" y="592"/>
      <point x="54" y="363" type="curve" smooth="yes"/>
      <point x="54" y="134"/>
      <point x="203" y="-8"/>
    </contour>
  </outline>
</glyph>
<glyph name="guillemotleft" format="1">
  <advance width="435"/>
  <unicode hex="00AB"/>
  <outline>
    <contour>
      <point x="250" y="125" type="line"/>
      <point x="250" y="165" type="line"/>
      <point x="78" y="306" type="line"/>
      <point x="250" y="448" type="line"/>
      <point x="250" y="483" type="line"/>
      <point x="47" y="321" type="line"/>
      <point x="47" y="291" type="line"/>
    </contour>
    <contour>
      <point x="405" y="125" type="line"/>
      <point x="405" y="165" type="line"/>
      <point x="233" y="306" type="line"/>
      <point x="405" y="448" type="line"/>
      <point x="405" y="483" type="line"/>
      <point x="203" y="321" type="line"/>
      <point x="203" y="291" type="line"/>
    </contour>
  </outline>
</glyph>
<glyph name="logicalnot" format="1">
  <advance width="642"/>
  <unicode hex="00AC"/>
  <outline>
    <contour>
      <point x="500" y="217" type="line"/>
      <point x="543" y="217" type="line"/>
      <point x="543" y="476" type="line"/>
      <point x="85" y="476" type="line"/>
      <point x="85" y="438" type="line"/>
      <point x="500" y="438" type="line"/>
    </contour>
  </outline>
</glyph>
<glyph name="uni00AD" format="1">
  <advance width="140"/>
  <unicode hex="00AD"/>
  <outline>
    <contour>
      <point x="10" y="216" type="line"/>
      <point x="144" y="216" type="line"/>
      <point x="144" y="243" type="line"/>
      <point x="10" y="243" type="line"/>
    </contour>
  </outline>
</glyph>
<glyph name="registered" format="1">
  <advance width="883"/>
  <unicode hex="00AE"/>
  <outline>
    <contour>
      <point x="287" y="134" type="line"/>
      <point x="328" y="134" type="line"/>
      <point x="328" y="351" type="line"/>
      <point x="461" y="351" type="line"/>
      <point x="547" y="348"/>
      <point x="558" y="324"/>
      <point x="567" y="273" type="curve" smooth="yes"/>
      <point x="593" y="134" type="line"/>
      <point x="632" y="134" type="line"/>
      <point x="607" y="275" type="line" smooth="yes"/>
      <point x="599" y="321"/>
      <point x="590" y="358"/>
      <point x="542" y="369" type="curve"/>
      <point x="589" y="382"/>
      <point x="622" y="416"/>
      <point x="622" y="481" type="curve" smooth="yes"/>
      <point x="622" y="595"/>
      <point x="525" y="606"/>
      <point x="456" y="606" type="curve" smooth="yes"/>
      <point x="287" y="606" type="line"/>
    </contour>
    <contour>
      <point x="328" y="387" type="line"/>
      <point x="328" y="570" type="line"/>
      <point x="456" y="570" type="line" smooth="yes"/>
      <point x="532" y="570"/>
      <point x="581" y="555"/>
      <point x="581" y="481" type="curve" smooth="yes"/>
      <point x="581" y="400"/>
      <point x="537" y="387"/>
      <point x="452" y="387" type="curve" smooth="yes"/>
    </contour>
    <contour>
      <point x="442" y="27" type="curve" smooth="yes"/>
      <point x="230" y="27"/>
      <point x="97" y="156"/>
      <point x="97" y="363" type="curve" smooth="yes"/>
      <point x="97" y="570"/>
      <point x="230" y="700"/>
      <point x="442" y="700" type="curve" smooth="yes"/>
      <point x="654" y="700"/>
      <point x="787" y="570"/>
      <point x="787" y="363" type="curve" smooth="yes"/>
      <point x="787" y="156"/>
      <point x="654" y="27"/>
    </contour>
    <contour>
      <point x="442" y="-8" type="curve" smooth="yes"/>
      <point x="679" y="-8"/>
      <point x="828" y="134"/>
      <point x="828" y="363" type="curve" smooth="yes"/>
      <point x="828" y="592"/>
      <point x="679" y="735"/>
      <point x="442" y="735" type="curve" smooth="yes"/>
      <point x="205" y="735"/>
      <point x="56" y="592"/>
      <point x="56" y="363" type="curve" smooth="yes"/>
      <point x="56" y="134"/>
      <point x="205" y="-8"/>
    </contour>
  </outline>
</glyph>
<glyph name="macron" format="1">
  <advance width="424"/>
  <unicode hex="00AF"/>
  <outline>
    <contour>
      <point x="212" y="535" type="move" name="_top"/>
    </contour>
    <contour>
      <point x="208" y="648" type="move" name="_mid"/>
    </contour>
    <contour>
      <point x="83" y="643" type="line"/>
      <point x="331" y="643" type="line"/>
      <point x="331" y="675" type="line"/>
      <point x="83" y="675" type="line"/>
    </contour>
  </outline>
</glyph>
<glyph name="degree" format="1">
  <advance width="194"/>
  <unicode hex="00B0"/>
  <outline>
    <contour>
      <point x="103" y="319" type="curve" smooth="yes"/>
      <point x="70" y="319"/>
      <point x="45" y="349"/>
      <point x="45" y="381" type="curve" smooth="yes"/>
      <point x="45" y="413"/>
      <point x="68" y="442"/>
      <point x="103" y="442" type="curve" smooth="yes"/>
      <point x="138" y="442"/>
      <point x="158" y="413"/>
      <point x="158" y="381" type="curve" smooth="yes"/>
      <point x="158" y="348"/>
      <point x="138" y="319"/>
    </contour>
    <contour>
      <point x="107" y="296" type="curve" smooth="yes"/>
      <point x="157" y="296"/>
      <point x="180" y="336"/>
      <point x="180" y="382" type="curve" smooth="yes"/>
      <point x="180" y="428"/>
      <point x="152" y="466"/>
      <point x="104" y="466" type="curve" smooth="yes"/>
      <point x="52" y="466"/>
      <point x="22" y="431"/>
      <point x="22" y="380" type="curve" smooth="yes"/>
      <point x="22" y="328"/>
      <point x="57" y="296"/>
    </contour>
  </outline>
</glyph>
<glyph name="plusminus" format="1">
  <advance width="319"/>
  <unicode hex="00B1"/>
  <outline>
    <contour>
      <point x="144" y="20" type="line"/>
      <point x="172" y="20" type="line"/>
      <point x="172" y="175" type="line"/>
      <point x="324" y="175" type="line"/>
      <point x="324" y="207" type="line"/>
      <point x="172" y="207" type="line"/>
      <point x="172" y="363" type="line"/>
      <point x="144" y="363" type="line"/>
      <point x="144" y="207" type="line"/>
      <point x="-8" y="207" type="line"/>
      <point x="-8" y="175" type="line"/>
      <point x="144" y="175" type="line"/>
    </contour>
    <contour>
      <point x="10" y="-39" type="line"/>
      <point x="307" y="-39" type="line"/>
      <point x="307" y="2" type="line"/>
      <point x="10" y="2" type="line"/>
    </contour>
  </outline>
</glyph>
<glyph name="uni00B2" format="1">
  <advance width="579"/>
  <unicode hex="00B2"/>
  <outline>
    <contour>
      <point x="124" y="298" type="line"/>
      <point x="455" y="298" type="line"/>
      <point x="455" y="329" type="line"/>
      <point x="176" y="329" type="line"/>
      <point x="324" y="465" type="line" smooth="yes"/>
      <point x="382" y="518"/>
      <point x="449" y="582"/>
      <point x="449" y="672" type="curve" smooth="yes"/>
      <point x="449" y="773"/>
      <point x="381" y="820"/>
      <point x="279" y="820" type="curve" smooth="yes"/>
      <point x="207" y="820"/>
      <point x="161" y="793"/>
      <point x="127" y="771" type="curve"/>
      <point x="140" y="739" type="line"/>
      <point x="175" y="761"/>
      <point x="220" y="786"/>
      <point x="279" y="786" type="curve" smooth="yes"/>
      <point x="343" y="786"/>
      <point x="407" y="763"/>
      <point x="407" y="672" type="curve" smooth="yes"/>
      <point x="407" y="593"/>
      <point x="359" y="549"/>
      <point x="299" y="493" type="curve" smooth="yes"/>
      <point x="124" y="327" type="line"/>
    </contour>
  </outline>
</glyph>
<glyph name="uni00B3" format="1">
  <advance width="579"/>
  <unicode hex="00B3"/>
  <outline>
    <contour>
      <point x="285" y="260" type="curve" smooth="yes"/>
      <point x="375" y="260"/>
      <point x="453" y="303"/>
      <point x="453" y="407" type="curve" smooth="yes"/>
      <point x="453" y="490"/>
      <point x="405" y="538"/>
      <point x="326" y="555" type="curve"/>
      <point x="379" y="560"/>
      <point x="434" y="590"/>
      <point x="434" y="678" type="curve" smooth="yes"/>
      <point x="434" y="772"/>
      <point x="365" y="811"/>
      <point x="287" y="811" type="curve" smooth="yes"/>
      <point x="238" y="811"/>
      <point x="185" y="794"/>
      <point x="143" y="767" type="curve"/>
      <point x="155" y="738" type="line"/>
      <point x="192" y="761"/>
      <point x="242" y="777"/>
      <point x="286" y="777" type="curve" smooth="yes"/>
      <point x="344" y="777"/>
      <point x="393" y="750"/>
      <point x="393" y="678" type="curve" smooth="yes"/>
      <point x="393" y="589"/>
      <point x="329" y="574"/>
      <point x="268" y="574" type="curve" smooth="yes"/>
      <point x="267" y="574"/>
      <point x="265" y="575"/>
      <point x="265" y="539" type="curve"/>
      <point x="364" y="524"/>
      <point x="412" y="497"/>
      <point x="412" y="410" type="curve" smooth="yes"/>
      <point x="412" y="326"/>
      <point x="353" y="294"/>
      <point x="280" y="294" type="curve" smooth="yes"/>
      <point x="237" y="294"/>
      <point x="192" y="305"/>
      <point x="154" y="323" type="curve"/>
      <point x="143" y="290" type="line"/>
      <point x="189" y="270"/>
      <point x="239" y="260"/>
    </contour>
  </outline>
</glyph>
<glyph name="acute" format="1">
  <advance width="203"/>
  <unicode hex="00B4"/>
  <outline>
    <contour>
      <point x="44" y="535" type="move" name="_top"/>
    </contour>
    <contour>
      <point x="10" y="614" type="line"/>
      <point x="196" y="712" type="line"/>
      <point x="177" y="746" type="line"/>
      <point x="0" y="629" type="line"/>
    </contour>
  </outline>
</glyph>
<glyph name="paragraph" format="1">
  <advance width="526"/>
  <unicode hex="00B6"/>
  <outline>
    <contour>
      <point x="256" y="-37" type="line"/>
      <point x="300" y="-37" type="line"/>
      <point x="300" y="703" type="line"/>
      <point x="390" y="703" type="line"/>
      <point x="390" y="-37" type="line"/>
      <point x="433" y="-37" type="line"/>
      <point x="433" y="740" type="line"/>
      <point x="277" y="740" type="line" smooth="yes"/>
      <point x="161" y="740"/>
      <point x="51" y="725"/>
      <point x="51" y="604" type="curve" smooth="yes"/>
      <point x="51" y="493"/>
      <point x="149" y="457"/>
      <point x="256" y="457" type="curve"/>
    </contour>
  </outline>
</glyph>
<glyph name="periodcentered" format="1">
  <advance width="283"/>
  <unicode hex="00B7"/>
  <outline>
    <contour>
      <point x="54" y="250" type="move" name="_mid"/>
    </contour>
    <contour>
      <point x="256" y="219" type="curve" smooth="yes"/>
      <point x="273" y="219"/>
      <point x="284" y="232"/>
      <point x="284" y="252" type="curve" smooth="yes"/>
      <point x="284" y="273"/>
      <point x="273" y="285"/>
      <point x="256" y="285" type="curve" smooth="yes"/>
      <point x="237" y="285"/>
      <point x="224" y="273"/>
      <point x="224" y="252" type="curve" smooth="yes"/>
      <point x="224" y="232"/>
      <point x="237" y="219"/>
    </contour>
  </outline>
</glyph>
<glyph name="cedilla" format="1">
  <advance width="189"/>
  <unicode hex="00B8"/>
  <outline>
    <contour>
      <point x="97" y="0" type="move" name="_bot"/>
    </contour>
    <contour>
      <point x="97" y="-179" type="curve" smooth="yes"/>
      <point x="149" y="-179"/>
      <point x="188" y="-152"/>
      <point x="188" y="-102" type="curve" smooth="yes"/>
      <point x="188" y="-67"/>
      <point x="161" y="-32"/>
      <point x="102" y="-32" type="curve"/>
      <point x="109" y="7" type="line"/>
      <point x="85" y="7" type="line"/>
      <point x="78" y="-54" type="line"/>
      <point x="136" y="-54"/>
      <point x="154" y="-79"/>
      <point x="154" y="-102" type="curve" smooth="yes"/>
      <point x="154" y="-135"/>
      <point x="132" y="-151"/>
      <point x="96" y="-151" type="curve" smooth="yes"/>
      <point x="83" y="-151"/>
      <point x="69" y="-149"/>
      <point x="53" y="-145" type="curve"/>
      <point x="50" y="-172" type="line"/>
      <point x="67" y="-176"/>
      <point x="82" y="-179"/>
    </contour>
  </outline>
</glyph>
<glyph name="uni00B9" format="1">
  <advance width="1101"/>
  <unicode hex="00B9"/>
  <outline>
    <contour>
      <point x="558" y="584" type="line"/>
      <point x="645" y="584" type="line"/>
      <point x="645" y="1674" type="line"/>
      <point x="545" y="1674" type="line"/>
      <point x="310" y="1557" type="line"/>
      <point x="339" y="1495" type="line"/>
      <point x="558" y="1604" type="line"/>
    </contour>
  </outline>
</glyph>
<glyph name="uni00B9" format="1">
  <advance width="537"/>
  <unicode hex="00B9"/>
  <outline>
    <contour>
      <point x="272" y="285" type="line"/>
      <point x="315" y="285" type="line"/>
      <point x="315" y="817" type="line"/>
      <point x="266" y="817" type="line"/>
      <point x="151" y="760" type="line"/>
      <point x="166" y="730" type="line"/>
      <point x="272" y="783" type="line"/>
    </contour>
  </outline>
</glyph>
<glyph name="guillemotright" format="1">
  <advance width="435"/>
  <unicode hex="00BB"/>
  <outline>
    <contour>
      <point x="47" y="125" type="line"/>
      <point x="250" y="291" type="line"/>
      <point x="250" y="321" type="line"/>
      <point x="47" y="483" type="line"/>
      <point x="47" y="448" type="line"/>
      <point x="220" y="306" type="line"/>
      <point x="47" y="165" type="line"/>
    </contour>
    <contour>
      <point x="203" y="125" type="line"/>
      <point x="405" y="291" type="line"/>
      <point x="405" y="321" type="line"/>
      <point x="203" y="483" type="line"/>
      <point x="203" y="448" type="line"/>
      <point x="375" y="306" type="line"/>
      <point x="203" y="165" type="line"/>
    </contour>
  </outline>
</glyph>
<glyph name="onequarter" format="1">
  <advance width="880"/>
  <unicode hex="00BC"/>
  <outline>
    <contour>
      <point x="745" y="-3" type="line"/>
      <point x="745" y="129" type="line"/>
      <point x="817" y="129" type="line"/>
      <point x="817" y="156" type="line"/>
      <point x="745" y="156" type="line"/>
      <point x="745" y="515" type="line"/>
      <point x="706" y="523" type="line"/>
      <point x="452" y="167" type="line"/>
      <point x="459" y="129" type="line"/>
      <point x="703" y="129" type="line"/>
      <point x="703" y="0" type="line"/>
    </contour>
    <contour>
      <point x="167" y="303" type="line"/>
      <point x="209" y="303" type="line"/>
      <point x="209" y="733" type="line"/>
      <point x="167" y="742" type="line"/>
      <point x="61" y="691" type="line"/>
      <point x="79" y="657" type="line"/>
      <point x="167" y="698" type="line"/>
    </contour>
    <contour>
      <point x="179" y="-8" type="line"/>
      <point x="653" y="744" type="line"/>
      <point x="622" y="764" type="line"/>
      <point x="148" y="13" type="line"/>
    </contour>
    <contour>
      <point x="488" y="156" type="line"/>
      <point x="703" y="465" type="line"/>
      <point x="703" y="156" type="line"/>
    </contour>
  </outline>
</glyph>
<glyph name="onehalf" format="1">
  <advance width="1005"/>
  <unicode hex="00BD"/>
  <outline>
    <contour>
      <point x="547" y="0" type="line"/>
      <point x="838" y="0" type="line"/>
      <point x="838" y="32" type="line"/>
      <point x="604" y="32" type="line"/>
      <point x="725" y="141" type="line" smooth="yes"/>
      <point x="775" y="186"/>
      <point x="833" y="242"/>
      <point x="833" y="319" type="curve" smooth="yes"/>
      <point x="833" y="407"/>
      <point x="774" y="448"/>
      <point x="685" y="448" type="curve" smooth="yes"/>
      <point x="619" y="448"/>
      <point x="578" y="423"/>
      <point x="549" y="405" type="curve"/>
      <point x="562" y="371" type="line"/>
      <point x="593" y="392"/>
      <point x="634" y="414"/>
      <point x="685" y="414" type="curve" smooth="yes"/>
      <point x="738" y="414"/>
      <point x="789" y="396"/>
      <point x="789" y="319" type="curve" smooth="yes"/>
      <point x="789" y="252"/>
      <point x="749" y="215"/>
      <point x="698" y="168" type="curve" smooth="yes"/>
      <point x="547" y="28" type="line"/>
    </contour>
    <contour>
      <point x="173" y="303" type="line"/>
      <point x="215" y="303" type="line"/>
      <point x="215" y="733" type="line"/>
      <point x="173" y="742" type="line"/>
      <point x="67" y="691" type="line"/>
      <point x="84" y="660" type="line"/>
      <point x="173" y="702" type="line"/>
    </contour>
    <contour>
      <point x="193" y="-8" type="line"/>
      <point x="668" y="744" type="line"/>
      <point x="636" y="764" type="line"/>
      <point x="163" y="13" type="line"/>
    </contour>
  </outline>
</glyph>
<glyph name="threequarters" format="1">
  <advance width="990"/>
  <unicode hex="00BE"/>
  <outline>
    <contour>
      <point x="203" y="286" type="curve" smooth="yes"/>
      <point x="282" y="286"/>
      <point x="347" y="322"/>
      <point x="347" y="411" type="curve" smooth="yes"/>
      <point x="347" y="478"/>
      <point x="309" y="519"/>
      <point x="244" y="535" type="curve"/>
      <point x="287" y="541"/>
      <point x="331" y="568"/>
      <point x="331" y="639" type="curve" smooth="yes"/>
      <point x="331" y="717"/>
      <point x="278" y="752"/>
      <point x="199" y="752" type="curve" smooth="yes"/>
      <point x="141" y="752"/>
      <point x="105" y="730"/>
      <point x="80" y="714" type="curve"/>
      <point x="91" y="684" type="line"/>
      <point x="118" y="702"/>
      <point x="154" y="721"/>
      <point x="199" y="721" type="curve" smooth="yes"/>
      <point x="246" y="721"/>
      <point x="291" y="706"/>
      <point x="291" y="639" type="curve" smooth="yes"/>
      <point x="291" y="564"/>
      <point x="238" y="553"/>
      <point x="187" y="553" type="curve" smooth="yes"/>
      <point x="186" y="553"/>
      <point x="183" y="554"/>
      <point x="183" y="521" type="curve"/>
      <point x="265" y="510"/>
      <point x="307" y="486"/>
      <point x="307" y="414" type="curve" smooth="yes"/>
      <point x="307" y="345"/>
      <point x="265" y="316"/>
      <point x="203" y="316" type="curve" smooth="yes"/>
      <point x="166" y="316"/>
      <point x="128" y="322"/>
      <point x="91" y="340" type="curve"/>
      <point x="80" y="311" type="line"/>
      <point x="119" y="293"/>
      <point x="163" y="286"/>
    </contour>
    <contour>
      <point x="826" y="-3" type="line"/>
      <point x="826" y="129" type="line"/>
      <point x="898" y="129" type="line"/>
      <point x="898" y="156" type="line"/>
      <point x="826" y="156" type="line"/>
      <point x="826" y="515" type="line"/>
      <point x="787" y="523" type="line"/>
      <point x="533" y="167" type="line"/>
      <point x="540" y="129" type="line"/>
      <point x="784" y="129" type="line"/>
      <point x="784" y="0" type="line"/>
    </contour>
    <contour>
      <point x="270" y="-8" type="line"/>
      <point x="744" y="744" type="line"/>
      <point x="712" y="764" type="line"/>
      <point x="239" y="13" type="line"/>
    </contour>
    <contour>
      <point x="570" y="156" type="line"/>
      <point x="784" y="465" type="line"/>
      <point x="784" y="156" type="line"/>
    </contour>
  </outline>
</glyph>
<glyph name="AE" format="1">
  <advance width="1739"/>
  <unicode hex="00C6"/>
  <outline>
    <contour>
      <point x="1083" y="1515" type="move" name="top"/>
    </contour>
    <contour>
      <point x="-6" y="0" type="line"/>
      <point x="92" y="0" type="line"/>
      <point x="310" y="357" type="line"/>
      <point x="920" y="357" type="line"/>
      <point x="920" y="0" type="line"/>
      <point x="1650" y="0" type="line"/>
      <point x="1650" y="79" type="line"/>
      <point x="1012" y="79" type="line"/>
      <point x="1012" y="763" type="line"/>
      <point x="1552" y="763" type="line"/>
      <point x="1552" y="842" type="line"/>
      <point x="1012" y="842" type="line"/>
      <point x="1012" y="1436" type="line"/>
      <point x="1597" y="1436" type="line"/>
      <point x="1597" y="1515" type="line"/>
      <point x="895" y="1515" type="line"/>
    </contour>
    <contour>
      <point x="354" y="425" type="line"/>
      <point x="917" y="1394" type="line"/>
      <point x="917" y="425" type="line"/>
    </contour>
  </outline>
</glyph>
<glyph name="AE" format="1">
  <advance width="849"/>
  <unicode hex="00C6"/>
  <outline>
    <contour>
      <point x="529" y="740" type="move" name="top"/>
    </contour>
    <contour>
      <point x="-3" y="0" type="line"/>
      <point x="45" y="0" type="line"/>
      <point x="151" y="174" type="line"/>
      <point x="449" y="174" type="line"/>
      <point x="449" y="0" type="line"/>
      <point x="806" y="0" type="line"/>
      <point x="806" y="39" type="line"/>
      <point x="494" y="39" type="line"/>
      <point x="494" y="373" type="line"/>
      <point x="758" y="373" type="line"/>
      <point x="758" y="411" type="line"/>
      <point x="494" y="411" type="line"/>
      <point x="494" y="701" type="line"/>
      <point x="780" y="701" type="line"/>
      <point x="780" y="740" type="line"/>
      <point x="437" y="740" type="line"/>
    </contour>
    <contour>
      <point x="173" y="208" type="line"/>
      <point x="448" y="681" type="line"/>
      <point x="448" y="208" type="line"/>
    </contour>
  </outline>
</glyph>
<glyph name="multiply" format="1">
  <advance width="308"/>
  <unicode hex="00D7"/>
  <outline>
    <contour>
      <point x="-7" y="66" type="line"/>
      <point x="144" y="221" type="line"/>
      <point x="295" y="66" type="line"/>
      <point x="323" y="89" type="line"/>
      <point x="168" y="248" type="line"/>
      <point x="323" y="406" type="line"/>
      <point x="295" y="429" type="line"/>
      <point x="144" y="274" type="line"/>
      <point x="-7" y="429" type="line"/>
      <point x="-34" y="406" type="line"/>
      <point x="121" y="248" type="line"/>
      <point x="-34" y="89" type="line"/>
    </contour>
  </outline>
</glyph>
<glyph name="Thorn" format="1">
  <advance width="588"/>
  <unicode hex="00DE"/>
  <outline>
    <contour>
      <point x="73" y="0" type="line"/>
      <point x="118" y="0" type="line"/>
      <point x="118" y="206" type="line"/>
      <point x="304" y="206" type="line" smooth="yes"/>
      <point x="445" y="206"/>
      <point x="559" y="233"/>
      <point x="559" y="400" type="curve" smooth="yes"/>
      <point x="559" y="574"/>
      <point x="417" y="584"/>
      <point x="310" y="584" type="curve" smooth="yes"/>
      <point x="118" y="584" type="line"/>
      <point x="118" y="740" type="line"/>
      <point x="73" y="740" type="line"/>
    </contour>
    <contour>
      <point x="118" y="245" type="line"/>
      <point x="118" y="546" type="line"/>
      <point x="311" y="546" type="line" smooth="yes"/>
      <point x="426" y="546"/>
      <point x="512" y="529"/>
      <point x="512" y="401" type="curve" smooth="yes"/>
      <point x="512" y="261"/>
      <point x="433" y="245"/>
      <point x="304" y="245" type="curve" smooth="yes"/>
    </contour>
  </outline>
</glyph>
<glyph name="germandbls" format="1">
  <advance width="554"/>
  <unicode hex="00DF"/>
  <outline>
    <contour>
      <point x="207" y="-32" type="line"/>
      <point x="360" y="-32"/>
      <point x="513" y="-24"/>
      <point x="513" y="197" type="curve" smooth="yes"/>
      <point x="513" y="336"/>
      <point x="407" y="404"/>
      <point x="304" y="404" type="curve"/>
      <point x="369" y="413"/>
      <point x="436" y="460"/>
      <point x="436" y="564" type="curve" smooth="yes"/>
      <point x="436" y="723"/>
      <point x="336" y="748"/>
      <point x="250" y="748" type="curve" smooth="yes"/>
      <point x="146" y="748"/>
      <point x="67" y="715"/>
      <point x="67" y="528" type="curve" smooth="yes"/>
      <point x="68" y="0" type="line"/>
      <point x="111" y="0" type="line"/>
      <point x="110" y="528" type="line" smooth="yes"/>
      <point x="110" y="681"/>
      <point x="162" y="708"/>
      <point x="254" y="708" type="curve" smooth="yes"/>
      <point x="369" y="708"/>
      <point x="393" y="646"/>
      <point x="393" y="570" type="curve" smooth="yes"/>
      <point x="393" y="451"/>
      <point x="327" y="419"/>
      <point x="248" y="419" type="curve" smooth="yes"/>
      <point x="178" y="419" type="line"/>
      <point x="178" y="386"/>
      <point x="182" y="388"/>
      <point x="183" y="388" type="curve" smooth="yes"/>
      <point x="257" y="388"/>
      <point x="474" y="386"/>
      <point x="474" y="197" type="curve" smooth="yes"/>
      <point x="474" y="4"/>
      <point x="349" y="0"/>
      <point x="208" y="0" type="curve"/>
    </contour>
  </outline>
</glyph>
<glyph name="ae" format="1">
  <advance width="812"/>
  <unicode hex="00E6"/>
  <outline>
    <contour>
      <point x="414" y="537" type="move" name="top"/>
    </contour>
    <contour>
      <point x="193" y="-10" type="curve" smooth="yes"/>
      <point x="296" y="-10"/>
      <point x="381" y="48"/>
      <point x="396" y="124" type="curve"/>
      <point x="411" y="47"/>
      <point x="496" y="-10"/>
      <point x="601" y="-10" type="curve" smooth="yes"/>
      <point x="668" y="-10"/>
      <point x="741" y="21"/>
      <point x="776" y="53" type="curve"/>
      <point x="759" y="83" type="line"/>
      <point x="717" y="48"/>
      <point x="660" y="26"/>
      <point x="601" y="26" type="curve" smooth="yes"/>
      <point x="446" y="26"/>
      <point x="415" y="134"/>
      <point x="415" y="273" type="curve"/>
      <point x="787" y="273" type="line"/>
      <point x="787" y="273"/>
      <point x="790" y="288"/>
      <point x="790" y="309" type="curve" smooth="yes"/>
      <point x="790" y="432"/>
      <point x="740" y="545"/>
      <point x="598" y="545" type="curve" smooth="yes"/>
      <point x="501" y="545"/>
      <point x="431" y="507"/>
      <point x="397" y="426" type="curve"/>
      <point x="376" y="530"/>
      <point x="302" y="545"/>
      <point x="219" y="545" type="curve" smooth="yes"/>
      <point x="173" y="545"/>
      <point x="99" y="529"/>
      <point x="36" y="495" type="curve"/>
      <point x="50" y="461" type="line"/>
      <point x="94" y="484"/>
      <point x="167" y="509"/>
      <point x="219" y="509" type="curve" smooth="yes"/>
      <point x="349" y="509"/>
      <point x="366" y="443"/>
      <point x="366" y="328" type="curve" smooth="yes"/>
      <point x="366" y="294" type="line"/>
      <point x="320" y="305"/>
      <point x="268" y="312"/>
      <point x="218" y="312" type="curve" smooth="yes"/>
      <point x="108" y="312"/>
      <point x="9" y="276"/>
      <point x="9" y="155" type="curve" smooth="yes"/>
      <point x="9" y="50"/>
      <point x="69" y="-10"/>
    </contour>
    <contour>
      <point x="193" y="26" type="curve" smooth="yes"/>
      <point x="121" y="26"/>
      <point x="53" y="55"/>
      <point x="53" y="151" type="curve" smooth="yes"/>
      <point x="53" y="266"/>
      <point x="151" y="278"/>
      <point x="229" y="278" type="curve" smooth="yes"/>
      <point x="276" y="278"/>
      <point x="321" y="273"/>
      <point x="366" y="265" type="curve"/>
      <point x="366" y="168" type="line"/>
      <point x="357" y="67"/>
      <point x="287" y="26"/>
    </contour>
    <contour>
      <point x="415" y="311" type="line"/>
      <point x="415" y="431"/>
      <point x="476" y="509"/>
      <point x="598" y="509" type="curve" smooth="yes"/>
      <point x="708" y="509"/>
      <point x="749" y="425"/>
      <point x="749" y="311" type="curve"/>
    </contour>
  </outline>
</glyph>
<glyph name="eth" format="1">
  <advance width="483"/>
  <unicode hex="00F0"/>
  <outline>
    <contour>
      <point x="227" y="-8" type="curve" smooth="yes"/>
      <point x="363" y="-8"/>
      <point x="447" y="108"/>
      <point x="447" y="292" type="curve" smooth="yes"/>
      <point x="447" y="444"/>
      <point x="415" y="540"/>
      <point x="335" y="652" type="curve"/>
      <point x="466" y="689" type="line"/>
      <point x="446" y="715" type="line"/>
      <point x="316" y="679" type="line"/>
      <point x="265" y="743"/>
      <point x="225" y="767"/>
      <point x="179" y="793" type="curve"/>
      <point x="157" y="765" type="line"/>
      <point x="204" y="740"/>
      <point x="246" y="706"/>
      <point x="278" y="667" type="curve"/>
      <point x="169" y="637" type="line"/>
      <point x="188" y="610" type="line"/>
      <point x="296" y="641" type="line"/>
      <point x="340" y="594"/>
      <point x="390" y="498"/>
      <point x="399" y="424" type="curve"/>
      <point x="359" y="495"/>
      <point x="320" y="544"/>
      <point x="224" y="544" type="curve" smooth="yes"/>
      <point x="89" y="544"/>
      <point x="4" y="437"/>
      <point x="4" y="266" type="curve" smooth="yes"/>
      <point x="4" y="98"/>
      <point x="90" y="-8"/>
    </contour>
    <contour>
      <point x="227" y="25" type="curve" smooth="yes"/>
      <point x="116" y="25"/>
      <point x="46" y="118"/>
      <point x="46" y="266" type="curve" smooth="yes"/>
      <point x="46" y="416"/>
      <point x="115" y="510"/>
      <point x="224" y="510" type="curve" smooth="yes"/>
      <point x="335" y="510"/>
      <point x="404" y="426"/>
      <point x="404" y="292" type="curve" smooth="yes"/>
      <point x="404" y="127"/>
      <point x="336" y="25"/>
    </contour>
  </outline>
</glyph>
<glyph name="divide" format="1">
  <advance width="340"/>
  <unicode hex="00F7"/>
  <outline>
    <contour>
      <point x="166" y="160" type="curve" smooth="yes"/>
      <point x="182" y="160"/>
      <point x="196" y="175"/>
      <point x="196" y="193" type="curve" smooth="yes"/>
      <point x="196" y="211"/>
      <point x="182" y="227"/>
      <point x="166" y="227" type="curve" smooth="yes"/>
      <point x="148" y="227"/>
      <point x="134" y="211"/>
      <point x="134" y="193" type="curve" smooth="yes"/>
      <point x="134" y="175"/>
      <point x="148" y="160"/>
    </contour>
    <contour>
      <point x="34" y="302" type="line"/>
      <point x="312" y="302" type="line"/>
      <point x="312" y="330" type="line"/>
      <point x="34" y="330" type="line"/>
    </contour>
    <contour>
      <point x="168" y="409" type="curve" smooth="yes"/>
      <point x="184" y="409"/>
      <point x="198" y="424"/>
      <point x="198" y="442" type="curve" smooth="yes"/>
      <point x="198" y="460"/>
      <point x="184" y="475"/>
      <point x="168" y="475" type="curve" smooth="yes"/>
      <point x="150" y="475"/>
      <point x="136" y="460"/>
      <point x="136" y="442" type="curve" smooth="yes"/>
      <point x="136" y="424"/>
      <point x="150" y="409"/>
    </contour>
  </outline>
</glyph>
<glyph name="oslash" format="1">
  <advance width="497"/>
  <unicode hex="00F8"/>
  <outline>
    <contour>
      <point x="242" y="539" type="move" name="top"/>
    </contour>
    <contour>
      <point x="133" y="-97" type="line"/>
      <point x="168" y="0" type="line"/>
      <point x="192" y="-7"/>
      <point x="217" y="-10"/>
      <point x="240" y="-10" type="curve" smooth="yes"/>
      <point x="404" y="-10"/>
      <point x="474" y="125"/>
      <point x="474" y="266" type="curve" smooth="yes"/>
      <point x="474" y="355"/>
      <point x="446" y="466"/>
      <point x="347" y="521" type="curve"/>
      <point x="379" y="615" type="line"/>
      <point x="348" y="627" type="line"/>
      <point x="315" y="534" type="line"/>
      <point x="291" y="542"/>
      <point x="264" y="545"/>
      <point x="240" y="545" type="curve" smooth="yes"/>
      <point x="76" y="545"/>
      <point x="8" y="404"/>
      <point x="8" y="266" type="curve" smooth="yes"/>
      <point x="8" y="179"/>
      <point x="33" y="67"/>
      <point x="133" y="14" type="curve"/>
      <point x="97" y="-85" type="line"/>
    </contour>
    <contour>
      <point x="146" y="47" type="line"/>
      <point x="68" y="91"/>
      <point x="50" y="187"/>
      <point x="50" y="266" type="curve" smooth="yes"/>
      <point x="50" y="364"/>
      <point x="87" y="505"/>
      <point x="240" y="505" type="curve" smooth="yes"/>
      <point x="260" y="505"/>
      <point x="281" y="504"/>
      <point x="301" y="497" type="curve"/>
    </contour>
    <contour>
      <point x="240" y="29" type="curve" smooth="yes"/>
      <point x="221" y="29"/>
      <point x="201" y="30"/>
      <point x="181" y="36" type="curve"/>
      <point x="334" y="487" type="line"/>
      <point x="415" y="438"/>
      <point x="430" y="336"/>
      <point x="430" y="266" type="curve" smooth="yes"/>
      <point x="430" y="167"/>
      <point x="394" y="29"/>
    </contour>
  </outline>
</glyph>
<glyph name="thorn" format="1">
  <advance width="558"/>
  <unicode hex="00FE"/>
  <outline>
    <contour>
      <point x="288" y="537" type="move" name="top"/>
    </contour>
    <contour>
      <point x="68" y="-241" type="line"/>
      <point x="112" y="-231" type="line"/>
      <point x="112" y="69" type="line"/>
      <point x="151" y="17"/>
      <point x="208" y="-10"/>
      <point x="278" y="-10" type="curve" smooth="yes"/>
      <point x="443" y="-10"/>
      <point x="505" y="135"/>
      <point x="505" y="268" type="curve" smooth="yes"/>
      <point x="505" y="409"/>
      <point x="441" y="545"/>
      <point x="284" y="545" type="curve" smooth="yes"/>
      <point x="216" y="545"/>
      <point x="151" y="517"/>
      <point x="111" y="463" type="curve"/>
      <point x="111" y="740" type="line"/>
      <point x="68" y="740" type="line"/>
    </contour>
    <contour>
      <point x="275" y="26" type="curve" smooth="yes"/>
      <point x="208" y="26"/>
      <point x="150" y="56"/>
      <point x="112" y="113" type="curve"/>
      <point x="112" y="418" type="line"/>
      <point x="156" y="482"/>
      <point x="215" y="509"/>
      <point x="285" y="509" type="curve" smooth="yes"/>
      <point x="431" y="509"/>
      <point x="460" y="363"/>
      <point x="460" y="264" type="curve" smooth="yes"/>
      <point x="460" y="157"/>
      <point x="421" y="26"/>
    </contour>
  </outline>
</glyph>
<glyph name="Hbar" format="1">
  <advance width="682"/>
  <unicode hex="0126"/>
  <outline>
    <component base="H"/>
    <contour>
      <point x="15" y="598" type="line"/>
      <point x="664" y="598" type="line"/>
      <point x="664" y="625" type="line"/>
      <point x="15" y="625" type="line"/>
    </contour>
  </outline>
</glyph>
<glyph name="hbar" format="1">
  <advance width="557"/>
  <unicode hex="0127"/>
  <outline>
    <contour>
      <point x="320" y="535" type="move" name="top"/>
    </contour>
    <contour>
      <point x="67" y="0" type="line"/>
      <point x="111" y="0" type="line"/>
      <point x="111" y="411" type="line"/>
      <point x="171" y="471"/>
      <point x="241" y="507"/>
      <point x="312" y="507" type="curve" smooth="yes"/>
      <point x="432" y="507"/>
      <point x="453" y="427"/>
      <point x="453" y="328" type="curve" smooth="yes"/>
      <point x="453" y="0" type="line"/>
      <point x="496" y="0" type="line"/>
      <point x="496" y="333" type="line" smooth="yes"/>
      <point x="496" y="438"/>
      <point x="471" y="543"/>
      <point x="320" y="543" type="curve" smooth="yes"/>
      <point x="239" y="543"/>
      <point x="173" y="511"/>
      <point x="111" y="451" type="curve"/>
      <point x="111" y="634" type="line"/>
      <point x="285" y="634" type="line"/>
      <point x="285" y="665" type="line"/>
      <point x="111" y="665" type="line"/>
      <point x="111" y="732" type="line"/>
      <point x="67" y="721" type="line"/>
      <point x="67" y="665" type="line"/>
      <point x="0" y="665" type="line"/>
      <point x="0" y="634" type="line"/>
      <point x="67" y="634" type="line"/>
    </contour>
  </outline>
</glyph>
<glyph name="dotlessi" format="1">
  <advance width="118"/>
  <unicode hex="0131"/>
  <outline>
    <contour>
      <point x="62" y="535" type="move" name="top"/>
    </contour>
    <contour>
      <point x="63" y="0" type="move" name="ogonek"/>
    </contour>
    <contour>
      <point x="39" y="0" type="line"/>
      <point x="81" y="0" type="line"/>
      <point x="81" y="536" type="line"/>
      <point x="39" y="536" type="line"/>
    </contour>
  </outline>
</glyph>
<glyph name="kgreenlandic" format="1">
  <advance width="529"/>
  <unicode hex="0138"/>
  <outline>
    <contour>
      <point x="54" y="0" type="line"/>
      <point x="102" y="0" type="line"/>
      <point x="102" y="225" type="line"/>
      <point x="160" y="271" type="line"/>
      <point x="415" y="0" type="line"/>
      <point x="471" y="0" type="line"/>
      <point x="186" y="297" type="line"/>
      <point x="448" y="535" type="line"/>
      <point x="389" y="535" type="line"/>
      <point x="102" y="270" type="line"/>
      <point x="102" y="535" type="line"/>
      <point x="54" y="535" type="line"/>
    </contour>
  </outline>
</glyph>
<glyph name="Lslash" format="1">
  <advance width="517"/>
  <unicode hex="0141"/>
  <outline>
    <component base="L"/>
    <contour>
      <point x="-21" y="241" type="line"/>
      <point x="266" y="437" type="line"/>
      <point x="266" y="480" type="line"/>
      <point x="-21" y="285" type="line"/>
    </contour>
  </outline>
</glyph>
<glyph name="Lslash" format="1">
  <advance width="1060"/>
  <unicode hex="0141"/>
  <outline>
    <contour>
      <point x="-44" y="493" type="line"/>
      <point x="544" y="894" type="line"/>
      <point x="544" y="984" type="line"/>
      <point x="-44" y="583" type="line"/>
    </contour>
    <component base="L"/>
  </outline>
</glyph>
<glyph name="lslash" format="1">
  <advance width="207"/>
  <unicode hex="0142"/>
  <outline>
    <component base="l"/>
    <contour>
      <point x="2" y="279" type="line"/>
      <point x="208" y="417" type="line"/>
      <point x="208" y="453" type="line"/>
      <point x="2" y="316" type="line"/>
    </contour>
  </outline>
</glyph>
<glyph name="Eng" format="1">
  <advance width="698"/>
  <unicode hex="014A"/>
  <outline>
    <contour>
      <point x="635" y="725" type="line"/>
      <point x="593" y="725" type="line"/>
      <point x="593" y="116" type="line"/>
      <point x="145" y="725" type="line"/>
      <point x="82" y="725" type="line"/>
      <point x="82" y="0" type="line"/>
      <point x="124" y="0" type="line"/>
      <point x="124" y="686" type="line"/>
      <point x="593" y="46" type="line"/>
      <point x="593" y="-126"/>
      <point x="569" y="-169"/>
      <point x="422" y="-188" type="curve"/>
      <point x="434" y="-224" type="line"/>
      <point x="601" y="-202"/>
      <point x="635" y="-143"/>
      <point x="635" y="46" type="curve" smooth="yes"/>
    </contour>
  </outline>
</glyph>
<glyph name="Eng" format="1">
  <advance width="1431"/>
  <unicode hex="014A"/>
  <outline>
    <contour>
      <point x="1301" y="1485" type="line"/>
      <point x="1215" y="1485" type="line"/>
      <point x="1215" y="237" type="line"/>
      <point x="297" y="1485" type="line"/>
      <point x="168" y="1485" type="line"/>
      <point x="168" y="0" type="line"/>
      <point x="254" y="0" type="line"/>
      <point x="254" y="1405" type="line"/>
      <point x="1215" y="94" type="line" smooth="yes"/>
      <point x="1215" y="-258"/>
      <point x="1166" y="-347"/>
      <point x="865" y="-385" type="curve"/>
      <point x="889" y="-459" type="line"/>
      <point x="1230" y="-413"/>
      <point x="1301" y="-294"/>
      <point x="1301" y="94" type="curve" smooth="yes"/>
    </contour>
  </outline>
</glyph>
<glyph name="eng" format="1">
  <advance width="559"/>
  <unicode hex="014B"/>
  <outline>
    <contour>
      <point x="127" y="449" type="curve"/>
      <point x="119" y="536" type="line"/>
      <point x="87" y="536" type="line"/>
      <point x="87" y="0" type="line"/>
      <point x="130" y="0" type="line"/>
      <point x="130" y="412" type="line"/>
      <point x="190" y="472"/>
      <point x="262" y="509"/>
      <point x="333" y="509" type="curve" smooth="yes"/>
      <point x="453" y="509"/>
      <point x="473" y="429"/>
      <point x="473" y="330" type="curve" smooth="yes"/>
      <point x="473" y="37" type="line" smooth="yes"/>
      <point x="473" y="-103"/>
      <point x="459" y="-128"/>
      <point x="335" y="-147" type="curve"/>
      <point x="347" y="-183" type="line"/>
      <point x="491" y="-161"/>
      <point x="516" y="-121"/>
      <point x="516" y="37" type="curve" smooth="yes"/>
      <point x="516" y="334" type="line" smooth="yes"/>
      <point x="516" y="439"/>
      <point x="491" y="545"/>
      <point x="340" y="545" type="curve" smooth="yes"/>
      <point x="257" y="545"/>
      <point x="190" y="511"/>
    </contour>
  </outline>
</glyph>
<glyph name="OE" format="1">
  <advance width="1012"/>
  <unicode hex="0152"/>
  <outline>
    <contour>
      <point x="790" y="740" type="move" name="top"/>
    </contour>
    <contour>
      <point x="866" y="0" type="move" name="ogonek"/>
    </contour>
    <contour>
      <point x="779" y="0" type="move" name="bot"/>
    </contour>
    <contour>
      <point x="332" y="-8" type="curve" smooth="yes"/>
      <point x="461" y="-8"/>
      <point x="533" y="60"/>
      <point x="571" y="166" type="curve"/>
      <point x="571" y="0" type="line"/>
      <point x="984" y="0" type="line"/>
      <point x="984" y="39" type="line"/>
      <point x="615" y="39" type="line"/>
      <point x="615" y="369" type="line"/>
      <point x="932" y="369" type="line"/>
      <point x="932" y="408" type="line"/>
      <point x="615" y="408" type="line"/>
      <point x="615" y="702" type="line"/>
      <point x="990" y="702" type="line"/>
      <point x="990" y="740" type="line"/>
      <point x="571" y="740" type="line"/>
      <point x="571" y="574" type="line"/>
      <point x="538" y="684"/>
      <point x="461" y="748"/>
      <point x="332" y="748" type="curve" smooth="yes"/>
      <point x="111" y="748"/>
      <point x="47" y="552"/>
      <point x="47" y="370" type="curve" smooth="yes"/>
      <point x="47" y="189"/>
      <point x="111" y="-8"/>
    </contour>
    <contour>
      <point x="332" y="30" type="curve" smooth="yes"/>
      <point x="137" y="30"/>
      <point x="94" y="217"/>
      <point x="94" y="370" type="curve" smooth="yes"/>
      <point x="94" y="524"/>
      <point x="137" y="709"/>
      <point x="332" y="709" type="curve" smooth="yes"/>
      <point x="527" y="709"/>
      <point x="571" y="537"/>
      <point x="571" y="370" type="curve" smooth="yes"/>
      <point x="571" y="199"/>
      <point x="527" y="30"/>
    </contour>
  </outline>
</glyph>
<glyph name="oe" format="1">
  <advance width="964"/>
  <unicode hex="0153"/>
  <outline>
    <contour>
      <point x="289" y="-8" type="curve" smooth="yes"/>
      <point x="401" y="-8"/>
      <point x="475" y="53"/>
      <point x="502" y="153" type="curve"/>
      <point x="533" y="50"/>
      <point x="611" y="-8"/>
      <point x="726" y="-8" type="curve" smooth="yes"/>
      <point x="779" y="-8"/>
      <point x="857" y="14"/>
      <point x="901" y="55" type="curve"/>
      <point x="885" y="85" type="line"/>
      <point x="846" y="52"/>
      <point x="788" y="28"/>
      <point x="728" y="28" type="curve" smooth="yes"/>
      <point x="582" y="28"/>
      <point x="523" y="137"/>
      <point x="523" y="272" type="curve"/>
      <point x="911" y="272" type="line"/>
      <point x="911" y="272"/>
      <point x="917" y="291"/>
      <point x="917" y="317" type="curve" smooth="yes"/>
      <point x="917" y="436"/>
      <point x="855" y="543"/>
      <point x="719" y="543" type="curve" smooth="yes"/>
      <point x="608" y="543"/>
      <point x="529" y="484"/>
      <point x="500" y="383" type="curve"/>
      <point x="472" y="481"/>
      <point x="399" y="543"/>
      <point x="289" y="543" type="curve" smooth="yes"/>
      <point x="126" y="543"/>
      <point x="54" y="408"/>
      <point x="54" y="266" type="curve" smooth="yes"/>
      <point x="54" y="122"/>
      <point x="127" y="-8"/>
    </contour>
    <contour>
      <point x="289" y="28" type="curve" smooth="yes"/>
      <point x="150" y="28"/>
      <point x="99" y="144"/>
      <point x="99" y="266" type="curve" smooth="yes"/>
      <point x="99" y="368"/>
      <point x="139" y="507"/>
      <point x="289" y="507" type="curve" smooth="yes"/>
      <point x="441" y="507"/>
      <point x="479" y="368"/>
      <point x="479" y="266" type="curve" smooth="yes"/>
      <point x="479" y="144"/>
      <point x="430" y="28"/>
    </contour>
    <contour>
      <point x="525" y="306" type="line"/>
      <point x="533" y="412"/>
      <point x="586" y="507"/>
      <point x="720" y="507" type="curve" smooth="yes"/>
      <point x="832" y="507"/>
      <point x="875" y="420"/>
      <point x="875" y="306" type="curve"/>
    </contour>
  </outline>
</glyph>
<glyph name="florin" format="1">
  <advance width="451"/>
  <unicode hex="0192"/>
  <outline>
    <contour>
      <point x="123" y="0" type="line"/>
      <point x="164" y="0" type="line"/>
      <point x="218" y="411" type="line"/>
      <point x="367" y="411" type="line"/>
      <point x="369" y="441" type="line"/>
      <point x="221" y="441" type="line"/>
      <point x="252" y="674"/>
      <point x="276" y="715"/>
      <point x="327" y="715" type="curve" smooth="yes"/>
      <point x="349" y="715"/>
      <point x="377" y="708"/>
      <point x="411" y="695" type="curve"/>
      <point x="420" y="722" type="line"/>
      <point x="381" y="738"/>
      <point x="347" y="748"/>
      <point x="318" y="748" type="curve" smooth="yes"/>
      <point x="255" y="748"/>
      <point x="214" y="700"/>
      <point x="180" y="441" type="curve"/>
      <point x="97" y="441" type="line"/>
      <point x="95" y="411" type="line"/>
      <point x="177" y="411" type="line"/>
    </contour>
  </outline>
</glyph>
<glyph name="uni0237" format="1">
  <advance width="245"/>
  <unicode hex="0237"/>
  <outline>
    <contour>
      <point x="173" y="536" type="move" name="top"/>
    </contour>
    <contour>
      <point x="73" y="-176" type="line"/>
      <point x="181" y="-149"/>
      <point x="195" y="-26"/>
      <point x="195" y="59" type="curve" smooth="yes"/>
      <point x="195" y="536" type="line"/>
      <point x="148" y="536" type="line"/>
      <point x="148" y="26" type="line" smooth="yes"/>
      <point x="148" y="-44"/>
      <point x="142" y="-103"/>
      <point x="67" y="-153" type="curve"/>
    </contour>
  </outline>
</glyph>
<glyph name="circumflex" format="1">
  <advance width="313"/>
  <unicode hex="02C6"/>
  <outline>
    <contour>
      <point x="160" y="535" type="move" name="_top"/>
    </contour>
    <contour>
      <point x="31" y="625" type="line"/>
      <point x="65" y="625" type="line"/>
      <point x="157" y="730" type="line"/>
      <point x="249" y="625" type="line"/>
      <point x="283" y="625" type="line"/>
      <point x="168" y="764" type="line"/>
      <point x="145" y="764" type="line"/>
    </contour>
  </outline>
</glyph>
<glyph name="caron" format="1">
  <advance width="313"/>
  <unicode hex="02C7"/>
  <outline>
    <contour>
      <point x="160" y="535" type="move" name="_top"/>
    </contour>
    <contour>
      <point x="145" y="616" type="line"/>
      <point x="168" y="616" type="line"/>
      <point x="283" y="755" type="line"/>
      <point x="249" y="755" type="line"/>
      <point x="157" y="650" type="line"/>
      <point x="65" y="755" type="line"/>
      <point x="31" y="755" type="line"/>
    </contour>
  </outline>
</glyph>
<glyph name="uni02C9" format="1">
  <advance width="424"/>
  <unicode hex="02C9"/>
  <outline>
    <contour>
      <point x="212" y="535" type="move" name="_top"/>
    </contour>
    <contour>
      <point x="208" y="648" type="move" name="_mid"/>
    </contour>
    <contour>
      <point x="83" y="643" type="line"/>
      <point x="331" y="643" type="line"/>
      <point x="331" y="675" type="line"/>
      <point x="83" y="675" type="line"/>
    </contour>
  </outline>
</glyph>
<glyph name="breve" format="1">
  <advance width="237"/>
  <unicode hex="02D8"/>
  <outline>
    <contour>
      <point x="120" y="535" type="move" name="_top"/>
    </contour>
    <contour>
      <point x="120" y="606" type="curve" smooth="yes"/>
      <point x="178" y="606"/>
      <point x="213" y="644"/>
      <point x="213" y="704" type="curve"/>
      <point x="180" y="704" type="line"/>
      <point x="180" y="665"/>
      <point x="157" y="640"/>
      <point x="118" y="640" type="curve" smooth="yes"/>
      <point x="77" y="640"/>
      <point x="53" y="665"/>
      <point x="53" y="704" type="curve"/>
      <point x="19" y="704" type="line"/>
      <point x="19" y="644"/>
      <point x="58" y="606"/>
    </contour>
  </outline>
</glyph>
<glyph name="dotaccent" format="1">
  <advance width="179"/>
  <unicode hex="02D9"/>
  <outline>
    <contour>
      <point x="95" y="535" type="move" name="_top"/>
    </contour>
    <contour>
      <point x="90" y="625" type="curve" smooth="yes"/>
      <point x="106" y="625"/>
      <point x="115" y="637"/>
      <point x="115" y="656" type="curve" smooth="yes"/>
      <point x="115" y="675"/>
      <point x="106" y="686"/>
      <point x="90" y="686" type="curve" smooth="yes"/>
      <point x="72" y="686"/>
      <point x="62" y="675"/>
      <point x="62" y="656" type="curve" smooth="yes"/>
      <point x="62" y="637"/>
      <point x="72" y="625"/>
    </contour>
  </outline>
</glyph>
<glyph name="ring" format="1">
  <advance width="175"/>
  <unicode hex="02DA"/>
  <outline>
    <contour>
      <point x="88" y="535" type="move" name="_top"/>
    </contour>
    <contour>
      <point x="88" y="697" type="move" name="top"/>
    </contour>
    <contour>
      <point x="88" y="622" type="curve" smooth="yes"/>
      <point x="54" y="622"/>
      <point x="32" y="645"/>
      <point x="32" y="680" type="curve" smooth="yes"/>
      <point x="32" y="715"/>
      <point x="54" y="737"/>
      <point x="88" y="737" type="curve" smooth="yes"/>
      <point x="122" y="737"/>
      <point x="144" y="715"/>
      <point x="144" y="680" type="curve" smooth="yes"/>
      <point x="144" y="645"/>
      <point x="122" y="622"/>
    </contour>
    <contour>
      <point x="88" y="599" type="curve" smooth="yes"/>
      <point x="139" y="599"/>
      <point x="171" y="630"/>
      <point x="171" y="680" type="curve" smooth="yes"/>
      <point x="171" y="730"/>
      <point x="139" y="761"/>
      <point x="88" y="761" type="curve" smooth="yes"/>
      <point x="37" y="761"/>
      <point x="5" y="730"/>
      <point x="5" y="680" type="curve" smooth="yes"/>
      <point x="5" y="630"/>
      <point x="37" y="599"/>
    </contour>
  </outline>
</glyph>
<glyph name="ogonek" format="1">
  <advance width="214"/>
  <unicode hex="02DB"/>
  <outline>
    <contour>
      <point x="154" y="0" type="move" name="_ogonek"/>
    </contour>
    <contour>
      <point x="158" y="-195" type="curve" smooth="yes"/>
      <point x="173" y="-195"/>
      <point x="188" y="-194"/>
      <point x="203" y="-192" type="curve"/>
      <point x="203" y="-160" type="line"/>
      <point x="188" y="-162"/>
      <point x="175" y="-163"/>
      <point x="162" y="-163" type="curve" smooth="yes"/>
      <point x="127" y="-163"/>
      <point x="102" y="-153"/>
      <point x="102" y="-114" type="curve" smooth="yes"/>
      <point x="102" y="-68"/>
      <point x="135" y="-36"/>
      <point x="161" y="0" type="curve"/>
      <point x="139" y="0" type="line"/>
      <point x="94" y="-42"/>
      <point x="63" y="-87"/>
      <point x="63" y="-124" type="curve" smooth="yes"/>
      <point x="63" y="-180"/>
      <point x="109" y="-195"/>
    </contour>
  </outline>
</glyph>
<glyph name="tilde" format="1">
  <advance width="381"/>
  <unicode hex="02DC"/>
  <outline>
    <contour>
      <point x="189" y="535" type="move" name="_top"/>
    </contour>
    <contour>
      <point x="45" y="646" type="curve"/>
      <point x="68" y="646" type="line"/>
      <point x="68" y="679"/>
      <point x="82" y="690"/>
      <point x="104" y="690" type="curve" smooth="yes"/>
      <point x="133" y="690"/>
      <point x="178" y="670"/>
      <point x="229" y="654" type="curve" smooth="yes"/>
      <point x="288" y="635"/>
      <point x="317" y="655"/>
      <point x="317" y="727" type="curve"/>
      <point x="294" y="727" type="line"/>
      <point x="294" y="694"/>
      <point x="281" y="683"/>
      <point x="259" y="683" type="curve" smooth="yes"/>
      <point x="230" y="683"/>
      <point x="185" y="702"/>
      <point x="134" y="718" type="curve" smooth="yes"/>
      <point x="75" y="737"/>
      <point x="45" y="718"/>
    </contour>
  </outline>
</glyph>
<glyph name="hungarumlaut" format="1">
  <advance width="323"/>
  <unicode hex="02DD"/>
  <outline>
    <contour>
      <point x="76" y="535" type="move" name="_top"/>
    </contour>
    <contour>
      <point x="12" y="596" type="line"/>
      <point x="164" y="738" type="line"/>
      <point x="136" y="765" type="line"/>
      <point x="-1" y="608" type="line"/>
    </contour>
    <contour>
      <point x="167" y="596" type="line"/>
      <point x="319" y="738" type="line"/>
      <point x="291" y="765" type="line"/>
      <point x="154" y="608" type="line"/>
    </contour>
  </outline>
</glyph>
<glyph name="uni030F" format="1">
  <advance width="365"/>
  <unicode hex="030F"/>
  <outline>
    <contour>
      <point x="260" y="535" type="move" name="_top"/>
    </contour>
    <contour>
      <point x="168" y="596" type="line"/>
      <point x="182" y="608" type="line"/>
      <point x="45" y="765" type="line"/>
      <point x="17" y="738" type="line"/>
    </contour>
    <contour>
      <point x="324" y="596" type="line"/>
      <point x="337" y="608" type="line"/>
      <point x="200" y="765" type="line"/>
      <point x="172" y="738" type="line"/>
    </contour>
  </outline>
</glyph>
<glyph name="uni0311" format="1">
  <advance width="237"/>
  <unicode hex="0311"/>
  <outline>
    <contour>
      <point x="120" y="535" type="move" name="_top"/>
    </contour>
    <contour>
      <point x="19" y="612" type="curve"/>
      <point x="53" y="612" type="line"/>
      <point x="53" y="656"/>
      <point x="72" y="676"/>
      <point x="118" y="676" type="curve" smooth="yes"/>
      <point x="160" y="676"/>
      <point x="180" y="656"/>
      <point x="180" y="612" type="curve"/>
      <point x="213" y="612" type="line"/>
      <point x="213" y="680"/>
      <point x="184" y="709"/>
      <point x="120" y="709" type="curve" smooth="yes"/>
      <point x="51" y="709"/>
      <point x="19" y="680"/>
    </contour>
  </outline>
</glyph>
<glyph name="uni0326" format="1">
  <advance width="188"/>
  <unicode hex="0326"/>
  <outline>
    <contour>
      <point x="94" y="0" type="move" name="_bot"/>
    </contour>
    <contour>
      <point x="53" y="-285" type="line"/>
      <point x="92" y="-273"/>
      <point x="113" y="-239"/>
      <point x="113" y="-180" type="curve" smooth="yes"/>
      <point x="113" y="-79" type="line"/>
      <point x="79" y="-79" type="line"/>
      <point x="79" y="-183" type="line"/>
      <point x="95" y="-183" type="line"/>
      <point x="95" y="-231"/>
      <point x="81" y="-261"/>
      <point x="48" y="-272" type="curve"/>
    </contour>
  </outline>
</glyph>
<glyph name="uni0358" format="1">
  <advance width="179"/>
  <unicode hex="0358"/>
  <outline>
    <contour>
      <point x="90" y="535" type="move" name="_top"/>
    </contour>
    <contour>
      <point x="90" y="671" type="curve" smooth="yes"/>
      <point x="107" y="671"/>
      <point x="118" y="684"/>
      <point x="118" y="705" type="curve" smooth="yes"/>
      <point x="118" y="726"/>
      <point x="107" y="738"/>
      <point x="90" y="738" type="curve" smooth="yes"/>
      <point x="71" y="738"/>
      <point x="59" y="726"/>
      <point x="59" y="705" type="curve" smooth="yes"/>
      <point x="59" y="684"/>
      <point x="71" y="671"/>
    </contour>
  </outline>
</glyph>
<glyph name="uni0394" format="1">
  <advance width="618"/>
  <unicode hex="0394"/>
  <outline>
    <contour>
      <point x="22" y="0" type="line"/>
      <point x="597" y="0" type="line"/>
      <point x="334" y="740" type="line"/>
      <point x="280" y="740" type="line"/>
    </contour>
    <contour>
      <point x="83" y="40" type="line"/>
      <point x="308" y="707" type="line"/>
      <point x="538" y="40" type="line"/>
    </contour>
  </outline>
</glyph>
<glyph name="Sigma" format="1">
  <advance width="605"/>
  <unicode hex="03A3"/>
  <outline>
    <contour>
      <point x="51" y="0" type="line"/>
      <point x="549" y="0" type="line"/>
      <point x="549" y="36" type="line"/>
      <point x="101" y="36" type="line"/>
      <point x="458" y="362" type="line"/>
      <point x="458" y="385" type="line"/>
      <point x="99" y="701" type="line"/>
      <point x="544" y="701" type="line"/>
      <point x="544" y="740" type="line"/>
      <point x="51" y="740" type="line"/>
      <point x="51" y="696" type="line"/>
      <point x="411" y="373" type="line"/>
      <point x="51" y="40" type="line"/>
    </contour>
  </outline>
</glyph>
<glyph name="Sigma" format="1">
  <advance width="1241"/>
  <unicode hex="03A3"/>
  <outline>
    <contour>
      <point x="105" y="0" type="line"/>
      <point x="1124" y="0" type="line"/>
      <point x="1124" y="74" type="line"/>
      <point x="207" y="74" type="line"/>
      <point x="937" y="741" type="line"/>
      <point x="937" y="789" type="line"/>
      <point x="202" y="1436" type="line"/>
      <point x="1114" y="1436" type="line"/>
      <point x="1114" y="1515" type="line"/>
      <point x="105" y="1515" type="line"/>
      <point x="105" y="1426" type="line"/>
      <point x="842" y="763" type="line"/>
      <point x="105" y="81" type="line"/>
    </contour>
  </outline>
</glyph>
<glyph name="uni03BC" format="1">
  <advance width="529"/>
  <unicode hex="03BC"/>
  <outline>
    <contour>
      <point x="109" y="-123" type="line"/>
      <point x="108" y="42" type="line"/>
      <point x="135" y="11"/>
      <point x="178" y="-8"/>
      <point x="244" y="-8" type="curve" smooth="yes"/>
      <point x="327" y="-8"/>
      <point x="402" y="26"/>
      <point x="451" y="93" type="curve"/>
      <point x="459" y="0" type="line"/>
      <point x="492" y="0" type="line"/>
      <point x="492" y="535" type="line"/>
      <point x="447" y="535" type="line"/>
      <point x="447" y="132" type="line"/>
      <point x="392" y="59"/>
      <point x="329" y="28"/>
      <point x="244" y="28" type="curve" smooth="yes"/>
      <point x="133" y="28"/>
      <point x="110" y="98"/>
      <point x="108" y="187" type="curve"/>
      <point x="108" y="535" type="line"/>
      <point x="63" y="535" type="line"/>
      <point x="63" y="-131" type="line"/>
    </contour>
  </outline>
</glyph>
<glyph name="pi" format="1">
  <advance width="801"/>
  <unicode hex="03C0"/>
  <outline>
    <contour>
      <point x="588" y="-3" type="curve" smooth="yes"/>
      <point x="607" y="-3"/>
      <point x="634" y="-1"/>
      <point x="658" y="7" type="curve"/>
      <point x="658" y="32" type="line"/>
      <point x="639" y="26"/>
      <point x="619" y="22"/>
      <point x="604" y="22" type="curve" smooth="yes"/>
      <point x="536" y="22"/>
      <point x="524" y="65"/>
      <point x="524" y="174" type="curve" smooth="yes"/>
      <point x="524" y="267"/>
      <point x="535" y="350"/>
      <point x="554" y="499" type="curve"/>
      <point x="680" y="499" type="line"/>
      <point x="680" y="535" type="line"/>
      <point x="258" y="535" type="line" smooth="yes"/>
      <point x="154" y="535"/>
      <point x="121" y="506"/>
      <point x="118" y="423" type="curve"/>
      <point x="141" y="423" type="line"/>
      <point x="151" y="469"/>
      <point x="176" y="499"/>
      <point x="219" y="499" type="curve" smooth="yes"/>
      <point x="300" y="499" type="line"/>
      <point x="239" y="168" type="line" smooth="yes"/>
      <point x="216" y="45"/>
      <point x="189" y="27"/>
      <point x="101" y="23" type="curve"/>
      <point x="101" y="0" type="line"/>
      <point x="236" y="2"/>
      <point x="263" y="58"/>
      <point x="278" y="163" type="curve" smooth="yes"/>
      <point x="327" y="499" type="line"/>
      <point x="521" y="499" type="line"/>
      <point x="506" y="361"/>
      <point x="488" y="240"/>
      <point x="488" y="157" type="curve" smooth="yes"/>
      <point x="488" y="51"/>
      <point x="514" y="-3"/>
    </contour>
  </outline>
</glyph>
<glyph name="endash" format="1">
  <advance width="251"/>
  <unicode hex="2013"/>
  <outline>
    <contour>
      <point x="48" y="249" type="line"/>
      <point x="207" y="249" type="line"/>
      <point x="207" y="286" type="line"/>
      <point x="48" y="286" type="line"/>
    </contour>
  </outline>
</glyph>
<glyph name="emdash" format="1">
  <advance width="330"/>
  <unicode hex="2014"/>
  <outline>
    <contour>
      <point x="48" y="249" type="line"/>
      <point x="286" y="249" type="line"/>
      <point x="286" y="286" type="line"/>
      <point x="48" y="286" type="line"/>
    </contour>
  </outline>
</glyph>
<glyph name="quoteleft" format="1">
  <advance width="201"/>
  <unicode hex="2018"/>
  <outline>
    <contour>
      <point x="77" y="548" type="line"/>
      <point x="128" y="548" type="line"/>
      <point x="128" y="634" type="line"/>
      <point x="98" y="634" type="line"/>
      <point x="98" y="700"/>
      <point x="102" y="725"/>
      <point x="140" y="740" type="curve"/>
      <point x="133" y="755" type="line"/>
      <point x="81" y="740"/>
      <point x="77" y="699"/>
      <point x="77" y="657" type="curve" smooth="yes"/>
    </contour>
  </outline>
</glyph>
<glyph name="quoteright" format="1">
  <advance width="233"/>
  <unicode hex="2019"/>
  <outline>
    <contour>
      <point x="88" y="533" type="line"/>
      <point x="140" y="548"/>
      <point x="144" y="589"/>
      <point x="144" y="631" type="curve" smooth="yes"/>
      <point x="144" y="740" type="line"/>
      <point x="93" y="740" type="line"/>
      <point x="93" y="654" type="line"/>
      <point x="123" y="654" type="line"/>
      <point x="123" y="588"/>
      <point x="120" y="563"/>
      <point x="82" y="548" type="curve"/>
    </contour>
  </outline>
</glyph>
<glyph name="quotesinglbase" format="1">
  <advance width="201"/>
  <unicode hex="201A"/>
  <outline>
    <contour>
      <point x="81" y="-107" type="line"/>
      <point x="134" y="-92"/>
      <point x="137" y="-50"/>
      <point x="137" y="-7" type="curve" smooth="yes"/>
      <point x="137" y="100" type="line"/>
      <point x="85" y="100" type="line"/>
      <point x="85" y="14" type="line"/>
      <point x="116" y="14" type="line"/>
      <point x="116" y="-52"/>
      <point x="112" y="-77"/>
      <point x="74" y="-92" type="curve"/>
    </contour>
  </outline>
</glyph>
<glyph name="quotedblleft" format="1">
  <advance width="337"/>
  <unicode hex="201C"/>
  <outline>
    <contour>
      <point x="82" y="548" type="line"/>
      <point x="133" y="548" type="line"/>
      <point x="133" y="634" type="line"/>
      <point x="103" y="634" type="line"/>
      <point x="103" y="700"/>
      <point x="106" y="725"/>
      <point x="144" y="740" type="curve"/>
      <point x="137" y="755" type="line"/>
      <point x="85" y="740"/>
      <point x="82" y="699"/>
      <point x="82" y="657" type="curve" smooth="yes"/>
    </contour>
    <contour>
      <point x="201" y="548" type="line"/>
      <point x="252" y="548" type="line"/>
      <point x="252" y="634" type="line"/>
      <point x="222" y="634" type="line"/>
      <point x="222" y="700"/>
      <point x="225" y="725"/>
      <point x="263" y="740" type="curve"/>
      <point x="256" y="755" type="line"/>
      <point x="204" y="740"/>
      <point x="201" y="699"/>
      <point x="201" y="657" type="curve" smooth="yes"/>
    </contour>
  </outline>
</glyph>
<glyph name="quotedblright" format="1">
  <advance width="378"/>
  <unicode hex="201D"/>
  <outline>
    <contour>
      <point x="98" y="533" type="line"/>
      <point x="150" y="548"/>
      <point x="153" y="589"/>
      <point x="153" y="631" type="curve" smooth="yes"/>
      <point x="153" y="740" type="line"/>
      <point x="102" y="740" type="line"/>
      <point x="102" y="654" type="line"/>
      <point x="132" y="654" type="line"/>
      <point x="132" y="588"/>
      <point x="129" y="563"/>
      <point x="91" y="548" type="curve"/>
    </contour>
    <contour>
      <point x="217" y="533" type="line"/>
      <point x="269" y="548"/>
      <point x="272" y="589"/>
      <point x="272" y="631" type="curve" smooth="yes"/>
      <point x="272" y="740" type="line"/>
      <point x="221" y="740" type="line"/>
      <point x="221" y="654" type="line"/>
      <point x="251" y="654" type="line"/>
      <point x="251" y="588"/>
      <point x="248" y="563"/>
      <point x="210" y="548" type="curve"/>
    </contour>
  </outline>
</glyph>
<glyph name="quotedblbase" format="1">
  <advance width="345"/>
  <unicode hex="201E"/>
  <outline>
    <contour>
      <point x="77" y="-107" type="line"/>
      <point x="129" y="-92"/>
      <point x="133" y="-51"/>
      <point x="133" y="-9" type="curve" smooth="yes"/>
      <point x="133" y="100" type="line"/>
      <point x="82" y="100" type="line"/>
      <point x="82" y="14" type="line"/>
      <point x="112" y="14" type="line"/>
      <point x="112" y="-52"/>
      <point x="108" y="-77"/>
      <point x="70" y="-92" type="curve"/>
    </contour>
    <contour>
      <point x="196" y="-107" type="line"/>
      <point x="248" y="-92"/>
      <point x="252" y="-51"/>
      <point x="252" y="-9" type="curve" smooth="yes"/>
      <point x="252" y="100" type="line"/>
      <point x="201" y="100" type="line"/>
      <point x="201" y="14" type="line"/>
      <point x="231" y="14" type="line"/>
      <point x="231" y="-52"/>
      <point x="227" y="-77"/>
      <point x="189" y="-92" type="curve"/>
    </contour>
  </outline>
</glyph>
<glyph name="dagger" format="1">
  <advance width="503"/>
  <unicode hex="2020"/>
  <outline>
    <contour>
      <point x="214" y="-91" type="line"/>
      <point x="252" y="-91" type="line"/>
      <point x="252" y="477" type="line"/>
      <point x="384" y="477" type="line"/>
      <point x="384" y="510" type="line"/>
      <point x="254" y="510" type="line"/>
      <point x="254" y="740" type="line"/>
      <point x="214" y="740" type="line"/>
      <point x="214" y="510" type="line"/>
      <point x="83" y="510" type="line"/>
      <point x="83" y="477" type="line"/>
      <point x="214" y="477" type="line"/>
    </contour>
  </outline>
</glyph>
<glyph name="daggerdbl" format="1">
  <advance width="466"/>
  <unicode hex="2021"/>
  <outline>
    <contour>
      <point x="214" y="-91" type="line"/>
      <point x="252" y="-91" type="line"/>
      <point x="252" y="123" type="line"/>
      <point x="384" y="123" type="line"/>
      <point x="384" y="155" type="line"/>
      <point x="252" y="155" type="line"/>
      <point x="252" y="477" type="line"/>
      <point x="384" y="477" type="line"/>
      <point x="384" y="510" type="line"/>
      <point x="254" y="510" type="line"/>
      <point x="254" y="740" type="line"/>
      <point x="214" y="740" type="line"/>
      <point x="214" y="510" type="line"/>
      <point x="83" y="510" type="line"/>
      <point x="83" y="477" type="line"/>
      <point x="214" y="477" type="line"/>
      <point x="214" y="155" type="line"/>
      <point x="83" y="155" type="line"/>
      <point x="83" y="123" type="line"/>
      <point x="214" y="123" type="line"/>
    </contour>
  </outline>
</glyph>
<glyph name="bullet" format="1">
  <advance width="350"/>
  <unicode hex="2022"/>
  <outline>
    <contour>
      <point x="174" y="173" type="curve" smooth="yes"/>
      <point x="254" y="173"/>
      <point x="324" y="228"/>
      <point x="324" y="319" type="curve" smooth="yes"/>
      <point x="324" y="402"/>
      <point x="258" y="465"/>
      <point x="176" y="465" type="curve" smooth="yes"/>
      <point x="94" y="465"/>
      <point x="26" y="406"/>
      <point x="26" y="319" type="curve" smooth="yes"/>
      <point x="26" y="237"/>
      <point x="91" y="173"/>
    </contour>
  </outline>
</glyph>
<glyph name="perthousand" format="1">
  <advance width="1213"/>
  <unicode hex="2030"/>
  <outline>
    <component base="percent"/>
    <contour>
      <point x="1013" y="31" type="curve" smooth="yes"/>
      <point x="954" y="31"/>
      <point x="917" y="87"/>
      <point x="917" y="176" type="curve" smooth="yes"/>
      <point x="917" y="270"/>
      <point x="954" y="329"/>
      <point x="1013" y="329" type="curve" smooth="yes"/>
      <point x="1072" y="329"/>
      <point x="1108" y="270"/>
      <point x="1108" y="176" type="curve" smooth="yes"/>
      <point x="1108" y="87"/>
      <point x="1072" y="31"/>
    </contour>
    <contour>
      <point x="1013" y="-8" type="curve" smooth="yes"/>
      <point x="1099" y="-8"/>
      <point x="1153" y="63"/>
      <point x="1153" y="176" type="curve" smooth="yes"/>
      <point x="1153" y="292"/>
      <point x="1099" y="365"/>
      <point x="1013" y="365" type="curve" smooth="yes"/>
      <point x="927" y="365"/>
      <point x="872" y="292"/>
      <point x="872" y="176" type="curve" smooth="yes"/>
      <point x="872" y="63"/>
      <point x="927" y="-8"/>
    </contour>
  </outline>
</glyph>
<glyph name="guilsinglleft" format="1">
  <advance width="298"/>
  <unicode hex="2039"/>
  <outline>
    <contour>
      <point x="268" y="125" type="line"/>
      <point x="268" y="165" type="line"/>
      <point x="78" y="306" type="line"/>
      <point x="268" y="448" type="line"/>
      <point x="268" y="483" type="line"/>
      <point x="47" y="321" type="line"/>
      <point x="47" y="291" type="line"/>
    </contour>
  </outline>
</glyph>
<glyph name="guilsinglright" format="1">
  <advance width="298"/>
  <unicode hex="203A"/>
  <outline>
    <contour>
      <point x="47" y="125" type="line"/>
      <point x="268" y="291" type="line"/>
      <point x="268" y="321" type="line"/>
      <point x="47" y="483" type="line"/>
      <point x="47" y="448" type="line"/>
      <point x="238" y="306" type="line"/>
      <point x="47" y="165" type="line"/>
    </contour>
  </outline>
</glyph>
<glyph name="uni203E" format="1">
  <advance width="423"/>
  <unicode hex="203E"/>
  <outline>
    <contour>
      <point x="56" y="56" type="line"/>
      <point x="368" y="56" type="line"/>
      <point x="368" y="109" type="line"/>
      <point x="56" y="109" type="line"/>
    </contour>
  </outline>
</glyph>
<glyph name="fraction" format="1">
  <advance width="381"/>
  <unicode hex="2044"/>
  <outline>
    <contour>
      <point x="35" y="-8" type="line"/>
      <point x="382" y="748" type="line"/>
      <point x="346" y="748" type="line"/>
      <point x="0" y="-8" type="line"/>
    </contour>
  </outline>
</glyph>
<glyph name="uni2074" format="1">
  <advance width="579"/>
  <unicode hex="2074"/>
  <outline>
    <contour>
      <point x="354" y="281" type="line"/>
      <point x="390" y="281" type="line"/>
      <point x="390" y="403" type="line"/>
      <point x="465" y="403" type="line"/>
      <point x="465" y="435" type="line"/>
      <point x="390" y="435" type="line"/>
      <point x="390" y="812" type="line"/>
      <point x="352" y="821" type="line"/>
      <point x="88" y="431" type="line"/>
      <point x="96" y="403" type="line"/>
      <point x="354" y="403" type="line"/>
    </contour>
    <contour>
      <point x="131" y="434" type="line"/>
      <point x="354" y="767" type="line"/>
      <point x="354" y="434" type="line"/>
    </contour>
  </outline>
</glyph>
<glyph name="Euro" format="1">
  <advance width="578"/>
  <unicode hex="20AC"/>
  <outline>
    <component base="C"/>
    <contour>
      <point x="-52" y="286" type="line"/>
      <point x="347" y="286" type="line"/>
      <point x="347" y="316" type="line"/>
      <point x="83" y="316" type="line"/>
      <point x="83" y="430" type="line"/>
      <point x="347" y="430" type="line"/>
      <point x="347" y="460" type="line"/>
      <point x="-52" y="460" type="line"/>
      <point x="-52" y="430" type="line"/>
      <point x="62" y="430" type="line"/>
      <point x="62" y="316" type="line"/>
      <point x="-52" y="316" type="line"/>
    </contour>
  </outline>
</glyph>
<glyph name="Euro" format="1">
  <advance width="1184"/>
  <unicode hex="20AC"/>
  <outline>
    <contour>
      <point x="-106" y="586" type="line"/>
      <point x="710" y="586" type="line"/>
      <point x="710" y="648" type="line"/>
      <point x="171" y="648" type="line"/>
      <point x="171" y="880" type="line"/>
      <point x="710" y="880" type="line"/>
      <point x="710" y="942" type="line"/>
      <point x="-106" y="942" type="line"/>
      <point x="-106" y="880" type="line"/>
      <point x="127" y="880" type="line"/>
      <point x="127" y="648" type="line"/>
      <point x="-106" y="648" type="line"/>
    </contour>
    <component base="C"/>
  </outline>
</glyph>
<glyph name="afii61289" format="1">
  <advance width="404"/>
  <unicode hex="2113"/>
  <outline>
    <contour>
      <point x="271" y="-5" type="curve" smooth="yes"/>
      <point x="298" y="-5"/>
      <point x="327" y="-1"/>
      <point x="357" y="8" type="curve"/>
      <point x="350" y="41" type="line"/>
      <point x="326" y="34"/>
      <point x="299" y="29"/>
      <point x="276" y="29" type="curve" smooth="yes"/>
      <point x="227" y="29"/>
      <point x="187" y="48"/>
      <point x="187" y="104" type="curve" smooth="yes"/>
      <point x="187" y="484" type="line"/>
      <point x="271" y="565" type="line" smooth="yes"/>
      <point x="303" y="596"/>
      <point x="320" y="615"/>
      <point x="320" y="645" type="curve" smooth="yes"/>
      <point x="320" y="692"/>
      <point x="280" y="722"/>
      <point x="235" y="722" type="curve" smooth="yes"/>
      <point x="194" y="722"/>
      <point x="144" y="696"/>
      <point x="144" y="620" type="curve" smooth="yes"/>
      <point x="144" y="491" type="line"/>
      <point x="35" y="386" type="line"/>
      <point x="35" y="343" type="line"/>
      <point x="144" y="448" type="line"/>
      <point x="144" y="104" type="line" smooth="yes"/>
      <point x="144" y="27"/>
      <point x="200" y="-5"/>
    </contour>
    <contour>
      <point x="187" y="527" type="line"/>
      <point x="187" y="622" type="line" smooth="yes"/>
      <point x="187" y="664"/>
      <point x="211" y="682"/>
      <point x="235" y="682" type="curve" smooth="yes"/>
      <point x="257" y="682"/>
      <point x="278" y="667"/>
      <point x="278" y="640" type="curve" smooth="yes"/>
      <point x="278" y="622"/>
      <point x="267" y="605"/>
      <point x="249" y="587" type="curve" smooth="yes"/>
    </contour>
  </outline>
</glyph>
<glyph name="trademark" format="1">
  <advance width="658"/>
  <unicode hex="2122"/>
  <outline>
    <contour>
      <point x="299" y="433" type="line"/>
      <point x="337" y="433" type="line"/>
      <point x="337" y="675" type="line"/>
      <point x="428" y="456" type="line"/>
      <point x="472" y="456" type="line"/>
      <point x="564" y="675" type="line"/>
      <point x="564" y="433" type="line"/>
      <point x="602" y="433" type="line"/>
      <point x="602" y="740" type="line"/>
      <point x="554" y="740" type="line"/>
      <point x="452" y="486" type="line"/>
      <point x="347" y="740" type="line"/>
      <point x="299" y="740" type="line"/>
    </contour>
    <contour>
      <point x="123" y="433" type="line"/>
      <point x="161" y="433" type="line"/>
      <point x="161" y="712" type="line"/>
      <point x="243" y="712" type="line"/>
      <point x="243" y="740" type="line"/>
      <point x="40" y="740" type="line"/>
      <point x="40" y="712" type="line"/>
      <point x="123" y="712" type="line"/>
    </contour>
  </outline>
</glyph>
<glyph name="Omega" format="1">
  <advance width="891"/>
  <unicode hex="2126"/>
  <outline>
    <contour>
      <point x="113" y="0" type="line"/>
      <point x="367" y="0" type="line"/>
      <point x="367" y="28" type="line"/>
      <point x="216" y="116"/>
      <point x="143" y="265"/>
      <point x="143" y="402" type="curve" smooth="yes"/>
      <point x="143" y="567"/>
      <point x="249" y="713"/>
      <point x="453" y="713" type="curve" smooth="yes"/>
      <point x="657" y="713"/>
      <point x="763" y="567"/>
      <point x="763" y="402" type="curve" smooth="yes"/>
      <point x="763" y="265"/>
      <point x="690" y="116"/>
      <point x="539" y="28" type="curve"/>
      <point x="539" y="0" type="line"/>
      <point x="792" y="0" type="line"/>
      <point x="796" y="29" type="line"/>
      <point x="585" y="29" type="line"/>
      <point x="731" y="112"/>
      <point x="805" y="262"/>
      <point x="805" y="403" type="curve" smooth="yes"/>
      <point x="805" y="582"/>
      <point x="687" y="748"/>
      <point x="453" y="748" type="curve" smooth="yes"/>
      <point x="219" y="748"/>
      <point x="101" y="582"/>
      <point x="101" y="403" type="curve" smooth="yes"/>
      <point x="101" y="262"/>
      <point x="174" y="112"/>
      <point x="320" y="29" type="curve"/>
      <point x="109" y="29" type="line"/>
    </contour>
  </outline>
</glyph>
<glyph name="estimated" format="1">
  <advance width="540"/>
  <unicode hex="212E"/>
  <outline>
    <contour>
      <point x="301" y="38" type="curve" smooth="yes"/>
      <point x="354" y="38"/>
      <point x="433" y="60"/>
      <point x="477" y="101" type="curve"/>
      <point x="460" y="130" type="line"/>
      <point x="421" y="97"/>
      <point x="363" y="74"/>
      <point x="303" y="74" type="curve" smooth="yes"/>
      <point x="241" y="74"/>
      <point x="194" y="94"/>
      <point x="161" y="128" type="curve"/>
      <point x="161" y="318" type="line"/>
      <point x="487" y="318" type="line"/>
      <point x="487" y="318"/>
      <point x="492" y="336"/>
      <point x="492" y="362" type="curve" smooth="yes"/>
      <point x="492" y="481"/>
      <point x="430" y="589"/>
      <point x="294" y="589" type="curve" smooth="yes"/>
      <point x="135" y="589"/>
      <point x="54" y="467"/>
      <point x="54" y="319" type="curve" smooth="yes"/>
      <point x="54" y="159"/>
      <point x="136" y="38"/>
    </contour>
    <contour>
      <point x="161" y="352" type="line"/>
      <point x="161" y="503" type="line"/>
      <point x="192" y="534"/>
      <point x="235" y="552"/>
      <point x="295" y="552" type="curve" smooth="yes"/>
      <point x="348" y="552"/>
      <point x="387" y="530"/>
      <point x="412" y="497" type="curve"/>
      <point x="412" y="352" type="line"/>
    </contour>
  </outline>
</glyph>
<glyph name="emptyset" format="1">
  <advance width="801"/>
  <unicode hex="2205"/>
  <outline>
    <contour>
      <point x="159" y="-33" type="line"/>
      <point x="234" y="51" type="line"/>
      <point x="281" y="14"/>
      <point x="341" y="-8"/>
      <point x="405" y="-8" type="curve" smooth="yes"/>
      <point x="559" y="-8"/>
      <point x="684" y="117"/>
      <point x="684" y="271" type="curve" smooth="yes"/>
      <point x="684" y="347"/>
      <point x="653" y="415"/>
      <point x="604" y="465" type="curve"/>
      <point x="677" y="545" type="line"/>
      <point x="656" y="565" type="line"/>
      <point x="583" y="484" type="line"/>
      <point x="535" y="524"/>
      <point x="472" y="549"/>
      <point x="405" y="549" type="curve" smooth="yes"/>
      <point x="251" y="549"/>
      <point x="126" y="425"/>
      <point x="126" y="271" type="curve" smooth="yes"/>
      <point x="126" y="192"/>
      <point x="158" y="121"/>
      <point x="211" y="70" type="curve"/>
      <point x="137" y="-13" type="line"/>
    </contour>
    <contour>
      <point x="235" y="97" type="line"/>
      <point x="192" y="141"/>
      <point x="167" y="204"/>
      <point x="167" y="271" type="curve" smooth="yes"/>
      <point x="167" y="402"/>
      <point x="264" y="513"/>
      <point x="405" y="513" type="curve" smooth="yes"/>
      <point x="466" y="513"/>
      <point x="518" y="492"/>
      <point x="559" y="458" type="curve"/>
    </contour>
    <contour>
      <point x="405" y="27" type="curve" smooth="yes"/>
      <point x="347" y="27"/>
      <point x="297" y="46"/>
      <point x="257" y="77" type="curve"/>
      <point x="580" y="438" type="line"/>
      <point x="620" y="394"/>
      <point x="643" y="335"/>
      <point x="643" y="271" type="curve" smooth="yes"/>
      <point x="643" y="140"/>
      <point x="546" y="27"/>
    </contour>
  </outline>
</glyph>
<glyph name="product" format="1">
  <advance width="668"/>
  <unicode hex="220F"/>
  <outline>
    <contour>
      <point x="93" y="-46" type="line"/>
      <point x="138" y="-46" type="line"/>
      <point x="138" y="690" type="line"/>
      <point x="531" y="690" type="line"/>
      <point x="531" y="-46" type="line"/>
      <point x="576" y="-46" type="line"/>
      <point x="576" y="690" type="line"/>
      <point x="655" y="690" type="line"/>
      <point x="655" y="725" type="line"/>
      <point x="15" y="725" type="line"/>
      <point x="15" y="690" type="line"/>
      <point x="93" y="690" type="line"/>
    </contour>
  </outline>
</glyph>
<glyph name="minus" format="1">
  <advance width="330"/>
  <unicode hex="2212"/>
  <outline>
    <contour>
      <point x="22" y="260" type="line"/>
      <point x="297" y="260" type="line"/>
      <point x="297" y="292" type="line"/>
      <point x="22" y="292" type="line"/>
    </contour>
  </outline>
</glyph>
<glyph name="infinity" format="1">
  <advance width="762"/>
  <unicode hex="221E"/>
  <outline>
    <contour>
      <point x="173" y="248" type="curve" smooth="yes"/>
      <point x="250" y="248"/>
      <point x="317" y="303"/>
      <point x="381" y="360" type="curve"/>
      <point x="445" y="303"/>
      <point x="512" y="248"/>
      <point x="589" y="248" type="curve" smooth="yes"/>
      <point x="656" y="248"/>
      <point x="707" y="289"/>
      <point x="708" y="378" type="curve"/>
      <point x="707" y="467"/>
      <point x="656" y="509"/>
      <point x="589" y="509" type="curve" smooth="yes"/>
      <point x="512" y="509"/>
      <point x="445" y="454"/>
      <point x="381" y="397" type="curve"/>
      <point x="317" y="454"/>
      <point x="250" y="509"/>
      <point x="173" y="509" type="curve" smooth="yes"/>
      <point x="106" y="509"/>
      <point x="55" y="467"/>
      <point x="54" y="378" type="curve" smooth="yes"/>
      <point x="55" y="289"/>
      <point x="106" y="248"/>
    </contour>
    <contour>
      <point x="179" y="279" type="curve" smooth="yes"/>
      <point x="122" y="279"/>
      <point x="84" y="306"/>
      <point x="83" y="378" type="curve"/>
      <point x="84" y="450"/>
      <point x="122" y="478"/>
      <point x="179" y="478" type="curve" smooth="yes"/>
      <point x="243" y="478"/>
      <point x="301" y="430"/>
      <point x="360" y="378" type="curve"/>
      <point x="301" y="326"/>
      <point x="243" y="279"/>
    </contour>
    <contour>
      <point x="584" y="279" type="curve" smooth="yes"/>
      <point x="520" y="279"/>
      <point x="462" y="326"/>
      <point x="403" y="378" type="curve"/>
      <point x="462" y="430"/>
      <point x="520" y="478"/>
      <point x="584" y="478" type="curve" smooth="yes"/>
      <point x="641" y="478"/>
      <point x="678" y="450"/>
      <point x="679" y="378" type="curve" smooth="yes"/>
      <point x="678" y="306"/>
      <point x="641" y="279"/>
    </contour>
  </outline>
</glyph>
<glyph name="integral" format="1">
  <advance width="553"/>
  <unicode hex="222B"/>
  <outline>
    <contour>
      <point x="153" y="-103" type="curve" smooth="yes"/>
      <point x="224" y="-103"/>
      <point x="249" y="-41"/>
      <point x="266" y="88" type="curve" smooth="yes"/>
      <point x="328" y="559" type="line" smooth="yes"/>
      <point x="344" y="675"/>
      <point x="368" y="715"/>
      <point x="419" y="715" type="curve" smooth="yes"/>
      <point x="441" y="715"/>
      <point x="468" y="708"/>
      <point x="502" y="695" type="curve"/>
      <point x="512" y="722" type="line"/>
      <point x="473" y="738"/>
      <point x="440" y="748"/>
      <point x="411" y="748" type="curve" smooth="yes"/>
      <point x="348" y="748"/>
      <point x="308" y="700"/>
      <point x="290" y="563" type="curve" smooth="yes"/>
      <point x="228" y="92" type="line" smooth="yes"/>
      <point x="213" y="-23"/>
      <point x="194" y="-64"/>
      <point x="141" y="-64" type="curve" smooth="yes"/>
      <point x="120" y="-64"/>
      <point x="92" y="-58"/>
      <point x="58" y="-46" type="curve"/>
      <point x="43" y="-71" type="line"/>
      <point x="88" y="-92"/>
      <point x="124" y="-103"/>
    </contour>
  </outline>
</glyph>
<glyph name="notequal" format="1">
  <advance width="351"/>
  <unicode hex="2260"/>
  <outline>
    <contour>
      <point x="103" y="-33" type="line"/>
      <point x="165" y="169" type="line"/>
      <point x="312" y="169" type="line"/>
      <point x="312" y="200" type="line"/>
      <point x="174" y="200" type="line"/>
      <point x="207" y="304" type="line"/>
      <point x="312" y="304" type="line"/>
      <point x="312" y="333" type="line"/>
      <point x="216" y="333" type="line"/>
      <point x="276" y="529" type="line"/>
      <point x="254" y="537" type="line"/>
      <point x="191" y="333" type="line"/>
      <point x="39" y="333" type="line"/>
      <point x="39" y="304" type="line"/>
      <point x="182" y="304" type="line"/>
      <point x="149" y="200" type="line"/>
      <point x="39" y="200" type="line"/>
      <point x="39" y="169" type="line"/>
      <point x="140" y="169" type="line"/>
      <point x="81" y="-24" type="line"/>
    </contour>
  </outline>
</glyph>
<glyph name="lessequal" format="1">
  <advance width="642"/>
  <unicode hex="2264"/>
  <outline>
    <contour>
      <point x="493" y="190" type="line"/>
      <point x="513" y="220" type="line"/>
      <point x="172" y="394" type="line"/>
      <point x="513" y="568" type="line"/>
      <point x="493" y="598" type="line"/>
      <point x="105" y="394" type="line"/>
    </contour>
    <contour>
      <point x="96" y="0" type="line"/>
      <point x="505" y="0" type="line"/>
      <point x="505" y="31" type="line"/>
      <point x="96" y="31" type="line"/>
    </contour>
  </outline>
</glyph>
<glyph name="greaterequal" format="1">
  <advance width="642"/>
  <unicode hex="2265"/>
  <outline>
    <contour>
      <point x="149" y="190" type="line"/>
      <point x="537" y="394" type="line"/>
      <point x="149" y="598" type="line"/>
      <point x="130" y="568" type="line"/>
      <point x="470" y="394" type="line"/>
      <point x="130" y="220" type="line"/>
    </contour>
    <contour>
      <point x="137" y="0" type="line"/>
      <point x="546" y="0" type="line"/>
      <point x="546" y="31" type="line"/>
      <point x="137" y="31" type="line"/>
    </contour>
  </outline>
</glyph>
<glyph name="lozenge" format="1">
  <advance width="801"/>
  <unicode hex="25CA"/>
  <outline>
    <contour>
      <point x="402" y="22" type="line"/>
      <point x="167" y="266" type="line"/>
      <point x="402" y="511" type="line"/>
      <point x="637" y="267" type="line"/>
    </contour>
    <contour>
      <point x="402" y="-25" type="line"/>
      <point x="685" y="267" type="line"/>
      <point x="402" y="559" type="line"/>
      <point x="119" y="266" type="line"/>
    </contour>
  </outline>
</glyph>
<glyph name="uniFB00" format="1">
  <advance width="1314"/>
  <unicode hex="FB00"/>
  <outline>
    <contour>
      <point x="283" y="1515" type="move" name="top"/>
    </contour>
    <contour>
      <point x="243" y="0" type="line"/>
      <point x="333" y="0" type="line"/>
      <point x="333" y="1035" type="line"/>
      <point x="863" y="1035" type="line"/>
      <point x="863" y="0" type="line"/>
      <point x="953" y="0" type="line"/>
      <point x="953" y="1035" type="line"/>
      <point x="1263" y="1035" type="line"/>
      <point x="1263" y="1097" type="line"/>
      <point x="953" y="1097" type="line"/>
      <point x="953" y="1144" type="line" smooth="yes"/>
      <point x="953" y="1344"/>
      <point x="976" y="1440"/>
      <point x="1124" y="1440" type="curve" smooth="yes"/>
      <point x="1182" y="1440"/>
      <point x="1243" y="1424"/>
      <point x="1284" y="1408" type="curve"/>
      <point x="1303" y="1472" type="line"/>
      <point x="1266" y="1489"/>
      <point x="1195" y="1510"/>
      <point x="1121" y="1510" type="curve" smooth="yes"/>
      <point x="932" y="1510"/>
      <point x="863" y="1413"/>
      <point x="863" y="1144" type="curve" smooth="yes"/>
      <point x="863" y="1097" type="line"/>
      <point x="333" y="1097" type="line"/>
      <point x="333" y="1144" type="line" smooth="yes"/>
      <point x="333" y="1344"/>
      <point x="356" y="1440"/>
      <point x="504" y="1440" type="curve" smooth="yes"/>
      <point x="562" y="1440"/>
      <point x="623" y="1424"/>
      <point x="664" y="1408" type="curve"/>
      <point x="683" y="1472" type="line"/>
      <point x="646" y="1489"/>
      <point x="575" y="1510"/>
      <point x="501" y="1510" type="curve" smooth="yes"/>
      <point x="312" y="1510"/>
      <point x="243" y="1413"/>
      <point x="243" y="1144" type="curve" smooth="yes"/>
      <point x="243" y="1097" type="line"/>
      <point x="58" y="1097" type="line"/>
      <point x="58" y="1035" type="line"/>
      <point x="243" y="1035" type="line"/>
    </contour>
  </outline>
</glyph>
<glyph name="uniFB00" format="1">
  <advance width="641"/>
  <unicode hex="FB00"/>
  <outline>
    <contour>
      <point x="138" y="740" type="move" name="top"/>
    </contour>
    <contour>
      <point x="119" y="0" type="line"/>
      <point x="163" y="0" type="line"/>
      <point x="163" y="505" type="line"/>
      <point x="421" y="505" type="line"/>
      <point x="421" y="0" type="line"/>
      <point x="465" y="0" type="line"/>
      <point x="465" y="505" type="line"/>
      <point x="617" y="505" type="line"/>
      <point x="617" y="536" type="line"/>
      <point x="465" y="536" type="line"/>
      <point x="465" y="559" type="line" smooth="yes"/>
      <point x="465" y="657"/>
      <point x="477" y="703"/>
      <point x="549" y="703" type="curve" smooth="yes"/>
      <point x="577" y="703"/>
      <point x="607" y="696"/>
      <point x="627" y="688" type="curve"/>
      <point x="636" y="719" type="line"/>
      <point x="618" y="727"/>
      <point x="583" y="737"/>
      <point x="547" y="737" type="curve" smooth="yes"/>
      <point x="455" y="737"/>
      <point x="421" y="690"/>
      <point x="421" y="559" type="curve" smooth="yes"/>
      <point x="421" y="536" type="line"/>
      <point x="163" y="536" type="line"/>
      <point x="163" y="559" type="line" smooth="yes"/>
      <point x="163" y="657"/>
      <point x="174" y="703"/>
      <point x="246" y="703" type="curve" smooth="yes"/>
      <point x="274" y="703"/>
      <point x="304" y="696"/>
      <point x="324" y="688" type="curve"/>
      <point x="333" y="719" type="line"/>
      <point x="315" y="727"/>
      <point x="281" y="737"/>
      <point x="245" y="737" type="curve" smooth="yes"/>
      <point x="153" y="737"/>
      <point x="119" y="690"/>
      <point x="119" y="559" type="curve" smooth="yes"/>
      <point x="119" y="536" type="line"/>
      <point x="28" y="536" type="line"/>
      <point x="28" y="505" type="line"/>
      <point x="119" y="505" type="line"/>
    </contour>
  </outline>
</glyph>
<glyph name="uniFB01" format="1">
  <advance width="528"/>
  <unicode hex="FB01"/>
  <outline>
    <contour>
      <point x="108" y="0" type="line"/>
      <point x="152" y="0" type="line"/>
      <point x="152" y="505" type="line"/>
      <point x="406" y="505" type="line"/>
      <point x="406" y="0" type="line"/>
      <point x="450" y="0" type="line"/>
      <point x="450" y="535" type="line"/>
      <point x="152" y="535" type="line"/>
      <point x="152" y="559" type="line" smooth="yes"/>
      <point x="152" y="657"/>
      <point x="164" y="703"/>
      <point x="236" y="703" type="curve" smooth="yes"/>
      <point x="264" y="703"/>
      <point x="294" y="696"/>
      <point x="314" y="688" type="curve"/>
      <point x="324" y="719" type="line"/>
      <point x="306" y="727"/>
      <point x="271" y="737"/>
      <point x="235" y="737" type="curve" smooth="yes"/>
      <point x="143" y="737"/>
      <point x="108" y="690"/>
      <point x="108" y="559" type="curve" smooth="yes"/>
      <point x="108" y="535" type="line"/>
      <point x="18" y="535" type="line"/>
      <point x="18" y="505" type="line"/>
      <point x="108" y="505" type="line"/>
    </contour>
    <contour>
      <point x="429" y="617" type="curve" smooth="yes"/>
      <point x="450" y="617"/>
      <point x="460" y="633"/>
      <point x="460" y="650" type="curve" smooth="yes"/>
      <point x="460" y="666"/>
      <point x="450" y="682"/>
      <point x="429" y="682" type="curve" smooth="yes"/>
      <point x="408" y="682"/>
      <point x="397" y="666"/>
      <point x="397" y="650" type="curve" smooth="yes"/>
      <point x="397" y="633"/>
      <point x="408" y="617"/>
    </contour>
  </outline>
</glyph>
